Rokkitt-Bold.ufo
<glyph name="exclam" format="1">
  <advance width="550"/>
  <unicode hex="0021"/>
  <outline>
    <contour>
      <point x="227" y="401" type="line"/>
      <point x="334" y="401" type="line"/>
      <point x="395" y="896" type="line"/>
      <point x="395" y="1194" type="line"/>
      <point x="158" y="1194" type="line"/>
      <point x="158" y="896" type="line"/>
    </contour>
    <contour>
      <point x="136" y="0" type="line"/>
      <point x="415" y="0" type="line"/>
      <point x="415" y="254" type="line"/>
      <point x="136" y="254" type="line"/>
    </contour>
  </outline>
</glyph>
<glyph name="quotedbl" format="1">
  <advance width="888"/>
  <unicode hex="0022"/>
  <outline>
    <contour>
      <point x="201" y="695" type="line"/>
      <point x="337" y="695" type="line"/>
      <point x="385" y="1203" type="line"/>
      <point x="147" y="1203" type="line"/>
    </contour>
    <contour>
      <point x="553" y="695" type="line"/>
      <point x="688" y="695" type="line"/>
      <point x="736" y="1203" type="line"/>
      <point x="499" y="1203" type="line"/>
    </contour>
  </outline>
</glyph>
<glyph name="numbersign" format="1">
  <advance width="1271"/>
  <unicode hex="0023"/>
  <outline>
    <contour>
      <point x="202" y="-7" type="line"/>
      <point x="380" y="-7" type="line"/>
      <point x="441" y="316" type="line"/>
      <point x="713" y="316" type="line"/>
      <point x="653" y="-7" type="line"/>
      <point x="832" y="-7" type="line"/>
      <point x="893" y="316" type="line"/>
      <point x="1146" y="316" type="line"/>
      <point x="1159" y="466" type="line"/>
      <point x="925" y="466" type="line"/>
      <point x="975" y="742" type="line"/>
      <point x="1193" y="742" type="line"/>
      <point x="1206" y="892" type="line"/>
      <point x="1007" y="892" type="line"/>
      <point x="1066" y="1204" type="line"/>
      <point x="886" y="1204" type="line"/>
      <point x="827" y="892" type="line"/>
      <point x="557" y="892" type="line"/>
      <point x="616" y="1204" type="line"/>
      <point x="436" y="1204" type="line"/>
      <point x="377" y="892" type="line"/>
      <point x="135" y="892" type="line"/>
      <point x="122" y="742" type="line"/>
      <point x="345" y="742" type="line"/>
      <point x="294" y="466" type="line"/>
      <point x="87" y="466" type="line"/>
      <point x="74" y="316" type="line"/>
      <point x="262" y="316" type="line"/>
    </contour>
    <contour>
      <point x="473" y="466" type="line"/>
      <point x="524" y="742" type="line"/>
      <point x="795" y="742" type="line"/>
      <point x="744" y="466" type="line"/>
    </contour>
  </outline>
</glyph>
<glyph name="dollar" format="1">
  <advance width="1057"/>
  <unicode hex="0024"/>
  <outline>
    <component base="S" xOffset="-50"/>
    <contour>
      <point x="467" y="-182" type="line"/>
      <point x="563" y="-182" type="line"/>
      <point x="563" y="1365" type="line"/>
      <point x="467" y="1365" type="line"/>
    </contour>
  </outline>
</glyph>
<glyph name="percent" format="1">
  <advance width="1870"/>
  <unicode hex="0025"/>
  <outline>
    <contour>
      <point x="446" y="702" type="curve" smooth="yes"/>
      <point x="357" y="704"/>
      <point x="295" y="774"/>
      <point x="295" y="876" type="curve" smooth="yes"/>
      <point x="295" y="976"/>
      <point x="357" y="1045"/>
      <point x="446" y="1047" type="curve" smooth="yes"/>
      <point x="536" y="1045"/>
      <point x="598" y="976"/>
      <point x="598" y="876" type="curve" smooth="yes"/>
      <point x="598" y="774"/>
      <point x="536" y="704"/>
    </contour>
    <contour>
      <point x="446" y="571" type="curve" smooth="yes"/>
      <point x="631" y="571"/>
      <point x="764" y="698"/>
      <point x="764" y="876" type="curve" smooth="yes"/>
      <point x="764" y="1051"/>
      <point x="631" y="1176"/>
      <point x="446" y="1176" type="curve" smooth="yes"/>
      <point x="261" y="1176"/>
      <point x="129" y="1051"/>
      <point x="129" y="876" type="curve" smooth="yes"/>
      <point x="129" y="698"/>
      <point x="261" y="571"/>
    </contour>
    <contour>
      <point x="503" y="-87" type="line"/>
      <point x="1510" y="1166" type="line"/>
      <point x="1384" y="1264" type="line"/>
      <point x="374" y="17" type="line"/>
    </contour>
    <contour>
      <point x="1431" y="109" type="curve" smooth="yes"/>
      <point x="1343" y="110"/>
      <point x="1281" y="181"/>
      <point x="1281" y="282" type="curve" smooth="yes"/>
      <point x="1281" y="383"/>
      <point x="1343" y="452"/>
      <point x="1431" y="454" type="curve" smooth="yes"/>
      <point x="1521" y="452"/>
      <point x="1583" y="383"/>
      <point x="1583" y="282" type="curve" smooth="yes"/>
      <point x="1583" y="181"/>
      <point x="1521" y="110"/>
    </contour>
    <contour>
      <point x="1431" y="-22" type="curve" smooth="yes"/>
      <point x="1617" y="-22"/>
      <point x="1750" y="105"/>
      <point x="1750" y="282" type="curve" smooth="yes"/>
      <point x="1750" y="457"/>
      <point x="1617" y="582"/>
      <point x="1431" y="582" type="curve" smooth="yes"/>
      <point x="1246" y="582"/>
      <point x="1114" y="457"/>
      <point x="1114" y="282" type="curve" smooth="yes"/>
      <point x="1114" y="105"/>
      <point x="1246" y="-22"/>
    </contour>
  </outline>
</glyph>
<glyph name="ampersand" format="1">
  <advance width="1458"/>
  <unicode hex="0026"/>
  <outline>
    <contour>
      <point x="543" y="-20" type="curve" smooth="yes"/>
      <point x="689" y="-20"/>
      <point x="809" y="27"/>
      <point x="915" y="118" type="curve"/>
      <point x="1006" y="0" type="line"/>
      <point x="1352" y="0" type="line"/>
      <point x="1352" y="170" type="line"/>
      <point x="1160" y="170" type="line"/>
      <point x="1069" y="274" type="line"/>
      <point x="1129" y="347"/>
      <point x="1174" y="427"/>
      <point x="1210" y="527" type="curve"/>
      <point x="1351" y="529" type="line"/>
      <point x="1351" y="694" type="line"/>
      <point x="1055" y="694" type="line"/>
      <point x="1032" y="603"/>
      <point x="1000" y="499"/>
      <point x="940" y="423" type="curve"/>
      <point x="732" y="655" type="line"/>
      <point x="909" y="737"/>
      <point x="975" y="833"/>
      <point x="975" y="956" type="curve" smooth="yes"/>
      <point x="975" y="1090"/>
      <point x="850" y="1209"/>
      <point x="657" y="1209" type="curve" smooth="yes"/>
      <point x="449" y="1209"/>
      <point x="315" y="1090"/>
      <point x="315" y="944" type="curve" smooth="yes"/>
      <point x="315" y="847"/>
      <point x="354" y="775"/>
      <point x="416" y="697" type="curve"/>
      <point x="227" y="620"/>
      <point x="104" y="514"/>
      <point x="104" y="353" type="curve" smooth="yes"/>
      <point x="104" y="151"/>
      <point x="275" y="-20"/>
    </contour>
    <contour>
      <point x="580" y="166" type="curve" smooth="yes"/>
      <point x="443" y="166"/>
      <point x="357" y="274"/>
      <point x="357" y="364" type="curve" smooth="yes"/>
      <point x="357" y="453"/>
      <point x="416" y="518"/>
      <point x="527" y="567" type="curve"/>
      <point x="794" y="259" type="line"/>
      <point x="728" y="192"/>
      <point x="661" y="166"/>
    </contour>
    <contour>
      <point x="626" y="790" type="curve"/>
      <point x="573" y="856"/>
      <point x="543" y="905"/>
      <point x="543" y="957" type="curve" smooth="yes"/>
      <point x="543" y="1020"/>
      <point x="586" y="1058"/>
      <point x="657" y="1058" type="curve" smooth="yes"/>
      <point x="720" y="1058"/>
      <point x="767" y="1019"/>
      <point x="767" y="951" type="curve" smooth="yes"/>
      <point x="767" y="883"/>
      <point x="727" y="837"/>
    </contour>
  </outline>
</glyph>
<glyph name="quotesingle" format="1">
  <advance width="549"/>
  <unicode hex="0027"/>
  <outline>
    <contour>
      <point x="201" y="695" type="line"/>
      <point x="336" y="695" type="line"/>
      <point x="385" y="1203" type="line"/>
      <point x="147" y="1203" type="line"/>
    </contour>
  </outline>
</glyph>
<glyph name="parenleft" format="1">
  <advance width="677"/>
  <unicode hex="0028"/>
  <outline>
    <contour>
      <point x="571" y="-135" type="curve"/>
      <point x="569" y="19" type="line"/>
      <point x="451" y="112"/>
      <point x="390" y="315"/>
      <point x="390" y="520" type="curve" smooth="yes"/>
      <point x="390" y="724"/>
      <point x="451" y="929"/>
      <point x="569" y="1023" type="curve"/>
      <point x="571" y="1172" type="line"/>
      <point x="261" y="1027"/>
      <point x="103" y="771"/>
      <point x="103" y="516" type="curve" smooth="yes"/>
      <point x="103" y="265"/>
      <point x="259" y="12"/>
    </contour>
  </outline>
</glyph>
<glyph name="parenright" format="1">
  <advance width="677"/>
  <unicode hex="0029"/>
  <outline>
    <contour>
      <point x="145" y="-135" type="line"/>
      <point x="457" y="12"/>
      <point x="613" y="265"/>
      <point x="613" y="516" type="curve" smooth="yes"/>
      <point x="613" y="771"/>
      <point x="456" y="1027"/>
      <point x="145" y="1172" type="curve"/>
      <point x="148" y="1023" type="line"/>
      <point x="266" y="929"/>
      <point x="326" y="724"/>
      <point x="326" y="520" type="curve" smooth="yes"/>
      <point x="326" y="315"/>
      <point x="266" y="112"/>
      <point x="148" y="19" type="curve"/>
    </contour>
  </outline>
</glyph>
<glyph name="asterisk" format="1">
  <advance width="925"/>
  <unicode hex="002A"/>
  <outline>
    <contour>
      <point x="319" y="410" type="line"/>
      <point x="465" y="738" type="line"/>
      <point x="613" y="410" type="line"/>
      <point x="786" y="533" type="line"/>
      <point x="531" y="772" type="line"/>
      <point x="868" y="811" type="line"/>
      <point x="815" y="1004" type="line"/>
      <point x="495" y="837" type="line"/>
      <point x="572" y="1186" type="line"/>
      <point x="361" y="1186" type="line"/>
      <point x="437" y="837" type="line"/>
      <point x="119" y="1004" type="line"/>
      <point x="63" y="811" type="line"/>
      <point x="401" y="772" type="line"/>
      <point x="145" y="533" type="line"/>
    </contour>
  </outline>
</glyph>
<glyph name="plus" format="1">
  <advance width="1021"/>
  <unicode hex="002B"/>
  <outline>
    <contour>
      <point x="425" y="137" type="line"/>
      <point x="607" y="137" type="line"/>
      <point x="607" y="491" type="line"/>
      <point x="939" y="491" type="line"/>
      <point x="939" y="656" type="line"/>
      <point x="607" y="656" type="line"/>
      <point x="607" y="1012" type="line"/>
      <point x="425" y="1012" type="line"/>
      <point x="425" y="656" type="line"/>
      <point x="93" y="656" type="line"/>
      <point x="93" y="491" type="line"/>
      <point x="425" y="491" type="line"/>
    </contour>
  </outline>
</glyph>
<glyph name="comma" format="1">
  <advance width="653"/>
  <unicode hex="002C"/>
  <outline>
    <contour>
      <point x="211" y="-275" type="line"/>
      <point x="438" y="-274"/>
      <point x="508" y="-192"/>
      <point x="508" y="33" type="curve" smooth="yes"/>
      <point x="508" y="98"/>
      <point x="504" y="230"/>
      <point x="498" y="281" type="curve"/>
      <point x="463" y="281"/>
      <point x="239" y="280"/>
      <point x="209" y="277" type="curve"/>
      <point x="209" y="250"/>
      <point x="211" y="27"/>
      <point x="212" y="1" type="curve"/>
      <point x="363" y="1" type="line"/>
      <point x="363" y="-113"/>
      <point x="314" y="-156"/>
      <point x="211" y="-170" type="curve"/>
    </contour>
  </outline>
</glyph>
<glyph name="hyphen" format="1">
  <advance width="647"/>
  <unicode hex="002D"/>
  <outline>
    <contour>
      <point x="318" y="456" type="move" name="_mid"/>
    </contour>
    <contour>
      <point x="64" y="377" type="line"/>
      <point x="583" y="377" type="line"/>
      <point x="583" y="547" type="line"/>
      <point x="64" y="547" type="line"/>
    </contour>
  </outline>
</glyph>
<glyph name="slash" format="1">
  <advance width="660"/>
  <unicode hex="002F"/>
  <outline>
    <contour>
      <point x="142" y="-124" type="line"/>
      <point x="751" y="1198" type="line"/>
      <point x="608" y="1254" type="line"/>
      <point x="-3" y="-69" type="line"/>
    </contour>
  </outline>
</glyph>
<glyph name="zero" format="1">
  <advance width="1137"/>
  <unicode hex="0030"/>
  <outline>
    <contour>
      <point x="567" y="165" type="curve" smooth="yes"/>
      <point x="426" y="165"/>
      <point x="357" y="297"/>
      <point x="357" y="556" type="curve" smooth="yes"/>
      <point x="357" y="842"/>
      <point x="426" y="988"/>
      <point x="567" y="988" type="curve" smooth="yes"/>
      <point x="710" y="988"/>
      <point x="780" y="842"/>
      <point x="780" y="557" type="curve" smooth="yes"/>
      <point x="780" y="298"/>
      <point x="710" y="165"/>
    </contour>
    <contour>
      <point x="567" y="-22" type="curve" smooth="yes"/>
      <point x="877" y="-22"/>
      <point x="1039" y="184"/>
      <point x="1039" y="557" type="curve" smooth="yes"/>
      <point x="1039" y="938"/>
      <point x="877" y="1174"/>
      <point x="567" y="1174" type="curve" smooth="yes"/>
      <point x="259" y="1174"/>
      <point x="98" y="937"/>
      <point x="98" y="557" type="curve" smooth="yes"/>
      <point x="98" y="185"/>
      <point x="259" y="-22"/>
    </contour>
  </outline>
</glyph>
<glyph name="one" format="1">
  <advance width="910"/>
  <unicode hex="0031"/>
  <outline>
    <contour>
      <point x="166" y="0" type="line"/>
      <point x="801" y="0" type="line"/>
      <point x="801" y="169" type="line"/>
      <point x="621" y="169" type="line"/>
      <point x="621" y="1151" type="line"/>
      <point x="159" y="1097" type="line"/>
      <point x="159" y="930" type="line"/>
      <point x="357" y="958" type="line"/>
      <point x="357" y="169" type="line"/>
      <point x="166" y="169" type="line"/>
    </contour>
  </outline>
</glyph>
<glyph name="two" format="1">
  <advance width="1097"/>
  <unicode hex="0032"/>
  <outline>
    <contour>
      <point x="146" y="0" type="line"/>
      <point x="982" y="0" type="line"/>
      <point x="978" y="373" type="line"/>
      <point x="790" y="373" type="line"/>
      <point x="787" y="169" type="line"/>
      <point x="445" y="169" type="line"/>
      <point x="714" y="428" type="line" smooth="yes"/>
      <point x="846" y="557"/>
      <point x="971" y="679"/>
      <point x="971" y="826" type="curve" smooth="yes"/>
      <point x="971" y="1068"/>
      <point x="769" y="1174"/>
      <point x="543" y="1174" type="curve" smooth="yes"/>
      <point x="264" y="1174"/>
      <point x="126" y="1018"/>
      <point x="126" y="822" type="curve" smooth="yes"/>
      <point x="126" y="769"/>
      <point x="137" y="714"/>
      <point x="156" y="662" type="curve"/>
      <point x="373" y="662" type="line"/>
      <point x="361" y="708"/>
      <point x="354" y="750"/>
      <point x="354" y="788" type="curve" smooth="yes"/>
      <point x="354" y="915"/>
      <point x="424" y="985"/>
      <point x="543" y="985" type="curve" smooth="yes"/>
      <point x="662" y="985"/>
      <point x="714" y="919"/>
      <point x="717" y="825" type="curve" smooth="yes"/>
      <point x="720" y="751"/>
      <point x="637" y="663"/>
      <point x="546" y="572" type="curve" smooth="yes"/>
      <point x="147" y="181" type="line"/>
    </contour>
  </outline>
</glyph>
<glyph name="three" format="1">
  <advance width="1118"/>
  <unicode hex="0033"/>
  <outline>
    <contour>
      <point x="546" y="-22" type="curve" smooth="yes"/>
      <point x="850" y="-22"/>
      <point x="1011" y="132"/>
      <point x="1011" y="343" type="curve" smooth="yes"/>
      <point x="1011" y="475"/>
      <point x="927" y="577"/>
      <point x="770" y="615" type="curve"/>
      <point x="891" y="651"/>
      <point x="962" y="738"/>
      <point x="962" y="860" type="curve" smooth="yes"/>
      <point x="962" y="1021"/>
      <point x="831" y="1174"/>
      <point x="537" y="1174" type="curve" smooth="yes"/>
      <point x="365" y="1174"/>
      <point x="154" y="1085"/>
      <point x="99" y="905" type="curve"/>
      <point x="299" y="822" type="line"/>
      <point x="331" y="915"/>
      <point x="412" y="982"/>
      <point x="528" y="982" type="curve" smooth="yes"/>
      <point x="637" y="982"/>
      <point x="712" y="920"/>
      <point x="712" y="843" type="curve" smooth="yes"/>
      <point x="712" y="747"/>
      <point x="649" y="682"/>
      <point x="454" y="682" type="curve"/>
      <point x="454" y="515" type="line"/>
      <point x="664" y="515"/>
      <point x="751" y="465"/>
      <point x="755" y="352" type="curve" smooth="yes"/>
      <point x="759" y="236"/>
      <point x="672" y="170"/>
      <point x="547" y="170" type="curve" smooth="yes"/>
      <point x="432" y="170"/>
      <point x="335" y="226"/>
      <point x="290" y="356" type="curve"/>
      <point x="98" y="259" type="line"/>
      <point x="149" y="86"/>
      <point x="327" y="-22"/>
    </contour>
  </outline>
</glyph>
<glyph name="four" format="1">
  <advance width="1061"/>
  <unicode hex="0034"/>
  <outline>
    <contour>
      <point x="358" y="0" type="line"/>
      <point x="924" y="0" type="line"/>
      <point x="924" y="169" type="line"/>
      <point x="774" y="169" type="line"/>
      <point x="774" y="355" type="line"/>
      <point x="946" y="355" type="line"/>
      <point x="946" y="510" type="line"/>
      <point x="774" y="510" type="line"/>
      <point x="774" y="1152" type="line"/>
      <point x="527" y="1152" type="line"/>
      <point x="35" y="515" type="line"/>
      <point x="58" y="355" type="line"/>
      <point x="534" y="355" type="line"/>
      <point x="534" y="169" type="line"/>
      <point x="358" y="169" type="line"/>
    </contour>
    <contour>
      <point x="239" y="510" type="line"/>
      <point x="534" y="914" type="line"/>
      <point x="534" y="510" type="line"/>
    </contour>
  </outline>
</glyph>
<glyph name="five" format="1">
  <advance width="1109"/>
  <unicode hex="0035"/>
  <outline>
    <contour>
      <point x="555" y="-22" type="curve" smooth="yes"/>
      <point x="834" y="-22"/>
      <point x="1012" y="128"/>
      <point x="1012" y="365" type="curve" smooth="yes"/>
      <point x="1012" y="602"/>
      <point x="863" y="754"/>
      <point x="627" y="754" type="curve" smooth="yes"/>
      <point x="533" y="754"/>
      <point x="435" y="718"/>
      <point x="381" y="661" type="curve"/>
      <point x="399" y="976" type="line"/>
      <point x="758" y="976" type="line"/>
      <point x="758" y="842" type="line"/>
      <point x="951" y="842" type="line"/>
      <point x="951" y="1152" type="line"/>
      <point x="189" y="1152" type="line"/>
      <point x="162" y="537" type="line"/>
      <point x="354" y="459" type="line"/>
      <point x="413" y="525"/>
      <point x="510" y="560"/>
      <point x="572" y="560" type="curve" smooth="yes"/>
      <point x="687" y="560"/>
      <point x="758" y="488"/>
      <point x="758" y="373" type="curve" smooth="yes"/>
      <point x="758" y="253"/>
      <point x="675" y="177"/>
      <point x="543" y="177" type="curve" smooth="yes"/>
      <point x="425" y="177"/>
      <point x="314" y="234"/>
      <point x="239" y="318" type="curve"/>
      <point x="114" y="158" type="line"/>
      <point x="207" y="51"/>
      <point x="365" y="-22"/>
    </contour>
  </outline>
</glyph>
<glyph name="six" format="1">
  <advance width="1071"/>
  <unicode hex="0036"/>
  <outline>
    <contour>
      <point x="539" y="-20" type="curve" smooth="yes"/>
      <point x="807" y="-20"/>
      <point x="981" y="131"/>
      <point x="981" y="407" type="curve" smooth="yes"/>
      <point x="981" y="621"/>
      <point x="819" y="782"/>
      <point x="602" y="782" type="curve" smooth="yes"/>
      <point x="482" y="782"/>
      <point x="388" y="711"/>
      <point x="382" y="679" type="curve"/>
      <point x="777" y="1140" type="line"/>
      <point x="600" y="1281" type="line"/>
      <point x="254" y="840" type="line" smooth="yes"/>
      <point x="108" y="665"/>
      <point x="94" y="534"/>
      <point x="94" y="398" type="curve" smooth="yes"/>
      <point x="94" y="157"/>
      <point x="263" y="-20"/>
    </contour>
    <contour>
      <point x="547" y="160" type="curve" smooth="yes"/>
      <point x="409" y="160"/>
      <point x="346" y="260"/>
      <point x="346" y="397" type="curve" smooth="yes"/>
      <point x="346" y="531"/>
      <point x="433" y="615"/>
      <point x="553" y="615" type="curve" smooth="yes"/>
      <point x="674" y="615"/>
      <point x="740" y="526"/>
      <point x="740" y="399" type="curve" smooth="yes"/>
      <point x="740" y="255"/>
      <point x="668" y="160"/>
    </contour>
  </outline>
</glyph>
<glyph name="seven" format="1">
  <advance width="1075"/>
  <unicode hex="0037"/>
  <outline>
    <contour>
      <point x="299" y="0" type="curve"/>
      <point x="596" y="0" type="line"/>
      <point x="596" y="0"/>
      <point x="732" y="497"/>
      <point x="991" y="960" type="curve"/>
      <point x="991" y="1152" type="line"/>
      <point x="124" y="1152" type="line"/>
      <point x="124" y="767" type="line"/>
      <point x="330" y="767" type="line"/>
      <point x="330" y="979" type="line"/>
      <point x="700" y="979" type="line"/>
      <point x="478" y="555"/>
      <point x="299" y="0"/>
    </contour>
  </outline>
</glyph>
<glyph name="eight" format="1">
  <advance width="1145"/>
  <unicode hex="0038"/>
  <outline>
    <contour>
      <point x="577" y="-22" type="curve" smooth="yes"/>
      <point x="862" y="-22"/>
      <point x="1039" y="121"/>
      <point x="1039" y="311" type="curve" smooth="yes"/>
      <point x="1039" y="449"/>
      <point x="957" y="560"/>
      <point x="812" y="604" type="curve"/>
      <point x="936" y="654"/>
      <point x="997" y="749"/>
      <point x="997" y="865" type="curve" smooth="yes"/>
      <point x="997" y="1049"/>
      <point x="828" y="1175"/>
      <point x="572" y="1174" type="curve" smooth="yes"/>
      <point x="316" y="1173"/>
      <point x="146" y="1046"/>
      <point x="146" y="864" type="curve" smooth="yes"/>
      <point x="146" y="745"/>
      <point x="210" y="648"/>
      <point x="335" y="599" type="curve"/>
      <point x="188" y="559"/>
      <point x="107" y="450"/>
      <point x="107" y="311" type="curve" smooth="yes"/>
      <point x="107" y="124"/>
      <point x="279" y="-22"/>
    </contour>
    <contour>
      <point x="576" y="134" type="curve" smooth="yes"/>
      <point x="458" y="134"/>
      <point x="383" y="208"/>
      <point x="383" y="317" type="curve" smooth="yes"/>
      <point x="383" y="444"/>
      <point x="461" y="534"/>
      <point x="496" y="535" type="curve"/>
      <point x="652" y="499"/>
      <point x="764" y="443"/>
      <point x="764" y="316" type="curve" smooth="yes"/>
      <point x="764" y="208"/>
      <point x="690" y="134"/>
    </contour>
    <contour>
      <point x="635" y="663" type="curve"/>
      <point x="509" y="692"/>
      <point x="408" y="749"/>
      <point x="408" y="854" type="curve" smooth="yes"/>
      <point x="408" y="955"/>
      <point x="470" y="1021"/>
      <point x="572" y="1021" type="curve" smooth="yes"/>
      <point x="680" y="1021"/>
      <point x="740" y="952"/>
      <point x="740" y="854" type="curve" smooth="yes"/>
      <point x="740" y="744"/>
      <point x="665" y="662"/>
    </contour>
  </outline>
</glyph>
<glyph name="nine" format="1">
  <advance width="1070"/>
  <unicode hex="0039"/>
  <outline>
    <contour>
      <point x="474" y="-128" type="line"/>
      <point x="821" y="318" type="line" smooth="yes"/>
      <point x="969" y="497"/>
      <point x="987" y="625"/>
      <point x="987" y="761" type="curve" smooth="yes"/>
      <point x="987" y="1001"/>
      <point x="818" y="1174"/>
      <point x="538" y="1174" type="curve" smooth="yes"/>
      <point x="273" y="1174"/>
      <point x="98" y="1024"/>
      <point x="98" y="749" type="curve" smooth="yes"/>
      <point x="98" y="537"/>
      <point x="264" y="378"/>
      <point x="478" y="378" type="curve" smooth="yes"/>
      <point x="601" y="378"/>
      <point x="684" y="448"/>
      <point x="685" y="478" type="curve"/>
      <point x="294" y="13" type="line"/>
    </contour>
    <contour>
      <point x="526" y="545" type="curve" smooth="yes"/>
      <point x="407" y="545"/>
      <point x="339" y="635"/>
      <point x="339" y="759" type="curve" smooth="yes"/>
      <point x="339" y="903"/>
      <point x="412" y="994"/>
      <point x="533" y="994" type="curve" smooth="yes"/>
      <point x="671" y="994"/>
      <point x="732" y="899"/>
      <point x="732" y="761" type="curve" smooth="yes"/>
      <point x="732" y="629"/>
      <point x="646" y="545"/>
    </contour>
  </outline>
</glyph>
<glyph name="semicolon" format="1">
  <advance width="637"/>
  <unicode hex="003B"/>
  <outline>
    <contour>
      <point x="189" y="-228" type="line"/>
      <point x="421" y="-226"/>
      <point x="486" y="-147"/>
      <point x="486" y="70" type="curve" smooth="yes"/>
      <point x="486" y="107"/>
      <point x="483" y="302"/>
      <point x="480" y="331" type="curve"/>
      <point x="188" y="330" type="line"/>
      <point x="189" y="48" type="line"/>
      <point x="341" y="48" type="line"/>
      <point x="341" y="-65"/>
      <point x="299" y="-114"/>
      <point x="189" y="-123" type="curve"/>
    </contour>
    <contour>
      <point x="187" y="635" type="line"/>
      <point x="471" y="635" type="line"/>
      <point x="471" y="918" type="line"/>
      <point x="187" y="918" type="line"/>
    </contour>
  </outline>
</glyph>
<glyph name="less" format="1">
  <advance width="1151"/>
  <unicode hex="003C"/>
  <outline>
    <contour>
      <point x="970" y="75" type="line"/>
      <point x="970" y="281" type="line"/>
      <point x="251" y="594" type="line"/>
      <point x="970" y="911" type="line"/>
      <point x="970" y="1115" type="line"/>
      <point x="42" y="695" type="line"/>
      <point x="42" y="487" type="line"/>
    </contour>
  </outline>
</glyph>
<glyph name="greater" format="1">
  <advance width="1153"/>
  <unicode hex="003E"/>
  <outline>
    <contour>
      <point x="184" y="75" type="line"/>
      <point x="1110" y="487" type="line"/>
      <point x="1110" y="695" type="line"/>
      <point x="184" y="1115" type="line"/>
      <point x="184" y="911" type="line"/>
      <point x="901" y="594" type="line"/>
      <point x="184" y="281" type="line"/>
    </contour>
  </outline>
</glyph>
<glyph name="question" format="1">
  <advance width="981"/>
  <unicode hex="003F"/>
  <outline>
    <contour>
      <point x="382" y="368" type="curve"/>
      <point x="551" y="368" type="line"/>
      <point x="594" y="684"/>
      <point x="894" y="608"/>
      <point x="894" y="905" type="curve" smooth="yes"/>
      <point x="894" y="1082"/>
      <point x="770" y="1240"/>
      <point x="503" y="1240" type="curve" smooth="yes"/>
      <point x="283" y="1240"/>
      <point x="88" y="1139"/>
      <point x="88" y="862" type="curve"/>
      <point x="303" y="862" type="line"/>
      <point x="303" y="990"/>
      <point x="367" y="1061"/>
      <point x="494" y="1061" type="curve" smooth="yes"/>
      <point x="601" y="1061"/>
      <point x="661" y="994"/>
      <point x="661" y="902" type="curve" smooth="yes"/>
      <point x="661" y="709"/>
      <point x="415" y="794"/>
    </contour>
    <contour>
      <point x="348" y="0" type="line"/>
      <point x="599" y="0" type="line"/>
      <point x="599" y="234" type="line"/>
      <point x="348" y="234" type="line"/>
    </contour>
  </outline>
</glyph>
<glyph name="at" format="1">
  <advance width="1479"/>
  <unicode hex="0040"/>
  <outline>
    <contour>
      <point x="798" y="-66" type="curve" smooth="yes"/>
      <point x="983" y="-66"/>
      <point x="1126" y="-15"/>
      <point x="1242" y="75" type="curve"/>
      <point x="1168" y="163" type="line"/>
      <point x="1070" y="86"/>
      <point x="945" y="49"/>
      <point x="798" y="49" type="curve" smooth="yes"/>
      <point x="442" y="49"/>
      <point x="245" y="252"/>
      <point x="245" y="556" type="curve" smooth="yes"/>
      <point x="245" y="883"/>
      <point x="472" y="1116"/>
      <point x="783" y="1116" type="curve" smooth="yes"/>
      <point x="1081" y="1116"/>
      <point x="1240" y="915"/>
      <point x="1240" y="700" type="curve" smooth="yes"/>
      <point x="1240" y="462"/>
      <point x="1074" y="335"/>
      <point x="1008" y="335" type="curve" smooth="yes"/>
      <point x="987" y="335"/>
      <point x="986" y="380"/>
      <point x="1006" y="472" type="curve" smooth="yes"/>
      <point x="1108" y="947" type="line"/>
      <point x="965" y="947" type="line"/>
      <point x="945" y="841" type="line"/>
      <point x="903" y="926"/>
      <point x="831" y="963"/>
      <point x="751" y="963" type="curve" smooth="yes"/>
      <point x="506" y="963"/>
      <point x="383" y="736"/>
      <point x="383" y="532" type="curve" smooth="yes"/>
      <point x="383" y="326"/>
      <point x="515" y="213"/>
      <point x="653" y="213" type="curve" smooth="yes"/>
      <point x="730" y="213"/>
      <point x="806" y="245"/>
      <point x="866" y="326" type="curve"/>
      <point x="877" y="242"/>
      <point x="917" y="213"/>
      <point x="967" y="213" type="curve" smooth="yes"/>
      <point x="1216" y="213"/>
      <point x="1372" y="452"/>
      <point x="1372" y="701" type="curve" smooth="yes"/>
      <point x="1372" y="962"/>
      <point x="1198" y="1233"/>
      <point x="788" y="1233" type="curve" smooth="yes"/>
      <point x="348" y="1233"/>
      <point x="105" y="892"/>
      <point x="105" y="558" type="curve" smooth="yes"/>
      <point x="105" y="243"/>
      <point x="324" y="-66"/>
    </contour>
    <contour>
      <point x="683" y="327" type="curve" smooth="yes"/>
      <point x="575" y="327"/>
      <point x="524" y="423"/>
      <point x="524" y="530" type="curve" smooth="yes"/>
      <point x="524" y="676"/>
      <point x="600" y="845"/>
      <point x="738" y="845" type="curve" smooth="yes"/>
      <point x="839" y="845"/>
      <point x="904" y="776"/>
      <point x="904" y="668" type="curve" smooth="yes"/>
      <point x="904" y="510"/>
      <point x="805" y="327"/>
    </contour>
  </outline>
</glyph>
<glyph name="A" format="1">
  <advance width="1486"/>
  <unicode hex="0041"/>
  <outline>
    <contour>
      <point x="733" y="1152" type="move" name="top"/>
    </contour>
    <contour>
      <point x="1160" y="0" type="move" name="ogonek"/>
    </contour>
    <contour>
      <point x="46" y="169" type="line"/>
      <point x="46" y="0" type="line"/>
      <point x="591" y="0" type="line"/>
      <point x="591" y="169" type="line"/>
      <point x="429" y="169" type="line"/>
      <point x="514" y="421" type="line"/>
      <point x="902" y="421" type="line"/>
      <point x="987" y="169" type="line"/>
      <point x="820" y="169" type="line"/>
      <point x="820" y="0" type="line"/>
      <point x="1440" y="0" type="line"/>
      <point x="1440" y="169" type="line"/>
      <point x="1297" y="169" type="line"/>
      <point x="985" y="984" type="line"/>
      <point x="1117" y="984" type="line"/>
      <point x="1117" y="1152" type="line"/>
      <point x="363" y="1152" type="line"/>
      <point x="363" y="984" type="line"/>
      <point x="499" y="984" type="line"/>
      <point x="193" y="169" type="line"/>
    </contour>
    <contour>
      <point x="857" y="568" type="line"/>
      <point x="558" y="568" type="line"/>
      <point x="702" y="977" type="line"/>
      <point x="718" y="977" type="line"/>
    </contour>
  </outline>
</glyph>
<glyph name="B" format="1">
  <advance width="1254"/>
  <unicode hex="0042"/>
  <outline>
    <contour>
      <point x="543" y="1152" type="move" name="top"/>
    </contour>
    <contour>
      <point x="52" y="0" type="line"/>
      <point x="681" y="0" type="line" smooth="yes"/>
      <point x="1077" y="0"/>
      <point x="1183" y="171"/>
      <point x="1183" y="340" type="curve" smooth="yes"/>
      <point x="1183" y="470"/>
      <point x="1107" y="584"/>
      <point x="929" y="623" type="curve"/>
      <point x="1053" y="660"/>
      <point x="1125" y="746"/>
      <point x="1125" y="874" type="curve" smooth="yes"/>
      <point x="1125" y="1044"/>
      <point x="983" y="1152"/>
      <point x="693" y="1152" type="curve" smooth="yes"/>
      <point x="52" y="1152" type="line"/>
      <point x="52" y="984" type="line"/>
      <point x="213" y="984" type="line"/>
      <point x="213" y="168" type="line"/>
      <point x="52" y="168" type="line"/>
    </contour>
    <contour>
      <point x="496" y="169" type="line"/>
      <point x="496" y="532" type="line"/>
      <point x="648" y="532" type="line" smooth="yes"/>
      <point x="831" y="532"/>
      <point x="890" y="451"/>
      <point x="890" y="353" type="curve" smooth="yes"/>
      <point x="890" y="243"/>
      <point x="832" y="169"/>
      <point x="645" y="169" type="curve" smooth="yes"/>
    </contour>
    <contour>
      <point x="496" y="694" type="line"/>
      <point x="496" y="984" type="line"/>
      <point x="619" y="985" type="line" smooth="yes"/>
      <point x="777" y="984"/>
      <point x="839" y="947"/>
      <point x="839" y="847" type="curve" smooth="yes"/>
      <point x="839" y="744"/>
      <point x="776" y="694"/>
      <point x="626" y="694" type="curve" smooth="yes"/>
    </contour>
  </outline>
</glyph>
<glyph name="C" format="1">
  <advance width="1396"/>
  <unicode hex="0043"/>
  <outline>
    <contour>
      <point x="727" y="1152" type="move" name="top"/>
    </contour>
    <contour>
      <point x="703" y="0" type="move" name="bot"/>
    </contour>
    <contour>
      <point x="724" y="-22" type="curve" smooth="yes"/>
      <point x="1021" y="-21"/>
      <point x="1233" y="104"/>
      <point x="1306" y="374" type="curve"/>
      <point x="1095" y="449" type="line"/>
      <point x="1050" y="248"/>
      <point x="902" y="174"/>
      <point x="739" y="174" type="curve" smooth="yes"/>
      <point x="509" y="174"/>
      <point x="370" y="344"/>
      <point x="370" y="578" type="curve" smooth="yes"/>
      <point x="370" y="815"/>
      <point x="514" y="978"/>
      <point x="738" y="978" type="curve" smooth="yes"/>
      <point x="889" y="978"/>
      <point x="1010" y="918"/>
      <point x="1081" y="759" type="curve"/>
      <point x="1274" y="759" type="line"/>
      <point x="1274" y="1154" type="line"/>
      <point x="1086" y="1154" type="line"/>
      <point x="1086" y="1033" type="line"/>
      <point x="1028" y="1093"/>
      <point x="912" y="1174"/>
      <point x="725" y="1174" type="curve" smooth="yes"/>
      <point x="345" y="1174"/>
      <point x="87" y="936"/>
      <point x="87" y="572" type="curve" smooth="yes"/>
      <point x="87" y="230"/>
      <point x="326" y="-21"/>
    </contour>
  </outline>
</glyph>
<glyph name="D" format="1">
  <advance width="1452"/>
  <unicode hex="0044"/>
  <outline>
    <contour>
      <point x="656" y="1151" type="move" name="top"/>
    </contour>
    <contour>
      <point x="359" y="602" type="move" name="mid"/>
    </contour>
    <contour>
      <point x="53" y="1152" type="line"/>
      <point x="53" y="984" type="line"/>
      <point x="215" y="984" type="line"/>
      <point x="215" y="169" type="line"/>
      <point x="53" y="169" type="line"/>
      <point x="53" y="0" type="line"/>
      <point x="721" y="0" type="line" smooth="yes"/>
      <point x="1151" y="0"/>
      <point x="1367" y="220"/>
      <point x="1367" y="588" type="curve" smooth="yes"/>
      <point x="1367" y="894"/>
      <point x="1157" y="1152"/>
      <point x="721" y="1152" type="curve" smooth="yes"/>
    </contour>
    <contour>
      <point x="499" y="169" type="line"/>
      <point x="499" y="984" type="line"/>
      <point x="714" y="984" type="line" smooth="yes"/>
      <point x="962" y="984"/>
      <point x="1069" y="805"/>
      <point x="1069" y="585" type="curve" smooth="yes"/>
      <point x="1069" y="331"/>
      <point x="964" y="169"/>
      <point x="709" y="169" type="curve" smooth="yes"/>
    </contour>
  </outline>
</glyph>
<glyph name="E" format="1">
  <advance width="1224"/>
  <unicode hex="0045"/>
  <outline>
    <contour>
      <point x="644" y="1152" type="move" name="top"/>
    </contour>
    <contour>
      <point x="751" y="0" type="move" name="ogonek"/>
    </contour>
    <contour>
      <point x="623" y="0" type="move" name="bot"/>
    </contour>
    <contour>
      <point x="944" y="385" type="line"/>
      <point x="944" y="169" type="line"/>
      <point x="497" y="169" type="line"/>
      <point x="497" y="516" type="line"/>
      <point x="761" y="516" type="line"/>
      <point x="761" y="406" type="line"/>
      <point x="864" y="406" type="line"/>
      <point x="864" y="806" type="line"/>
      <point x="760" y="806" type="line"/>
      <point x="760" y="688" type="line"/>
      <point x="497" y="688" type="line"/>
      <point x="497" y="982" type="line"/>
      <point x="942" y="984" type="line"/>
      <point x="942" y="788" type="line"/>
      <point x="1148" y="788" type="line"/>
      <point x="1148" y="1152" type="line"/>
      <point x="53" y="1152" type="line"/>
      <point x="53" y="984" type="line"/>
      <point x="214" y="984" type="line"/>
      <point x="214" y="168" type="line"/>
      <point x="53" y="168" type="line"/>
      <point x="53" y="0" type="line"/>
      <point x="1152" y="0" type="line"/>
      <point x="1152" y="385" type="line"/>
    </contour>
  </outline>
</glyph>
<glyph name="F" format="1">
  <advance width="1152"/>
  <unicode hex="0046"/>
  <outline>
    <contour>
      <point x="620" y="1152" type="move" name="top"/>
    </contour>
    <contour>
      <point x="53" y="1152" type="line"/>
      <point x="53" y="984" type="line"/>
      <point x="214" y="984" type="line"/>
      <point x="214" y="168" type="line"/>
      <point x="53" y="168" type="line"/>
      <point x="53" y="0" type="line"/>
      <point x="657" y="0" type="line"/>
      <point x="657" y="168" type="line"/>
      <point x="497" y="168" type="line"/>
      <point x="497" y="516" type="line"/>
      <point x="744" y="516" type="line"/>
      <point x="744" y="407" type="line"/>
      <point x="855" y="407" type="line"/>
      <point x="855" y="781" type="line"/>
      <point x="743" y="781" type="line"/>
      <point x="743" y="671" type="line"/>
      <point x="497" y="671" type="line"/>
      <point x="497" y="984" type="line"/>
      <point x="928" y="984" type="line"/>
      <point x="928" y="792" type="line"/>
      <point x="1118" y="792" type="line"/>
      <point x="1118" y="1152" type="line"/>
    </contour>
  </outline>
</glyph>
<glyph name="G" format="1">
  <advance width="1456"/>
  <unicode hex="0047"/>
  <outline>
    <contour>
      <point x="760" y="1152" type="move" name="top"/>
    </contour>
    <contour>
      <point x="747" y="0" type="move" name="bot"/>
    </contour>
    <contour>
      <point x="761" y="-20" type="curve" smooth="yes"/>
      <point x="1148" y="-20"/>
      <point x="1362" y="166"/>
      <point x="1366" y="600" type="curve"/>
      <point x="869" y="600" type="line"/>
      <point x="869" y="428" type="line"/>
      <point x="1101" y="428" type="line"/>
      <point x="1092" y="270"/>
      <point x="981" y="179"/>
      <point x="769" y="176" type="curve" smooth="yes"/>
      <point x="546" y="176"/>
      <point x="385" y="325"/>
      <point x="385" y="585" type="curve" smooth="yes"/>
      <point x="385" y="833"/>
      <point x="531" y="979"/>
      <point x="769" y="979" type="curve" smooth="yes"/>
      <point x="929" y="979"/>
      <point x="1056" y="905"/>
      <point x="1130" y="750" type="curve"/>
      <point x="1319" y="750" type="line"/>
      <point x="1319" y="1159" type="line"/>
      <point x="1115" y="1159" type="line"/>
      <point x="1115" y="1028" type="line"/>
      <point x="1053" y="1107"/>
      <point x="909" y="1174"/>
      <point x="751" y="1174" type="curve" smooth="yes"/>
      <point x="368" y="1174"/>
      <point x="92" y="942"/>
      <point x="92" y="585" type="curve" smooth="yes"/>
      <point x="92" y="212"/>
      <point x="343" y="-20"/>
    </contour>
  </outline>
</glyph>
<glyph name="H" format="1">
  <advance width="1490"/>
  <unicode hex="0048"/>
  <outline>
    <contour>
      <point x="753" y="1152" type="move" name="top"/>
    </contour>
    <contour>
      <point x="744" y="0" type="move" name="bot"/>
    </contour>
    <contour>
      <point x="1437" y="984" type="line"/>
      <point x="1437" y="1152" type="line"/>
      <point x="832" y="1152" type="line"/>
      <point x="832" y="984" type="line"/>
      <point x="993" y="984" type="line"/>
      <point x="993" y="677" type="line"/>
      <point x="497" y="677" type="line"/>
      <point x="497" y="984" type="line"/>
      <point x="657" y="984" type="line"/>
      <point x="657" y="1152" type="line"/>
      <point x="53" y="1152" type="line"/>
      <point x="53" y="984" type="line"/>
      <point x="214" y="984" type="line"/>
      <point x="214" y="168" type="line"/>
      <point x="53" y="168" type="line"/>
      <point x="53" y="0" type="line"/>
      <point x="657" y="0" type="line"/>
      <point x="657" y="168" type="line"/>
      <point x="497" y="168" type="line"/>
      <point x="497" y="505" type="line"/>
      <point x="993" y="505" type="line"/>
      <point x="993" y="168" type="line"/>
      <point x="832" y="168" type="line"/>
      <point x="832" y="0" type="line"/>
      <point x="1437" y="0" type="line"/>
      <point x="1437" y="168" type="line"/>
      <point x="1276" y="168" type="line"/>
      <point x="1276" y="984" type="line"/>
    </contour>
  </outline>
</glyph>
<glyph name="I" format="1">
  <advance width="737"/>
  <unicode hex="0049"/>
  <outline>
    <contour>
      <point x="368" y="1152" type="move" name="top"/>
    </contour>
    <contour>
      <point x="89" y="0" type="line"/>
      <point x="647" y="0" type="line"/>
      <point x="647" y="151" type="line"/>
      <point x="490" y="151" type="line"/>
      <point x="490" y="1001" type="line"/>
      <point x="647" y="1001" type="line"/>
      <point x="647" y="1152" type="line"/>
      <point x="89" y="1152" type="line"/>
      <point x="89" y="1001" type="line"/>
      <point x="246" y="1001" type="line"/>
      <point x="246" y="151" type="line"/>
      <point x="89" y="151" type="line"/>
    </contour>
  </outline>
</glyph>
<glyph name="J" format="1">
  <advance width="770"/>
  <unicode hex="004A"/>
  <outline>
    <contour>
      <point x="416" y="1152" type="move" name="top"/>
    </contour>
    <contour>
      <point x="41" y="-89" type="line"/>
      <point x="41" y="-305" type="line"/>
      <point x="221" y="-305" type="line" smooth="yes"/>
      <point x="497" y="-305"/>
      <point x="564" y="-136"/>
      <point x="564" y="113" type="curve" smooth="yes"/>
      <point x="564" y="984" type="line"/>
      <point x="736" y="984" type="line"/>
      <point x="736" y="1152" type="line"/>
      <point x="97" y="1152" type="line"/>
      <point x="97" y="984" type="line"/>
      <point x="282" y="984" type="line"/>
      <point x="282" y="90" type="line" smooth="yes"/>
      <point x="282" y="-2"/>
      <point x="261" y="-89"/>
      <point x="153" y="-89" type="curve" smooth="yes"/>
    </contour>
  </outline>
</glyph>
<glyph name="K" format="1">
  <advance width="1417"/>
  <unicode hex="004B"/>
  <outline>
    <contour>
      <point x="720" y="1152" type="move" name="top"/>
    </contour>
    <contour>
      <point x="714" y="0" type="move" name="bot"/>
    </contour>
    <contour>
      <point x="1237" y="169" type="line"/>
      <point x="791" y="608" type="line"/>
      <point x="1209" y="984" type="line"/>
      <point x="1368" y="984" type="line"/>
      <point x="1368" y="1152" type="line"/>
      <point x="787" y="1152" type="line"/>
      <point x="787" y="984" type="line"/>
      <point x="926" y="984" type="line"/>
      <point x="497" y="610" type="line"/>
      <point x="497" y="984" type="line"/>
      <point x="657" y="984" type="line"/>
      <point x="657" y="1152" type="line"/>
      <point x="53" y="1152" type="line"/>
      <point x="53" y="984" type="line"/>
      <point x="214" y="984" type="line"/>
      <point x="214" y="168" type="line"/>
      <point x="53" y="168" type="line"/>
      <point x="53" y="0" type="line"/>
      <point x="657" y="0" type="line"/>
      <point x="657" y="168" type="line"/>
      <point x="497" y="168" type="line"/>
      <point x="497" y="555" type="line"/>
      <point x="883" y="169" type="line"/>
      <point x="769" y="169" type="line"/>
      <point x="769" y="0" type="line"/>
      <point x="1375" y="0" type="line"/>
      <point x="1375" y="169" type="line"/>
    </contour>
  </outline>
</glyph>
<glyph name="L" format="1">
  <advance width="1123"/>
  <unicode hex="004C"/>
  <outline>
    <contour>
      <point x="734" y="822" type="move" name="caron.alt"/>
    </contour>
    <contour>
      <point x="704" y="1152" type="move" name="top"/>
    </contour>
    <contour>
      <point x="457" y="152" type="line"/>
      <point x="457" y="1001" type="line"/>
      <point x="614" y="1001" type="line"/>
      <point x="614" y="1152" type="line"/>
      <point x="56" y="1152" type="line"/>
      <point x="56" y="1001" type="line"/>
      <point x="213" y="1001" type="line"/>
      <point x="213" y="151" type="line"/>
      <point x="56" y="151" type="line"/>
      <point x="56" y="0" type="line"/>
      <point x="1068" y="0" type="line"/>
      <point x="1068" y="517" type="line"/>
      <point x="868" y="517" type="line"/>
      <point x="868" y="152" type="line"/>
    </contour>
  </outline>
</glyph>
<glyph name="M" format="1">
  <advance width="1829"/>
  <unicode hex="004D"/>
  <outline>
    <contour>
      <point x="913" y="1152" type="move" name="top"/>
    </contour>
    <contour>
      <point x="53" y="169" type="line"/>
      <point x="53" y="0" type="line"/>
      <point x="560" y="0" type="line"/>
      <point x="560" y="169" type="line"/>
      <point x="410" y="169" type="line"/>
      <point x="410" y="966" type="line"/>
      <point x="817" y="34" type="line"/>
      <point x="929" y="34" type="line"/>
      <point x="1338" y="967" type="line"/>
      <point x="1338" y="169" type="line"/>
      <point x="1184" y="169" type="line"/>
      <point x="1184" y="0" type="line"/>
      <point x="1778" y="0" type="line"/>
      <point x="1778" y="169" type="line"/>
      <point x="1610" y="169" type="line"/>
      <point x="1610" y="984" type="line"/>
      <point x="1776" y="984" type="line"/>
      <point x="1776" y="1152" type="line"/>
      <point x="1221" y="1152" type="line"/>
      <point x="916" y="452" type="line"/>
      <point x="606" y="1152" type="line"/>
      <point x="53" y="1152" type="line"/>
      <point x="53" y="984" type="line"/>
      <point x="217" y="984" type="line"/>
      <point x="217" y="169" type="line"/>
    </contour>
  </outline>
</glyph>
<glyph name="N" format="1">
  <advance width="1565"/>
  <unicode hex="004E"/>
  <outline>
    <contour>
      <point x="786" y="1152" type="move" name="top"/>
    </contour>
    <contour>
      <point x="807" y="0" type="move" name="bot"/>
    </contour>
    <contour>
      <point x="53" y="169" type="line"/>
      <point x="53" y="0" type="line"/>
      <point x="597" y="0" type="line"/>
      <point x="597" y="169" type="line"/>
      <point x="426" y="169" type="line"/>
      <point x="426" y="884" type="line"/>
      <point x="1096" y="0" type="line"/>
      <point x="1342" y="0" type="line"/>
      <point x="1342" y="984" type="line"/>
      <point x="1526" y="984" type="line"/>
      <point x="1526" y="1152" type="line"/>
      <point x="976" y="1152" type="line"/>
      <point x="976" y="984" type="line"/>
      <point x="1145" y="984" type="line"/>
      <point x="1145" y="376" type="line"/>
      <point x="547" y="1152" type="line"/>
      <point x="53" y="1152" type="line"/>
      <point x="53" y="984" type="line"/>
      <point x="231" y="984" type="line"/>
      <point x="231" y="169" type="line"/>
    </contour>
  </outline>
</glyph>
<glyph name="O" format="1">
  <advance width="1491"/>
  <unicode hex="004F"/>
  <outline>
    <contour>
      <point x="740" y="1151" type="move" name="top"/>
    </contour>
    <contour>
      <point x="803" y="0" type="move" name="ogonek"/>
    </contour>
    <contour>
      <point x="745" y="-22" type="curve" smooth="yes"/>
      <point x="1129" y="-24"/>
      <point x="1404" y="223"/>
      <point x="1404" y="572" type="curve" smooth="yes"/>
      <point x="1404" y="923"/>
      <point x="1129" y="1174"/>
      <point x="744" y="1174" type="curve" smooth="yes"/>
      <point x="361" y="1174"/>
      <point x="87" y="923"/>
      <point x="87" y="573" type="curve" smooth="yes"/>
      <point x="87" y="223"/>
      <point x="361" y="-24"/>
    </contour>
    <contour>
      <point x="744" y="174" type="curve" smooth="yes"/>
      <point x="532" y="174"/>
      <point x="379" y="343"/>
      <point x="379" y="576" type="curve" smooth="yes"/>
      <point x="379" y="813"/>
      <point x="532" y="980"/>
      <point x="745" y="979" type="curve" smooth="yes"/>
      <point x="957" y="980"/>
      <point x="1110" y="813"/>
      <point x="1110" y="576" type="curve" smooth="yes"/>
      <point x="1110" y="343"/>
      <point x="957" y="174"/>
    </contour>
  </outline>
</glyph>
<glyph name="P" format="1">
  <advance width="1201"/>
  <unicode hex="0050"/>
  <outline>
    <contour>
      <point x="579" y="1152" type="move" name="top"/>
    </contour>
    <contour>
      <point x="570" y="625" type="line"/>
      <point x="570" y="461" type="line"/>
      <point x="632" y="461" type="line" smooth="yes"/>
      <point x="1020" y="461"/>
      <point x="1163" y="576"/>
      <point x="1163" y="812" type="curve" smooth="yes"/>
      <point x="1163" y="1052"/>
      <point x="994" y="1152"/>
      <point x="673" y="1152" type="curve" smooth="yes"/>
      <point x="53" y="1152" type="line"/>
      <point x="53" y="984" type="line"/>
      <point x="214" y="984" type="line"/>
      <point x="214" y="168" type="line"/>
      <point x="53" y="168" type="line"/>
      <point x="53" y="0" type="line"/>
      <point x="657" y="0" type="line"/>
      <point x="657" y="168" type="line"/>
      <point x="497" y="168" type="line"/>
      <point x="497" y="984" type="line"/>
      <point x="690" y="984" type="line" smooth="yes"/>
      <point x="803" y="984"/>
      <point x="876" y="928"/>
      <point x="876" y="812" type="curve" smooth="yes"/>
      <point x="876" y="689"/>
      <point x="804" y="625"/>
      <point x="635" y="625" type="curve" smooth="yes"/>
    </contour>
  </outline>
</glyph>
<glyph name="Q" format="1">
  <advance width="1491"/>
  <unicode hex="0051"/>
  <outline>
    <contour>
      <point x="740" y="1151" type="move" name="top"/>
    </contour>
    <contour>
      <point x="803" y="0" type="move" name="ogonek"/>
    </contour>
    <contour>
      <point x="1288" y="-314" type="curve"/>
      <point x="1287" y="-131" type="line"/>
      <point x="1153" y="-151"/>
      <point x="979" y="-126"/>
      <point x="890" y="-10" type="curve"/>
      <point x="1197" y="43"/>
      <point x="1404" y="269"/>
      <point x="1404" y="572" type="curve" smooth="yes"/>
      <point x="1404" y="923"/>
      <point x="1129" y="1174"/>
      <point x="744" y="1174" type="curve" smooth="yes"/>
      <point x="361" y="1174"/>
      <point x="87" y="923"/>
      <point x="87" y="573" type="curve" smooth="yes"/>
      <point x="87" y="259"/>
      <point x="309" y="26"/>
      <point x="631" y="-14" type="curve"/>
      <point x="783" y="-290"/>
      <point x="1104" y="-342"/>
    </contour>
    <contour>
      <point x="744" y="174" type="curve" smooth="yes"/>
      <point x="532" y="174"/>
      <point x="379" y="343"/>
      <point x="379" y="576" type="curve" smooth="yes"/>
      <point x="379" y="813"/>
      <point x="532" y="980"/>
      <point x="745" y="979" type="curve" smooth="yes"/>
      <point x="957" y="980"/>
      <point x="1110" y="813"/>
      <point x="1110" y="576" type="curve" smooth="yes"/>
      <point x="1110" y="343"/>
      <point x="957" y="174"/>
    </contour>
  </outline>
</glyph>
<glyph name="R" format="1">
  <advance width="1359"/>
  <unicode hex="0052"/>
  <outline>
    <contour>
      <point x="584" y="1152" type="move" name="top"/>
    </contour>
    <contour>
      <point x="687" y="0" type="move" name="bot"/>
    </contour>
    <contour>
      <point x="1149" y="169" type="line"/>
      <point x="933" y="537" type="line"/>
      <point x="1082" y="575"/>
      <point x="1193" y="655"/>
      <point x="1193" y="846" type="curve" smooth="yes"/>
      <point x="1193" y="1088"/>
      <point x="1004" y="1152"/>
      <point x="748" y="1152" type="curve" smooth="yes"/>
      <point x="53" y="1152" type="line"/>
      <point x="53" y="984" type="line"/>
      <point x="214" y="984" type="line"/>
      <point x="214" y="168" type="line"/>
      <point x="53" y="168" type="line"/>
      <point x="53" y="0" type="line"/>
      <point x="657" y="0" type="line"/>
      <point x="657" y="168" type="line"/>
      <point x="497" y="168" type="line"/>
      <point x="497" y="984" type="line"/>
      <point x="728" y="984" type="line" smooth="yes"/>
      <point x="851" y="984"/>
      <point x="911" y="924"/>
      <point x="911" y="837" type="curve" smooth="yes"/>
      <point x="911" y="749"/>
      <point x="866" y="674"/>
      <point x="712" y="674" type="curve" smooth="yes"/>
      <point x="565" y="674" type="line"/>
      <point x="565" y="508" type="line"/>
      <point x="665" y="508" type="line"/>
      <point x="945" y="0" type="line"/>
      <point x="1317" y="0" type="line"/>
      <point x="1317" y="169" type="line"/>
    </contour>
  </outline>
</glyph>
<glyph name="S" format="1">
  <advance width="1094"/>
  <unicode hex="0053"/>
  <outline>
    <contour>
      <point x="560" y="1151" type="move" name="top"/>
    </contour>
    <contour>
      <point x="614" y="0" type="move" name="bot"/>
    </contour>
    <contour>
      <point x="616" y="-20" type="curve" smooth="yes"/>
      <point x="870" y="-20"/>
      <point x="1026" y="138"/>
      <point x="1020" y="344" type="curve" smooth="yes"/>
      <point x="1015" y="567"/>
      <point x="890" y="639"/>
      <point x="615" y="707" type="curve" smooth="yes"/>
      <point x="440" y="748"/>
      <point x="385" y="786"/>
      <point x="385" y="873" type="curve" smooth="yes"/>
      <point x="384" y="948"/>
      <point x="439" y="998"/>
      <point x="544" y="998" type="curve" smooth="yes"/>
      <point x="644" y="998"/>
      <point x="721" y="956"/>
      <point x="763" y="906" type="curve"/>
      <point x="763" y="814" type="line"/>
      <point x="957" y="814" type="line"/>
      <point x="957" y="1155" type="line"/>
      <point x="763" y="1155" type="line"/>
      <point x="763" y="1079" type="line"/>
      <point x="711" y="1133"/>
      <point x="629" y="1174"/>
      <point x="511" y="1174" type="curve" smooth="yes"/>
      <point x="250" y="1174"/>
      <point x="114" y="1037"/>
      <point x="114" y="854" type="curve" smooth="yes"/>
      <point x="115" y="633"/>
      <point x="251" y="552"/>
      <point x="531" y="487" type="curve" smooth="yes"/>
      <point x="693" y="453"/>
      <point x="755" y="413"/>
      <point x="755" y="306" type="curve" smooth="yes"/>
      <point x="755" y="214"/>
      <point x="686" y="159"/>
      <point x="582" y="159" type="curve" smooth="yes"/>
      <point x="471" y="159"/>
      <point x="366" y="220"/>
      <point x="326" y="272" type="curve"/>
      <point x="326" y="409" type="line"/>
      <point x="123" y="409" type="line"/>
      <point x="123" y="-1" type="line"/>
      <point x="326" y="-1" type="line"/>
      <point x="326" y="86" type="line"/>
      <point x="397" y="21"/>
      <point x="506" y="-20"/>
    </contour>
  </outline>
</glyph>
<glyph name="T" format="1">
  <advance width="1231"/>
  <unicode hex="0054"/>
  <outline>
    <contour>
      <point x="619" y="1152" type="move" name="top"/>
    </contour>
    <contour>
      <point x="632" y="0" type="move" name="bot"/>
    </contour>
    <contour>
      <point x="618" y="592" type="move" name="mid"/>
    </contour>
    <contour>
      <point x="34" y="1152" type="line"/>
      <point x="34" y="703" type="line"/>
      <point x="229" y="703" type="line"/>
      <point x="229" y="984" type="line"/>
      <point x="481" y="984" type="line"/>
      <point x="481" y="168" type="line"/>
      <point x="321" y="168" type="line"/>
      <point x="321" y="0" type="line"/>
      <point x="925" y="0" type="line"/>
      <point x="925" y="168" type="line"/>
      <point x="764" y="168" type="line"/>
      <point x="764" y="984" type="line"/>
      <point x="1005" y="984" type="line"/>
      <point x="1005" y="703" type="line"/>
      <point x="1197" y="703" type="line"/>
      <point x="1197" y="1152" type="line"/>
    </contour>
  </outline>
</glyph>
<glyph name="U" format="1">
  <advance width="1430"/>
  <unicode hex="0055"/>
  <outline>
    <contour>
      <point x="756" y="1152" type="move" name="top"/>
    </contour>
    <contour>
      <point x="789" y="0" type="move" name="ogonek"/>
    </contour>
    <contour>
      <point x="728" y="-20" type="curve" smooth="yes"/>
      <point x="1040" y="-20"/>
      <point x="1232" y="127"/>
      <point x="1232" y="446" type="curve" smooth="yes"/>
      <point x="1232" y="984" type="line"/>
      <point x="1395" y="984" type="line"/>
      <point x="1395" y="1152" type="line"/>
      <point x="862" y="1152" type="line"/>
      <point x="862" y="984" type="line"/>
      <point x="1026" y="984" type="line"/>
      <point x="1026" y="440" type="line" smooth="yes"/>
      <point x="1026" y="264"/>
      <point x="933" y="169"/>
      <point x="750" y="169" type="curve" smooth="yes"/>
      <point x="577" y="169"/>
      <point x="487" y="265"/>
      <point x="487" y="437" type="curve" smooth="yes"/>
      <point x="487" y="984" type="line"/>
      <point x="660" y="984" type="line"/>
      <point x="660" y="1152" type="line"/>
      <point x="44" y="1152" type="line"/>
      <point x="44" y="984" type="line"/>
      <point x="204" y="984" type="line"/>
      <point x="204" y="458" type="line" smooth="yes"/>
      <point x="204" y="168"/>
      <point x="350" y="-20"/>
    </contour>
  </outline>
</glyph>
<glyph name="V" format="1">
  <advance width="1440"/>
  <unicode hex="0056"/>
  <outline>
    <contour>
      <point x="188" y="984" type="line"/>
      <point x="618" y="0" type="line"/>
      <point x="836" y="0" type="line"/>
      <point x="1244" y="984" type="line"/>
      <point x="1406" y="984" type="line"/>
      <point x="1406" y="1152" type="line"/>
      <point x="880" y="1152" type="line"/>
      <point x="880" y="984" type="line"/>
      <point x="1031" y="984" type="line"/>
      <point x="759" y="299" type="line"/>
      <point x="487" y="984" type="line"/>
      <point x="636" y="984" type="line"/>
      <point x="636" y="1152" type="line"/>
      <point x="39" y="1152" type="line"/>
      <point x="39" y="984" type="line"/>
    </contour>
  </outline>
</glyph>
<glyph name="W" format="1">
  <advance width="1924"/>
  <unicode hex="0057"/>
  <outline>
    <contour>
      <point x="1008" y="1152" type="move" name="top"/>
    </contour>
    <contour>
      <point x="192" y="984" type="line"/>
      <point x="510" y="0" type="line"/>
      <point x="692" y="0" type="line"/>
      <point x="966" y="726" type="line"/>
      <point x="1242" y="0" type="line"/>
      <point x="1431" y="0" type="line"/>
      <point x="1733" y="984" type="line"/>
      <point x="1877" y="984" type="line"/>
      <point x="1877" y="1152" type="line"/>
      <point x="1393" y="1152" type="line"/>
      <point x="1393" y="984" type="line"/>
      <point x="1539" y="984" type="line"/>
      <point x="1358" y="357" type="line"/>
      <point x="1069" y="1139" type="line"/>
      <point x="939" y="1139" type="line"/>
      <point x="646" y="357" type="line"/>
      <point x="466" y="984" type="line"/>
      <point x="603" y="984" type="line"/>
      <point x="603" y="1152" type="line"/>
      <point x="46" y="1152" type="line"/>
      <point x="46" y="984" type="line"/>
    </contour>
  </outline>
</glyph>
<glyph name="X" format="1">
  <advance width="1398"/>
  <unicode hex="0058"/>
  <outline>
    <contour>
      <point x="37" y="164" type="line"/>
      <point x="37" y="0" type="line"/>
      <point x="579" y="0" type="line"/>
      <point x="579" y="164" type="line"/>
      <point x="438" y="164" type="line"/>
      <point x="659" y="447" type="line"/>
      <point x="875" y="164" type="line"/>
      <point x="744" y="164" type="line"/>
      <point x="744" y="0" type="line"/>
      <point x="1361" y="0" type="line"/>
      <point x="1361" y="164" type="line"/>
      <point x="1200" y="164" type="line"/>
      <point x="842" y="601" type="line"/>
      <point x="1162" y="989" type="line"/>
      <point x="1326" y="989" type="line"/>
      <point x="1326" y="1152" type="line"/>
      <point x="799" y="1152" type="line"/>
      <point x="799" y="989" type="line"/>
      <point x="928" y="989" type="line"/>
      <point x="729" y="731" type="line"/>
      <point x="527" y="989" type="line"/>
      <point x="647" y="989" type="line"/>
      <point x="647" y="1152" type="line"/>
      <point x="52" y="1152" type="line"/>
      <point x="52" y="989" type="line"/>
      <point x="201" y="989" type="line"/>
      <point x="542" y="577" type="line"/>
      <point x="202" y="164" type="line"/>
    </contour>
  </outline>
</glyph>
<glyph name="Y" format="1">
  <advance width="1363"/>
  <unicode hex="0059"/>
  <outline>
    <contour>
      <point x="686" y="1151" type="move" name="top"/>
    </contour>
    <contour>
      <point x="361" y="169" type="line"/>
      <point x="361" y="0" type="line"/>
      <point x="999" y="0" type="line"/>
      <point x="999" y="169" type="line"/>
      <point x="820" y="169" type="line"/>
      <point x="820" y="488" type="line"/>
      <point x="1174" y="984" type="line"/>
      <point x="1336" y="984" type="line"/>
      <point x="1336" y="1152" type="line"/>
      <point x="804" y="1152" type="line"/>
      <point x="804" y="984" type="line"/>
      <point x="937" y="984" type="line"/>
      <point x="710" y="644" type="line"/>
      <point x="470" y="984" type="line"/>
      <point x="605" y="984" type="line"/>
      <point x="605" y="1152" type="line"/>
      <point x="11" y="1152" type="line"/>
      <point x="11" y="984" type="line"/>
      <point x="167" y="984" type="line"/>
      <point x="538" y="485" type="line"/>
      <point x="538" y="169" type="line"/>
    </contour>
  </outline>
</glyph>
<glyph name="Z" format="1">
  <advance width="1209"/>
  <unicode hex="005A"/>
  <outline>
    <contour>
      <point x="631" y="1152" type="move" name="top"/>
    </contour>
    <contour>
      <point x="96" y="0" type="line"/>
      <point x="1126" y="0" type="line"/>
      <point x="1126" y="491" type="line"/>
      <point x="936" y="491" type="line"/>
      <point x="936" y="169" type="line"/>
      <point x="440" y="169" type="line"/>
      <point x="1110" y="988" type="line"/>
      <point x="1110" y="1152" type="line"/>
      <point x="110" y="1152" type="line"/>
      <point x="110" y="691" type="line"/>
      <point x="303" y="691" type="line"/>
      <point x="303" y="984" type="line"/>
      <point x="748" y="984" type="line"/>
      <point x="96" y="181" type="line"/>
    </contour>
  </outline>
</glyph>
<glyph name="backslash" format="1">
  <advance width="751"/>
  <unicode hex="005C"/>
  <outline>
    <contour>
      <point x="605" y="-20" type="line"/>
      <point x="824" y="-20" type="line"/>
      <point x="114" y="1283" type="line"/>
      <point x="-104" y="1283" type="line"/>
    </contour>
  </outline>
</glyph>
<glyph name="bracketright" format="1">
  <advance width="792"/>
  <unicode hex="005D"/>
  <outline>
    <contour>
      <point x="135" y="-214" type="line"/>
      <point x="560" y="-214" type="line"/>
      <point x="560" y="1263" type="line"/>
      <point x="135" y="1263" type="line"/>
      <point x="135" y="1109" type="line"/>
      <point x="324" y="1109" type="line"/>
      <point x="324" y="-58" type="line"/>
      <point x="135" y="-58" type="line"/>
    </contour>
  </outline>
</glyph>
<glyph name="asciicircum" format="1">
  <advance width="1053"/>
  <unicode hex="005E"/>
  <outline>
    <contour>
      <point x="81" y="471" type="line"/>
      <point x="295" y="471" type="line"/>
      <point x="525" y="1012" type="line"/>
      <point x="756" y="471" type="line"/>
      <point x="970" y="471" type="line"/>
      <point x="624" y="1201" type="line"/>
      <point x="426" y="1201" type="line"/>
    </contour>
  </outline>
</glyph>
<glyph name="grave" format="1">
  <advance width="456"/>
  <unicode hex="0060"/>
  <outline>
    <contour>
      <point x="288" y="804" type="move" name="_top"/>
    </contour>
    <contour>
      <point x="218" y="962" type="line"/>
      <point x="357" y="962" type="line"/>
      <point x="242" y="1290" type="line"/>
      <point x="3" y="1290" type="line"/>
    </contour>
  </outline>
</glyph>
<glyph name="a" format="1">
  <advance width="964"/>
  <unicode hex="0061"/>
  <outline>
    <contour>
      <point x="442" y="804" type="move" name="top"/>
    </contour>
    <contour>
      <point x="741" y="0" type="move" name="ogonek"/>
    </contour>
    <contour>
      <point x="342" y="-22" type="curve" smooth="yes"/>
      <point x="446" y="-22"/>
      <point x="527" y="7"/>
      <point x="599" y="62" type="curve"/>
      <point x="615" y="0" type="line"/>
      <point x="943" y="0" type="line"/>
      <point x="943" y="169" type="line"/>
      <point x="822" y="169" type="line"/>
      <point x="822" y="522" type="line" smooth="yes"/>
      <point x="822" y="729"/>
      <point x="652" y="825"/>
      <point x="443" y="825" type="curve" smooth="yes"/>
      <point x="322" y="825"/>
      <point x="179" y="793"/>
      <point x="75" y="726" type="curve"/>
      <point x="142" y="574" type="line"/>
      <point x="247" y="628"/>
      <point x="355" y="650"/>
      <point x="422" y="650" type="curve" smooth="yes"/>
      <point x="519" y="650"/>
      <point x="574" y="603"/>
      <point x="574" y="508" type="curve" smooth="yes"/>
      <point x="574" y="458" type="line"/>
      <point x="521" y="469"/>
      <point x="465" y="477"/>
      <point x="408" y="477" type="curve" smooth="yes"/>
      <point x="230" y="477"/>
      <point x="56" y="410"/>
      <point x="56" y="226" type="curve" smooth="yes"/>
      <point x="56" y="77"/>
      <point x="177" y="-22"/>
    </contour>
    <contour>
      <point x="399" y="125" type="curve" smooth="yes"/>
      <point x="332" y="125"/>
      <point x="287" y="167"/>
      <point x="287" y="230" type="curve" smooth="yes"/>
      <point x="287" y="324"/>
      <point x="361" y="350"/>
      <point x="435" y="350" type="curve" smooth="yes"/>
      <point x="497" y="350"/>
      <point x="543" y="341"/>
      <point x="574" y="331" type="curve"/>
      <point x="574" y="190" type="line"/>
      <point x="522" y="148"/>
      <point x="458" y="125"/>
    </contour>
  </outline>
</glyph>
<glyph name="b" format="1">
  <advance width="1132"/>
  <unicode hex="0062"/>
  <outline>
    <contour>
      <point x="722" y="804" type="move" name="top"/>
    </contour>
    <contour>
      <point x="446" y="747" type="curve"/>
      <point x="446" y="1174" type="line"/>
      <point x="45" y="1174" type="line"/>
      <point x="45" y="1006" type="line"/>
      <point x="197" y="1006" type="line"/>
      <point x="197" y="168" type="line"/>
      <point x="43" y="168" type="line"/>
      <point x="43" y="0" type="line"/>
      <point x="446" y="0" type="line"/>
      <point x="446" y="50" type="line"/>
      <point x="515" y="2"/>
      <point x="595" y="-21"/>
      <point x="675" y="-21" type="curve" smooth="yes"/>
      <point x="885" y="-21"/>
      <point x="1086" y="135"/>
      <point x="1086" y="417" type="curve" smooth="yes"/>
      <point x="1086" y="672"/>
      <point x="920" y="825"/>
      <point x="699" y="825" type="curve" smooth="yes"/>
      <point x="614" y="825"/>
      <point x="526" y="799"/>
    </contour>
    <contour>
      <point x="446" y="185" type="curve"/>
      <point x="446" y="599" type="line"/>
      <point x="498" y="634"/>
      <point x="552" y="650"/>
      <point x="603" y="650" type="curve" smooth="yes"/>
      <point x="746" y="650"/>
      <point x="825" y="544"/>
      <point x="825" y="401" type="curve" smooth="yes"/>
      <point x="825" y="231"/>
      <point x="719" y="142"/>
      <point x="589" y="142" type="curve" smooth="yes"/>
      <point x="542" y="142"/>
      <point x="492" y="156"/>
    </contour>
  </outline>
</glyph>
<glyph name="c" format="1">
  <advance width="971"/>
  <unicode hex="0063"/>
  <outline>
    <contour>
      <point x="534" y="804" type="move" name="top"/>
    </contour>
    <contour>
      <point x="529" y="0" type="move" name="bot"/>
    </contour>
    <contour>
      <point x="513" y="-20" type="curve" smooth="yes"/>
      <point x="676" y="-20"/>
      <point x="814" y="49"/>
      <point x="903" y="148" type="curve"/>
      <point x="814" y="284" type="line"/>
      <point x="743" y="214"/>
      <point x="657" y="155"/>
      <point x="523" y="159" type="curve" smooth="yes"/>
      <point x="390" y="163"/>
      <point x="304" y="266"/>
      <point x="304" y="414" type="curve" smooth="yes"/>
      <point x="304" y="555"/>
      <point x="393" y="645"/>
      <point x="513" y="649" type="curve" smooth="yes"/>
      <point x="622" y="652"/>
      <point x="703" y="596"/>
      <point x="732" y="470" type="curve"/>
      <point x="899" y="470" type="line"/>
      <point x="899" y="807" type="line"/>
      <point x="715" y="807" type="line"/>
      <point x="712" y="730" type="line"/>
      <point x="681" y="785"/>
      <point x="581" y="826"/>
      <point x="490" y="826" type="curve" smooth="yes"/>
      <point x="226" y="826"/>
      <point x="48" y="653"/>
      <point x="48" y="410" type="curve" smooth="yes"/>
      <point x="48" y="150"/>
      <point x="232" y="-20"/>
    </contour>
  </outline>
</glyph>
<glyph name="d" format="1">
  <advance width="1100"/>
  <unicode hex="0064"/>
  <outline>
    <contour>
      <point x="314" y="804" type="move" name="top"/>
    </contour>
    <contour>
      <point x="1024" y="804" type="move" name="caron.alt"/>
    </contour>
    <contour>
      <point x="815" y="914" type="move" name="mid"/>
    </contour>
    <contour>
      <point x="942" y="168" type="line"/>
      <point x="942" y="1174" type="line"/>
      <point x="545" y="1174" type="line"/>
      <point x="545" y="1006" type="line"/>
      <point x="693" y="1006" type="line"/>
      <point x="693" y="751" type="line"/>
      <point x="618" y="798"/>
      <point x="534" y="825"/>
      <point x="451" y="825" type="curve" smooth="yes"/>
      <point x="229" y="825"/>
      <point x="51" y="671"/>
      <point x="51" y="395" type="curve" smooth="yes"/>
      <point x="51" y="133"/>
      <point x="241" y="-22"/>
      <point x="475" y="-22" type="curve" smooth="yes"/>
      <point x="552" y="-22"/>
      <point x="626" y="-1"/>
      <point x="693" y="40" type="curve"/>
      <point x="693" y="0" type="line"/>
      <point x="1052" y="0" type="line"/>
      <point x="1052" y="168" type="line"/>
    </contour>
    <contour>
      <point x="312" y="395" type="curve" smooth="yes"/>
      <point x="312" y="570"/>
      <point x="404" y="651"/>
      <point x="533" y="651" type="curve" smooth="yes"/>
      <point x="583" y="651"/>
      <point x="638" y="637"/>
      <point x="693" y="609" type="curve"/>
      <point x="693" y="192" type="line"/>
      <point x="638" y="166"/>
      <point x="582" y="153"/>
      <point x="532" y="153" type="curve" smooth="yes"/>
      <point x="408" y="153"/>
      <point x="312" y="237"/>
    </contour>
  </outline>
</glyph>
<glyph name="e" format="1">
  <advance width="940"/>
  <unicode hex="0065"/>
  <outline>
    <contour>
      <point x="481" y="804" type="move" name="top"/>
    </contour>
    <contour>
      <point x="586" y="0" type="move" name="ogonek"/>
    </contour>
    <contour>
      <point x="490" y="0" type="move" name="bot"/>
    </contour>
    <contour>
      <point x="511" y="-20" type="curve" smooth="yes"/>
      <point x="664" y="-20"/>
      <point x="805" y="40"/>
      <point x="881" y="115" type="curve"/>
      <point x="804" y="251" type="line"/>
      <point x="727" y="195"/>
      <point x="638" y="156"/>
      <point x="534" y="156" type="curve" smooth="yes"/>
      <point x="409" y="156"/>
      <point x="312" y="232"/>
      <point x="303" y="361" type="curve"/>
      <point x="888" y="361" type="line"/>
      <point x="888" y="641"/>
      <point x="729" y="826"/>
      <point x="488" y="826" type="curve" smooth="yes"/>
      <point x="220" y="826"/>
      <point x="44" y="656"/>
      <point x="44" y="398" type="curve" smooth="yes"/>
      <point x="44" y="146"/>
      <point x="229" y="-20"/>
    </contour>
    <contour>
      <point x="306" y="491" type="line"/>
      <point x="323" y="598"/>
      <point x="398" y="669"/>
      <point x="493" y="669" type="curve" smooth="yes"/>
      <point x="588" y="669"/>
      <point x="655" y="598"/>
      <point x="660" y="491" type="curve"/>
    </contour>
  </outline>
</glyph>
<glyph name="f" format="1">
  <advance width="796"/>
  <unicode hex="0066"/>
  <outline>
    <contour>
      <point x="407" y="1161" type="move" name="top"/>
    </contour>
    <contour>
      <point x="69" y="169" type="line"/>
      <point x="69" y="0" type="line"/>
      <point x="714" y="0" type="line"/>
      <point x="714" y="169" type="line"/>
      <point x="491" y="169" type="line"/>
      <point x="491" y="636" type="line"/>
      <point x="704" y="636" type="line"/>
      <point x="704" y="804" type="line"/>
      <point x="491" y="804" type="line"/>
      <point x="491" y="927" type="line" smooth="yes"/>
      <point x="491" y="1047"/>
      <point x="530" y="1078"/>
      <point x="581" y="1078" type="curve" smooth="yes"/>
      <point x="648" y="1078"/>
      <point x="659" y="1034"/>
      <point x="671" y="961" type="curve"/>
      <point x="856" y="1015" type="line"/>
      <point x="841" y="1175"/>
      <point x="738" y="1238"/>
      <point x="555" y="1238" type="curve" smooth="yes"/>
      <point x="305" y="1238"/>
      <point x="242" y="1075"/>
      <point x="242" y="901" type="curve" smooth="yes"/>
      <point x="242" y="804" type="line"/>
      <point x="73" y="804" type="line"/>
      <point x="73" y="636" type="line"/>
      <point x="242" y="636" type="line"/>
      <point x="242" y="169" type="line"/>
    </contour>
  </outline>
</glyph>
<glyph name="g" format="1">
  <advance width="1099"/>
  <unicode hex="0067"/>
  <outline>
    <contour>
      <point x="535" y="804" type="move" name="top"/>
    </contour>
    <contour>
      <point x="482" y="-394" type="curve" smooth="yes"/>
      <point x="734" y="-394"/>
      <point x="943" y="-297"/>
      <point x="943" y="18" type="curve" smooth="yes"/>
      <point x="943" y="638" type="line"/>
      <point x="1068" y="638" type="line"/>
      <point x="1068" y="804" type="line"/>
      <point x="725" y="804" type="line"/>
      <point x="711" y="743" type="line"/>
      <point x="633" y="795"/>
      <point x="545" y="824"/>
      <point x="457" y="824" type="curve" smooth="yes"/>
      <point x="235" y="824"/>
      <point x="57" y="673"/>
      <point x="57" y="402" type="curve" smooth="yes"/>
      <point x="57" y="145"/>
      <point x="247" y="-7"/>
      <point x="481" y="-7" type="curve" smooth="yes"/>
      <point x="554" y="-7"/>
      <point x="626" y="12"/>
      <point x="690" y="50" type="curve"/>
      <point x="690" y="48"/>
      <point x="690" y="-11"/>
      <point x="690" y="-13" type="curve" smooth="yes"/>
      <point x="687" y="-158"/>
      <point x="608" y="-211"/>
      <point x="477" y="-211" type="curve" smooth="yes"/>
      <point x="392" y="-211"/>
      <point x="305" y="-194"/>
      <point x="207" y="-164" type="curve"/>
      <point x="163" y="-340" type="line"/>
      <point x="265" y="-373"/>
      <point x="369" y="-394"/>
    </contour>
    <contour>
      <point x="538" y="164" type="curve" smooth="yes"/>
      <point x="415" y="164"/>
      <point x="318" y="247"/>
      <point x="318" y="402" type="curve" smooth="yes"/>
      <point x="318" y="573"/>
      <point x="410" y="653"/>
      <point x="539" y="653" type="curve" smooth="yes"/>
      <point x="586" y="653"/>
      <point x="638" y="638"/>
      <point x="689" y="611" type="curve"/>
      <point x="690" y="204" type="line"/>
      <point x="640" y="178"/>
      <point x="587" y="164"/>
    </contour>
  </outline>
</glyph>
<glyph name="h" format="1">
  <advance width="1174"/>
  <unicode hex="0068"/>
  <outline>
    <contour>
      <point x="643" y="1112" type="move" name="top"/>
    </contour>
    <contour>
      <point x="307" y="898" type="move" name="mid"/>
    </contour>
    <contour>
      <point x="1025" y="168" type="line"/>
      <point x="1025" y="521" type="line" smooth="yes"/>
      <point x="1027" y="726"/>
      <point x="899" y="826"/>
      <point x="748" y="826" type="curve" smooth="yes"/>
      <point x="636" y="826"/>
      <point x="535" y="778"/>
      <point x="439" y="699" type="curve"/>
      <point x="439" y="1174" type="line"/>
      <point x="49" y="1174" type="line"/>
      <point x="49" y="1006" type="line"/>
      <point x="190" y="1006" type="line"/>
      <point x="190" y="168" type="line"/>
      <point x="48" y="168" type="line"/>
      <point x="48" y="0" type="line"/>
      <point x="562" y="0" type="line"/>
      <point x="562" y="168" type="line"/>
      <point x="439" y="168" type="line"/>
      <point x="439" y="563" type="line"/>
      <point x="503" y="609"/>
      <point x="576" y="638"/>
      <point x="650" y="638" type="curve" smooth="yes"/>
      <point x="728" y="638"/>
      <point x="777" y="585"/>
      <point x="777" y="475" type="curve" smooth="yes"/>
      <point x="777" y="168" type="line"/>
      <point x="670" y="168" type="line"/>
      <point x="670" y="0" type="line"/>
      <point x="1166" y="0" type="line"/>
      <point x="1166" y="168" type="line"/>
    </contour>
  </outline>
</glyph>
<glyph name="i" format="1">
  <advance width="636"/>
  <unicode hex="0069"/>
  <outline>
    <contour>
      <point x="313" y="803" type="move" name="top"/>
    </contour>
    <contour>
      <point x="329" y="0" type="move" name="ogonek"/>
    </contour>
    <contour>
      <point x="329" y="966" type="curve" smooth="yes"/>
      <point x="422" y="966"/>
      <point x="489" y="1029"/>
      <point x="489" y="1118" type="curve" smooth="yes"/>
      <point x="489" y="1205"/>
      <point x="422" y="1269"/>
      <point x="329" y="1269" type="curve" smooth="yes"/>
      <point x="238" y="1269"/>
      <point x="171" y="1205"/>
      <point x="171" y="1118" type="curve" smooth="yes"/>
      <point x="171" y="1029"/>
      <point x="238" y="966"/>
    </contour>
    <contour>
      <point x="87" y="168" type="line"/>
      <point x="87" y="0" type="line"/>
      <point x="589" y="0" type="line"/>
      <point x="589" y="168" type="line"/>
      <point x="470" y="168" type="line"/>
      <point x="470" y="804" type="line"/>
      <point x="91" y="804" type="line"/>
      <point x="91" y="636" type="line"/>
      <point x="222" y="636" type="line"/>
      <point x="222" y="168" type="line"/>
    </contour>
  </outline>
</glyph>
<glyph name="j" format="1">
  <advance width="587"/>
  <unicode hex="006A"/>
  <outline>
    <contour>
      <point x="319" y="804" type="move" name="top"/>
    </contour>
    <contour>
      <point x="320" y="967" type="curve" smooth="yes"/>
      <point x="413" y="967"/>
      <point x="480" y="1030"/>
      <point x="479" y="1119" type="curve" smooth="yes"/>
      <point x="479" y="1206"/>
      <point x="413" y="1270"/>
      <point x="320" y="1270" type="curve" smooth="yes"/>
      <point x="228" y="1270"/>
      <point x="161" y="1206"/>
      <point x="161" y="1119" type="curve" smooth="yes"/>
      <point x="161" y="1030"/>
      <point x="228" y="967"/>
    </contour>
    <contour>
      <point x="-4" y="-152" type="line"/>
      <point x="-4" y="-344" type="line"/>
      <point x="98" y="-344" type="line" smooth="yes"/>
      <point x="494" y="-344"/>
      <point x="482" y="-100"/>
      <point x="482" y="120" type="curve" smooth="yes"/>
      <point x="482" y="804" type="line"/>
      <point x="68" y="804" type="line"/>
      <point x="68" y="636" type="line"/>
      <point x="228" y="636" type="line"/>
      <point x="228" y="23" type="line" smooth="yes"/>
      <point x="228" y="-116"/>
      <point x="187" y="-152"/>
      <point x="80" y="-152" type="curve" smooth="yes"/>
    </contour>
  </outline>
</glyph>
<glyph name="k" format="1">
  <advance width="1120"/>
  <unicode hex="006B"/>
  <outline>
    <contour>
      <point x="801" y="968" type="move" name="top"/>
    </contour>
    <contour>
      <point x="596" y="0" type="move" name="bot"/>
    </contour>
    <contour>
      <point x="938" y="169" type="line"/>
      <point x="685" y="430" type="line"/>
      <point x="952" y="637" type="line"/>
      <point x="1068" y="637" type="line"/>
      <point x="1068" y="804" type="line"/>
      <point x="583" y="804" type="line"/>
      <point x="583" y="637" type="line"/>
      <point x="727" y="637" type="line"/>
      <point x="439" y="428" type="line"/>
      <point x="439" y="1174" type="line"/>
      <point x="49" y="1174" type="line"/>
      <point x="49" y="1006" type="line"/>
      <point x="190" y="1006" type="line"/>
      <point x="190" y="168" type="line"/>
      <point x="48" y="168" type="line"/>
      <point x="48" y="0" type="line"/>
      <point x="562" y="0" type="line"/>
      <point x="562" y="168" type="line"/>
      <point x="439" y="168" type="line"/>
      <point x="439" y="390" type="line"/>
      <point x="801" y="0" type="line"/>
      <point x="1087" y="0" type="line"/>
      <point x="1087" y="169" type="line"/>
    </contour>
  </outline>
</glyph>
<glyph name="l" format="1">
  <advance width="611"/>
  <unicode hex="006C"/>
  <outline>
    <contour>
      <point x="314" y="1152" type="move" name="top"/>
    </contour>
    <contour>
      <point x="507" y="848" type="move" name="caron.alt"/>
    </contour>
    <contour>
      <point x="317" y="0" type="move" name="bot"/>
    </contour>
    <contour>
      <point x="504" y="654" type="move" name="mid"/>
    </contour>
    <contour>
      <point x="53" y="168" type="line"/>
      <point x="53" y="0" type="line"/>
      <point x="567" y="0" type="line"/>
      <point x="567" y="168" type="line"/>
      <point x="445" y="168" type="line"/>
      <point x="445" y="1174" type="line"/>
      <point x="54" y="1174" type="line"/>
      <point x="54" y="1006" type="line"/>
      <point x="196" y="1006" type="line"/>
      <point x="196" y="168" type="line"/>
    </contour>
  </outline>
</glyph>
<glyph name="m" format="1">
  <advance width="1766"/>
  <unicode hex="006D"/>
  <outline>
    <contour>
      <point x="930" y="804" type="move" name="top"/>
    </contour>
    <contour>
      <point x="1614" y="168" type="line"/>
      <point x="1614" y="521" type="line" smooth="yes"/>
      <point x="1615" y="726"/>
      <point x="1485" y="826"/>
      <point x="1330" y="826" type="curve" smooth="yes"/>
      <point x="1204" y="826"/>
      <point x="1092" y="769"/>
      <point x="986" y="677" type="curve"/>
      <point x="939" y="777"/>
      <point x="843" y="826"/>
      <point x="734" y="826" type="curve" smooth="yes"/>
      <point x="628" y="826"/>
      <point x="532" y="786"/>
      <point x="441" y="717" type="curve"/>
      <point x="441" y="804" type="line"/>
      <point x="51" y="804" type="line"/>
      <point x="51" y="636" type="line"/>
      <point x="185" y="636" type="line"/>
      <point x="185" y="168" type="line"/>
      <point x="48" y="168" type="line"/>
      <point x="48" y="0" type="line"/>
      <point x="563" y="0" type="line"/>
      <point x="563" y="168" type="line"/>
      <point x="441" y="168" type="line"/>
      <point x="441" y="578" type="line"/>
      <point x="500" y="615"/>
      <point x="566" y="638"/>
      <point x="632" y="638" type="curve" smooth="yes"/>
      <point x="711" y="638"/>
      <point x="762" y="585"/>
      <point x="762" y="475" type="curve" smooth="yes"/>
      <point x="762" y="168" type="line"/>
      <point x="653" y="168" type="line"/>
      <point x="653" y="0" type="line"/>
      <point x="1162" y="0" type="line"/>
      <point x="1162" y="168" type="line"/>
      <point x="1018" y="168" type="line"/>
      <point x="1018" y="521" type="line" smooth="yes"/>
      <point x="1018" y="536"/>
      <point x="1018" y="551"/>
      <point x="1016" y="565" type="curve"/>
      <point x="1081" y="610"/>
      <point x="1154" y="638"/>
      <point x="1228" y="638" type="curve" smooth="yes"/>
      <point x="1307" y="638"/>
      <point x="1358" y="585"/>
      <point x="1358" y="475" type="curve" smooth="yes"/>
      <point x="1358" y="168" type="line"/>
      <point x="1249" y="168" type="line"/>
      <point x="1249" y="0" type="line"/>
      <point x="1758" y="0" type="line"/>
      <point x="1758" y="168" type="line"/>
    </contour>
  </outline>
</glyph>
<glyph name="n" format="1">
  <advance width="1149"/>
  <unicode hex="006E"/>
  <outline>
    <contour>
      <point x="609" y="804" type="move" name="top"/>
    </contour>
    <contour>
      <point x="613" y="0" type="move" name="bot"/>
    </contour>
    <contour>
      <point x="1001" y="168" type="line"/>
      <point x="1001" y="521" type="line" smooth="yes"/>
      <point x="1002" y="726"/>
      <point x="875" y="826"/>
      <point x="723" y="826" type="curve" smooth="yes"/>
      <point x="617" y="826"/>
      <point x="521" y="783"/>
      <point x="430" y="711" type="curve"/>
      <point x="430" y="804" type="line"/>
      <point x="51" y="804" type="line"/>
      <point x="51" y="636" type="line"/>
      <point x="182" y="636" type="line"/>
      <point x="182" y="168" type="line"/>
      <point x="48" y="168" type="line"/>
      <point x="48" y="0" type="line"/>
      <point x="549" y="0" type="line"/>
      <point x="549" y="168" type="line"/>
      <point x="430" y="168" type="line"/>
      <point x="430" y="573" type="line"/>
      <point x="490" y="614"/>
      <point x="558" y="638"/>
      <point x="625" y="638" type="curve" smooth="yes"/>
      <point x="703" y="638"/>
      <point x="753" y="585"/>
      <point x="753" y="475" type="curve" smooth="yes"/>
      <point x="753" y="168" type="line"/>
      <point x="646" y="168" type="line"/>
      <point x="646" y="0" type="line"/>
      <point x="1141" y="0" type="line"/>
      <point x="1141" y="168" type="line"/>
    </contour>
  </outline>
</glyph>
<glyph name="o" format="1">
  <advance width="1006"/>
  <unicode hex="006F"/>
  <outline>
    <contour>
      <point x="494" y="813" type="move" name="top"/>
    </contour>
    <contour>
      <point x="522" y="0" type="move" name="ogonek"/>
    </contour>
    <contour>
      <point x="502" y="-22" type="curve" smooth="yes"/>
      <point x="773" y="-22"/>
      <point x="960" y="154"/>
      <point x="960" y="409" type="curve" smooth="yes"/>
      <point x="960" y="655"/>
      <point x="774" y="826"/>
      <point x="503" y="826" type="curve" smooth="yes"/>
      <point x="232" y="826"/>
      <point x="45" y="655"/>
      <point x="45" y="409" type="curve" smooth="yes"/>
      <point x="45" y="154"/>
      <point x="231" y="-22"/>
    </contour>
    <contour>
      <point x="502" y="156" type="curve" smooth="yes"/>
      <point x="383" y="155"/>
      <point x="301" y="258"/>
      <point x="301" y="408" type="curve" smooth="yes"/>
      <point x="301" y="549"/>
      <point x="383" y="648"/>
      <point x="502" y="648" type="curve" smooth="yes"/>
      <point x="621" y="648"/>
      <point x="704" y="550"/>
      <point x="704" y="408" type="curve" smooth="yes"/>
      <point x="704" y="258"/>
      <point x="621" y="155"/>
    </contour>
  </outline>
</glyph>
<glyph name="p" format="1">
  <advance width="1094"/>
  <unicode hex="0070"/>
  <outline>
    <contour>
      <point x="572" y="804" type="move" name="top"/>
    </contour>
    <contour>
      <point x="412" y="751" type="curve"/>
      <point x="409" y="804" type="line"/>
      <point x="22" y="804" type="line"/>
      <point x="22" y="636" type="line"/>
      <point x="169" y="636" type="line"/>
      <point x="169" y="-181" type="line"/>
      <point x="22" y="-181" type="line"/>
      <point x="22" y="-349" type="line"/>
      <point x="589" y="-349" type="line"/>
      <point x="589" y="-181" type="line"/>
      <point x="417" y="-181" type="line"/>
      <point x="417" y="42" type="line"/>
      <point x="484" y="0"/>
      <point x="559" y="-21"/>
      <point x="635" y="-21" type="curve" smooth="yes"/>
      <point x="845" y="-21"/>
      <point x="1046" y="135"/>
      <point x="1046" y="417" type="curve" smooth="yes"/>
      <point x="1046" y="672"/>
      <point x="880" y="825"/>
      <point x="659" y="825" type="curve" smooth="yes"/>
      <point x="576" y="825"/>
      <point x="490" y="800"/>
    </contour>
    <contour>
      <point x="417" y="180" type="curve"/>
      <point x="417" y="605" type="line"/>
      <point x="465" y="636"/>
      <point x="516" y="650"/>
      <point x="563" y="650" type="curve" smooth="yes"/>
      <point x="706" y="650"/>
      <point x="785" y="544"/>
      <point x="785" y="401" type="curve" smooth="yes"/>
      <point x="785" y="231"/>
      <point x="679" y="142"/>
      <point x="549" y="142" type="curve" smooth="yes"/>
      <point x="506" y="142"/>
      <point x="460" y="155"/>
    </contour>
  </outline>
</glyph>
<glyph name="q" format="1">
  <advance width="1122"/>
  <unicode hex="0071"/>
  <outline>
    <contour>
      <point x="546" y="-357" type="line"/>
      <point x="1105" y="-357" type="line"/>
      <point x="1105" y="-183" type="line"/>
      <point x="963" y="-183" type="line"/>
      <point x="963" y="636" type="line"/>
      <point x="1080" y="636" type="line"/>
      <point x="1080" y="804" type="line"/>
      <point x="715" y="804" type="line"/>
      <point x="714" y="736" type="line"/>
      <point x="635" y="793"/>
      <point x="542" y="825"/>
      <point x="450" y="825" type="curve" smooth="yes"/>
      <point x="228" y="825"/>
      <point x="50" y="671"/>
      <point x="50" y="395" type="curve" smooth="yes"/>
      <point x="50" y="133"/>
      <point x="240" y="-22"/>
      <point x="474" y="-22" type="curve" smooth="yes"/>
      <point x="560" y="-22"/>
      <point x="643" y="4"/>
      <point x="714" y="54" type="curve"/>
      <point x="714" y="-183" type="line"/>
      <point x="546" y="-183" type="line"/>
    </contour>
    <contour>
      <point x="531" y="153" type="curve" smooth="yes"/>
      <point x="408" y="153"/>
      <point x="311" y="237"/>
      <point x="311" y="395" type="curve" smooth="yes"/>
      <point x="311" y="570"/>
      <point x="403" y="651"/>
      <point x="532" y="651" type="curve" smooth="yes"/>
      <point x="589" y="651"/>
      <point x="653" y="632"/>
      <point x="714" y="596" type="curve"/>
      <point x="714" y="205" type="line"/>
      <point x="653" y="171"/>
      <point x="589" y="153"/>
    </contour>
  </outline>
</glyph>
<glyph name="r" format="1">
  <advance width="829"/>
  <unicode hex="0072"/>
  <outline>
    <contour>
      <point x="452" y="804" type="move" name="top"/>
    </contour>
    <contour>
      <point x="304" y="0" type="move" name="bot"/>
    </contour>
    <contour>
      <point x="431" y="652" type="curve"/>
      <point x="431" y="804" type="line"/>
      <point x="52" y="804" type="line"/>
      <point x="52" y="636" type="line"/>
      <point x="183" y="636" type="line"/>
      <point x="183" y="168" type="line"/>
      <point x="48" y="168" type="line"/>
      <point x="48" y="0" type="line"/>
      <point x="550" y="0" type="line"/>
      <point x="550" y="168" type="line"/>
      <point x="431" y="168" type="line"/>
      <point x="431" y="427" type="line" smooth="yes"/>
      <point x="431" y="545"/>
      <point x="513" y="603"/>
      <point x="601" y="603" type="curve" smooth="yes"/>
      <point x="654" y="603"/>
      <point x="711" y="584"/>
      <point x="754" y="556" type="curve"/>
      <point x="810" y="771" type="line"/>
      <point x="756" y="794"/>
      <point x="701" y="813"/>
      <point x="644" y="813" type="curve" smooth="yes"/>
      <point x="566" y="813"/>
      <point x="488" y="774"/>
    </contour>
  </outline>
</glyph>
<glyph name="s" format="1">
  <advance width="898"/>
  <unicode hex="0073"/>
  <outline>
    <contour>
      <point x="423" y="804" type="move" name="top"/>
    </contour>
    <contour>
      <point x="503" y="0" type="move" name="bot"/>
    </contour>
    <contour>
      <point x="526" y="-21" type="curve" smooth="yes"/>
      <point x="669" y="-21"/>
      <point x="824" y="41"/>
      <point x="828" y="218" type="curve" smooth="yes"/>
      <point x="833" y="393"/>
      <point x="719" y="438"/>
      <point x="583" y="476" type="curve" smooth="yes"/>
      <point x="477" y="507" type="line" smooth="yes"/>
      <point x="379" y="534"/>
      <point x="346" y="551"/>
      <point x="346" y="597" type="curve" smooth="yes"/>
      <point x="346" y="643"/>
      <point x="396" y="665"/>
      <point x="460" y="665" type="curve" smooth="yes"/>
      <point x="522" y="665"/>
      <point x="602" y="641"/>
      <point x="640" y="603" type="curve"/>
      <point x="656" y="516" type="line"/>
      <point x="811" y="516" type="line"/>
      <point x="811" y="815" type="line"/>
      <point x="638" y="815" type="line"/>
      <point x="638" y="754" type="line"/>
      <point x="588" y="797"/>
      <point x="506" y="826"/>
      <point x="407" y="826" type="curve" smooth="yes"/>
      <point x="253" y="826"/>
      <point x="98" y="750"/>
      <point x="98" y="595" type="curve" smooth="yes"/>
      <point x="98" y="446"/>
      <point x="179" y="382"/>
      <point x="324" y="342" type="curve" smooth="yes"/>
      <point x="461" y="303" type="line" smooth="yes"/>
      <point x="550" y="280"/>
      <point x="591" y="265"/>
      <point x="591" y="208" type="curve" smooth="yes"/>
      <point x="591" y="160"/>
      <point x="547" y="135"/>
      <point x="479" y="135" type="curve" smooth="yes"/>
      <point x="399" y="135"/>
      <point x="295" y="172"/>
      <point x="258" y="232" type="curve"/>
      <point x="250" y="299" type="line"/>
      <point x="102" y="299" type="line"/>
      <point x="102" y="0" type="line"/>
      <point x="267" y="0" type="line"/>
      <point x="267" y="70" type="line"/>
      <point x="315" y="12"/>
      <point x="428" y="-21"/>
    </contour>
  </outline>
</glyph>
<glyph name="t" format="1">
  <advance width="653"/>
  <unicode hex="0074"/>
  <outline>
    <contour>
      <point x="492" y="1044" type="move" name="caron.alt"/>
    </contour>
    <contour>
      <point x="278" y="1096" type="move" name="top"/>
    </contour>
    <contour>
      <point x="392" y="0" type="curve" smooth="yes"/>
      <point x="591" y="0" type="line"/>
      <point x="591" y="151" type="line"/>
      <point x="444" y="151" type="line" smooth="yes"/>
      <point x="392" y="151"/>
      <point x="379" y="184"/>
      <point x="379" y="258" type="curve" smooth="yes"/>
      <point x="379" y="653" type="line"/>
      <point x="584" y="653" type="line"/>
      <point x="584" y="804" type="line"/>
      <point x="379" y="804" type="line"/>
      <point x="379" y="1153" type="line"/>
      <point x="163" y="1078" type="line"/>
      <point x="163" y="804" type="line"/>
      <point x="37" y="804" type="line"/>
      <point x="37" y="653" type="line"/>
      <point x="161" y="653" type="line"/>
      <point x="161" y="248" type="line" smooth="yes"/>
      <point x="161" y="87"/>
      <point x="233" y="0"/>
    </contour>
  </outline>
</glyph>
<glyph name="u" format="1">
  <advance width="1123"/>
  <unicode hex="0075"/>
  <outline>
    <contour>
      <point x="519" y="804" type="move" name="top"/>
    </contour>
    <contour>
      <point x="883" y="0" type="move" name="ogonek"/>
    </contour>
    <contour>
      <point x="426" y="-20" type="curve" smooth="yes"/>
      <point x="538" y="-20"/>
      <point x="630" y="21"/>
      <point x="714" y="92" type="curve"/>
      <point x="717" y="0" type="line"/>
      <point x="1099" y="0" type="line"/>
      <point x="1099" y="169" type="line"/>
      <point x="962" y="169" type="line"/>
      <point x="962" y="804" type="line"/>
      <point x="581" y="804" type="line"/>
      <point x="581" y="636" type="line"/>
      <point x="714" y="636" type="line"/>
      <point x="714" y="259" type="line"/>
      <point x="658" y="201"/>
      <point x="583" y="166"/>
      <point x="512" y="166" type="curve" smooth="yes"/>
      <point x="432" y="166"/>
      <point x="386" y="213"/>
      <point x="386" y="319" type="curve" smooth="yes"/>
      <point x="386" y="804" type="line"/>
      <point x="17" y="804" type="line"/>
      <point x="17" y="636" type="line"/>
      <point x="137" y="636" type="line"/>
      <point x="137" y="278" type="line" smooth="yes"/>
      <point x="137" y="107"/>
      <point x="220" y="-20"/>
    </contour>
  </outline>
</glyph>
<glyph name="v" format="1">
  <advance width="1112"/>
  <unicode hex="0076"/>
  <outline>
    <contour>
      <point x="148" y="636" type="line"/>
      <point x="449" y="0" type="line"/>
      <point x="666" y="0" type="line"/>
      <point x="971" y="636" type="line"/>
      <point x="1092" y="636" type="line"/>
      <point x="1092" y="804" type="line"/>
      <point x="651" y="804" type="line"/>
      <point x="651" y="636" type="line"/>
      <point x="755" y="636" type="line"/>
      <point x="587" y="246" type="line"/>
      <point x="419" y="636" type="line"/>
      <point x="519" y="636" type="line"/>
      <point x="519" y="804" type="line"/>
      <point x="20" y="804" type="line"/>
      <point x="20" y="636" type="line"/>
    </contour>
  </outline>
</glyph>
<glyph name="w" format="1">
  <advance width="1453"/>
  <unicode hex="0077"/>
  <outline>
    <contour>
      <point x="763" y="804" type="move" name="top"/>
    </contour>
    <contour>
      <point x="123" y="636" type="line"/>
      <point x="356" y="0" type="line"/>
      <point x="580" y="0" type="line"/>
      <point x="741" y="449" type="line"/>
      <point x="908" y="0" type="line"/>
      <point x="1111" y="0" type="line"/>
      <point x="1331" y="636" type="line"/>
      <point x="1430" y="636" type="line"/>
      <point x="1430" y="804" type="line"/>
      <point x="1069" y="804" type="line"/>
      <point x="1069" y="636" type="line"/>
      <point x="1161" y="636" type="line"/>
      <point x="1025" y="219" type="line"/>
      <point x="876" y="636" type="line"/>
      <point x="965" y="636" type="line"/>
      <point x="965" y="804" type="line"/>
      <point x="554" y="804" type="line"/>
      <point x="554" y="636" type="line"/>
      <point x="647" y="636" type="line"/>
      <point x="501" y="222" type="line"/>
      <point x="362" y="636" type="line"/>
      <point x="443" y="636" type="line"/>
      <point x="443" y="804" type="line"/>
      <point x="23" y="804" type="line"/>
      <point x="23" y="636" type="line"/>
    </contour>
  </outline>
</glyph>
<glyph name="x" format="1">
  <advance width="1044"/>
  <unicode hex="0078"/>
  <outline>
    <contour>
      <point x="40" y="169" type="line"/>
      <point x="40" y="0" type="line"/>
      <point x="447" y="0" type="line"/>
      <point x="447" y="169" type="line"/>
      <point x="340" y="169" type="line"/>
      <point x="495" y="317" type="line"/>
      <point x="651" y="169" type="line"/>
      <point x="547" y="169" type="line"/>
      <point x="547" y="0" type="line"/>
      <point x="1009" y="0" type="line"/>
      <point x="1009" y="169" type="line"/>
      <point x="904" y="169" type="line"/>
      <point x="645" y="426" type="line"/>
      <point x="871" y="636" type="line"/>
      <point x="1003" y="636" type="line"/>
      <point x="1003" y="804" type="line"/>
      <point x="593" y="804" type="line"/>
      <point x="593" y="636" type="line"/>
      <point x="685" y="636" type="line"/>
      <point x="547" y="501" type="line"/>
      <point x="412" y="636" type="line"/>
      <point x="490" y="636" type="line"/>
      <point x="490" y="804" type="line"/>
      <point x="38" y="804" type="line"/>
      <point x="38" y="636" type="line"/>
      <point x="159" y="636" type="line"/>
      <point x="395" y="404" type="line"/>
      <point x="148" y="169" type="line"/>
    </contour>
  </outline>
</glyph>
<glyph name="y" format="1">
  <advance width="1115"/>
  <unicode hex="0079"/>
  <outline>
    <contour>
      <point x="564" y="804" type="move" name="top"/>
    </contour>
    <contour>
      <point x="200" y="-171" type="line"/>
      <point x="200" y="-360" type="line"/>
      <point x="322" y="-360" type="line" smooth="yes"/>
      <point x="540" y="-360"/>
      <point x="584" y="-266"/>
      <point x="674" y="-62" type="curve" smooth="yes"/>
      <point x="986" y="636" type="line"/>
      <point x="1111" y="636" type="line"/>
      <point x="1111" y="804" type="line"/>
      <point x="623" y="804" type="line"/>
      <point x="623" y="636" type="line"/>
      <point x="741" y="636" type="line"/>
      <point x="576" y="230" type="line"/>
      <point x="384" y="636" type="line"/>
      <point x="490" y="636" type="line"/>
      <point x="490" y="804" type="line"/>
      <point x="7" y="804" type="line"/>
      <point x="7" y="636" type="line"/>
      <point x="145" y="636" type="line"/>
      <point x="433" y="58" type="line"/>
      <point x="511" y="58" type="line"/>
      <point x="472" y="-43" type="line" smooth="yes"/>
      <point x="426" y="-162"/>
      <point x="377" y="-171"/>
      <point x="301" y="-171" type="curve" smooth="yes"/>
    </contour>
  </outline>
</glyph>
<glyph name="z" format="1">
  <advance width="928"/>
  <unicode hex="007A"/>
  <outline>
    <contour>
      <point x="486" y="804" type="move" name="top"/>
    </contour>
    <contour>
      <point x="85" y="156" type="line"/>
      <point x="85" y="0" type="line"/>
      <point x="875" y="0" type="line"/>
      <point x="875" y="323" type="line"/>
      <point x="698" y="323" type="line"/>
      <point x="698" y="152" type="line"/>
      <point x="377" y="152" type="line"/>
      <point x="852" y="641" type="line"/>
      <point x="852" y="804" type="line"/>
      <point x="86" y="804" type="line"/>
      <point x="86" y="496" type="line"/>
      <point x="260" y="496" type="line"/>
      <point x="260" y="650" type="line"/>
      <point x="556" y="650" type="line"/>
    </contour>
  </outline>
</glyph>
<glyph name="braceleft" format="1">
  <advance width="803"/>
  <unicode hex="007B"/>
  <outline>
    <contour>
      <point x="618" y="-212" type="curve" smooth="yes"/>
      <point x="711" y="-212" type="line"/>
      <point x="711" y="-61" type="line"/>
      <point x="529" y="-61"/>
      <point x="519" y="-29"/>
      <point x="519" y="133" type="curve" smooth="yes"/>
      <point x="519" y="402"/>
      <point x="496" y="487"/>
      <point x="320" y="535" type="curve"/>
      <point x="506" y="584"/>
      <point x="520" y="673"/>
      <point x="520" y="979" type="curve" smooth="yes"/>
      <point x="520" y="1100"/>
      <point x="550" y="1131"/>
      <point x="711" y="1131" type="curve"/>
      <point x="711" y="1281" type="line"/>
      <point x="617" y="1281" type="line" smooth="yes"/>
      <point x="290" y="1281"/>
      <point x="293" y="1116"/>
      <point x="293" y="884" type="curve" smooth="yes"/>
      <point x="293" y="707"/>
      <point x="255" y="611"/>
      <point x="111" y="611" type="curve"/>
      <point x="111" y="459" type="line"/>
      <point x="259" y="459"/>
      <point x="293" y="362"/>
      <point x="293" y="180" type="curve" smooth="yes"/>
      <point x="293" y="-52"/>
      <point x="291" y="-212"/>
    </contour>
  </outline>
</glyph>
<glyph name="braceright" format="1">
  <advance width="804"/>
  <unicode hex="007D"/>
  <outline>
    <contour>
      <point x="136" y="-212" type="line"/>
      <point x="230" y="-212" type="line" smooth="yes"/>
      <point x="557" y="-212"/>
      <point x="555" y="-52"/>
      <point x="555" y="180" type="curve" smooth="yes"/>
      <point x="555" y="362"/>
      <point x="589" y="459"/>
      <point x="736" y="459" type="curve"/>
      <point x="736" y="611" type="line"/>
      <point x="591" y="611"/>
      <point x="555" y="708"/>
      <point x="555" y="887" type="curve" smooth="yes"/>
      <point x="555" y="1118"/>
      <point x="557" y="1281"/>
      <point x="231" y="1281" type="curve" smooth="yes"/>
      <point x="136" y="1281" type="line"/>
      <point x="136" y="1131" type="line"/>
      <point x="298" y="1131"/>
      <point x="328" y="1100"/>
      <point x="328" y="979" type="curve" smooth="yes"/>
      <point x="328" y="673"/>
      <point x="342" y="584"/>
      <point x="528" y="535" type="curve"/>
      <point x="351" y="486"/>
      <point x="329" y="401"/>
      <point x="329" y="129" type="curve" smooth="yes"/>
      <point x="329" y="-30"/>
      <point x="318" y="-61"/>
      <point x="136" y="-61" type="curve"/>
    </contour>
  </outline>
</glyph>
<glyph name="exclamdown" format="1">
  <advance width="610"/>
  <unicode hex="00A1"/>
  <outline>
    <contour>
      <point x="178" y="-257" type="line"/>
      <point x="416" y="-257" type="line"/>
      <point x="416" y="41" type="line"/>
      <point x="352" y="536" type="line"/>
      <point x="245" y="536" type="line"/>
      <point x="178" y="41" type="line"/>
    </contour>
    <contour>
      <point x="436" y="683" type="line"/>
      <point x="436" y="937" type="line"/>
      <point x="157" y="937" type="line"/>
      <point x="157" y="683" type="line"/>
    </contour>
  </outline>
</glyph>
<glyph name="cent" format="1">
  <advance width="974"/>
  <unicode hex="00A2"/>
  <outline>
    <contour>
      <point x="388" y="-403" type="line"/>
      <point x="703" y="1188" type="line"/>
      <point x="621" y="1201" type="line"/>
      <point x="308" y="-390" type="line"/>
    </contour>
    <component base="c"/>
  </outline>
</glyph>
<glyph name="sterling" format="1">
  <advance width="1099"/>
  <unicode hex="00A3"/>
  <outline>
    <contour>
      <point x="270" y="-20" type="curve" smooth="yes"/>
      <point x="359" y="-20"/>
      <point x="427" y="24"/>
      <point x="477" y="86" type="curve"/>
      <point x="559" y="25"/>
      <point x="665" y="-20"/>
      <point x="761" y="-20" type="curve" smooth="yes"/>
      <point x="970" y="-20"/>
      <point x="1026" y="98"/>
      <point x="1030" y="305" type="curve"/>
      <point x="1030" y="338" type="line"/>
      <point x="874" y="338" type="line"/>
      <point x="868" y="227"/>
      <point x="842" y="179"/>
      <point x="759" y="179" type="curve" smooth="yes"/>
      <point x="705" y="179"/>
      <point x="651" y="211"/>
      <point x="602" y="240" type="curve"/>
      <point x="624" y="293"/>
      <point x="633" y="344"/>
      <point x="633" y="392" type="curve" smooth="yes"/>
      <point x="633" y="452"/>
      <point x="618" y="510"/>
      <point x="592" y="564" type="curve"/>
      <point x="911" y="564" type="line"/>
      <point x="911" y="699" type="line"/>
      <point x="534" y="699" type="line"/>
      <point x="498" y="764"/>
      <point x="467" y="836"/>
      <point x="467" y="904" type="curve" smooth="yes"/>
      <point x="467" y="998"/>
      <point x="523" y="1057"/>
      <point x="633" y="1057" type="curve" smooth="yes"/>
      <point x="740" y="1057"/>
      <point x="776" y="980"/>
      <point x="775" y="883" type="curve"/>
      <point x="983" y="883" type="line"/>
      <point x="985" y="1082"/>
      <point x="860" y="1224"/>
      <point x="627" y="1224" type="curve" smooth="yes"/>
      <point x="362" y="1224"/>
      <point x="223" y="1093"/>
      <point x="223" y="896" type="curve" smooth="yes"/>
      <point x="223" y="826"/>
      <point x="240" y="761"/>
      <point x="268" y="699" type="curve"/>
      <point x="120" y="699" type="line"/>
      <point x="120" y="564" type="line"/>
      <point x="341" y="564" type="line"/>
      <point x="404" y="493"/>
      <point x="431" y="381"/>
      <point x="431" y="321" type="curve"/>
      <point x="390" y="355"/>
      <point x="325" y="387"/>
      <point x="262" y="387" type="curve" smooth="yes"/>
      <point x="113" y="387"/>
      <point x="38" y="278"/>
      <point x="38" y="174" type="curve" smooth="yes"/>
      <point x="38" y="78"/>
      <point x="106" y="-20"/>
    </contour>
    <contour>
      <point x="266" y="97" type="curve" smooth="yes"/>
      <point x="220" y="97"/>
      <point x="181" y="126"/>
      <point x="181" y="177" type="curve" smooth="yes"/>
      <point x="181" y="226"/>
      <point x="212" y="254"/>
      <point x="257" y="254" type="curve" smooth="yes"/>
      <point x="295" y="254"/>
      <point x="343" y="233"/>
      <point x="389" y="186" type="curve"/>
      <point x="361" y="124"/>
      <point x="310" y="97"/>
    </contour>
  </outline>
</glyph>
<glyph name="currency" format="1">
  <advance width="1101"/>
  <unicode hex="00A4"/>
  <outline>
    <contour>
      <point x="263" y="451" type="line"/>
      <point x="351" y="538" type="line"/>
      <point x="407" y="507"/>
      <point x="469" y="486"/>
      <point x="548" y="486" type="curve" smooth="yes"/>
      <point x="624" y="486"/>
      <point x="688" y="504"/>
      <point x="748" y="539" type="curve"/>
      <point x="838" y="451" type="line"/>
      <point x="907" y="519" type="line"/>
      <point x="822" y="603" type="line"/>
      <point x="866" y="656"/>
      <point x="896" y="722"/>
      <point x="896" y="806" type="curve" smooth="yes"/>
      <point x="896" y="882"/>
      <point x="872" y="950"/>
      <point x="824" y="1005" type="curve"/>
      <point x="907" y="1088" type="line"/>
      <point x="838" y="1157" type="line"/>
      <point x="750" y="1069" type="line"/>
      <point x="697" y="1102"/>
      <point x="628" y="1124"/>
      <point x="549" y="1124" type="curve" smooth="yes"/>
      <point x="468" y="1124"/>
      <point x="402" y="1102"/>
      <point x="349" y="1071" type="curve"/>
      <point x="263" y="1157" type="line"/>
      <point x="194" y="1088" type="line"/>
      <point x="274" y="1007" type="line"/>
      <point x="227" y="950"/>
      <point x="201" y="882"/>
      <point x="201" y="804" type="curve" smooth="yes"/>
      <point x="201" y="722"/>
      <point x="233" y="653"/>
      <point x="276" y="601" type="curve"/>
      <point x="194" y="519" type="line"/>
    </contour>
    <contour>
      <point x="548" y="600" type="curve" smooth="yes"/>
      <point x="419" y="600"/>
      <point x="336" y="700"/>
      <point x="336" y="808" type="curve" smooth="yes"/>
      <point x="336" y="909"/>
      <point x="420" y="1006"/>
      <point x="549" y="1006" type="curve" smooth="yes"/>
      <point x="668" y="1006"/>
      <point x="760" y="911"/>
      <point x="760" y="806" type="curve" smooth="yes"/>
      <point x="760" y="700"/>
      <point x="677" y="600"/>
    </contour>
  </outline>
</glyph>
<glyph name="yen" format="1">
  <advance width="1347"/>
  <unicode hex="00A5"/>
  <outline>
    <contour>
      <point x="265" y="297" type="line"/>
      <point x="1084" y="297" type="line"/>
      <point x="1084" y="414" type="line"/>
      <point x="770" y="414" type="line"/>
      <point x="770" y="503" type="line"/>
      <point x="1084" y="503" type="line"/>
      <point x="1084" y="622" type="line"/>
      <point x="265" y="622" type="line"/>
      <point x="265" y="503" type="line"/>
      <point x="610" y="503" type="line"/>
      <point x="610" y="414" type="line"/>
      <point x="265" y="414" type="line"/>
    </contour>
    <component base="Y"/>
  </outline>
</glyph>
<glyph name="brokenbar" format="1">
  <advance width="539"/>
  <unicode hex="00A6"/>
  <outline>
    <contour>
      <point x="181" y="-227" type="line"/>
      <point x="361" y="-227" type="line"/>
      <point x="361" y="332" type="line"/>
      <point x="181" y="332" type="line"/>
    </contour>
    <contour>
      <point x="181" y="640" type="line"/>
      <point x="361" y="640" type="line"/>
      <point x="361" y="1199" type="line"/>
      <point x="181" y="1199" type="line"/>
    </contour>
  </outline>
</glyph>
<glyph name="dieresis" format="1">
  <advance width="827"/>
  <unicode hex="00A8"/>
  <outline>
    <contour>
      <point x="411" y="804" type="move" name="_top"/>
    </contour>
    <contour>
      <point x="179" y="918" type="curve" smooth="yes"/>
      <point x="265" y="918"/>
      <point x="319" y="977"/>
      <point x="319" y="1052" type="curve" smooth="yes"/>
      <point x="319" y="1135"/>
      <point x="258" y="1185"/>
      <point x="179" y="1185" type="curve" smooth="yes"/>
      <point x="100" y="1185"/>
      <point x="40" y="1130"/>
      <point x="40" y="1052" type="curve" smooth="yes"/>
      <point x="40" y="975"/>
      <point x="100" y="918"/>
    </contour>
    <contour>
      <point x="647" y="918" type="curve" smooth="yes"/>
      <point x="733" y="918"/>
      <point x="787" y="977"/>
      <point x="787" y="1052" type="curve" smooth="yes"/>
      <point x="787" y="1135"/>
      <point x="727" y="1185"/>
      <point x="647" y="1185" type="curve" smooth="yes"/>
      <point x="568" y="1185"/>
      <point x="508" y="1130"/>
      <point x="508" y="1052" type="curve" smooth="yes"/>
      <point x="508" y="975"/>
      <point x="569" y="918"/>
    </contour>
  </outline>
</glyph>
<glyph name="ordfeminine" format="1">
  <advance width="871"/>
  <unicode hex="00AA"/>
  <outline>
    <contour>
      <point x="341" y="469" type="curve" smooth="yes"/>
      <point x="427" y="469"/>
      <point x="495" y="492"/>
      <point x="555" y="538" type="curve"/>
      <point x="569" y="486" type="line"/>
      <point x="842" y="486" type="line"/>
      <point x="842" y="625" type="line"/>
      <point x="741" y="625" type="line"/>
      <point x="741" y="921" type="line" smooth="yes"/>
      <point x="741" y="1094"/>
      <point x="599" y="1174"/>
      <point x="425" y="1174" type="curve" smooth="yes"/>
      <point x="324" y="1174"/>
      <point x="205" y="1148"/>
      <point x="118" y="1091" type="curve"/>
      <point x="175" y="965" type="line"/>
      <point x="262" y="1010"/>
      <point x="351" y="1028"/>
      <point x="408" y="1028" type="curve" smooth="yes"/>
      <point x="488" y="1028"/>
      <point x="534" y="989"/>
      <point x="534" y="909" type="curve" smooth="yes"/>
      <point x="534" y="868" type="line"/>
      <point x="490" y="878"/>
      <point x="444" y="883"/>
      <point x="396" y="883" type="curve" smooth="yes"/>
      <point x="248" y="883"/>
      <point x="103" y="829"/>
      <point x="103" y="675" type="curve" smooth="yes"/>
      <point x="103" y="551"/>
      <point x="203" y="469"/>
    </contour>
    <contour>
      <point x="389" y="591" type="curve" smooth="yes"/>
      <point x="333" y="591"/>
      <point x="295" y="626"/>
      <point x="295" y="678" type="curve" smooth="yes"/>
      <point x="295" y="757"/>
      <point x="356" y="778"/>
      <point x="419" y="778" type="curve" smooth="yes"/>
      <point x="470" y="778"/>
      <point x="508" y="771"/>
      <point x="534" y="762" type="curve"/>
      <point x="534" y="645" type="line"/>
      <point x="491" y="610"/>
      <point x="437" y="591"/>
    </contour>
  </outline>
</glyph>
<glyph name="guillemotleft" format="1">
  <advance width="1102"/>
  <unicode hex="00AB"/>
  <outline>
    <contour>
      <point x="385" y="126" type="line"/>
      <point x="572" y="126" type="line"/>
      <point x="353" y="555" type="line"/>
      <point x="572" y="987" type="line"/>
      <point x="385" y="987" type="line"/>
      <point x="79" y="554" type="line"/>
    </contour>
    <contour>
      <point x="848" y="126" type="line"/>
      <point x="1035" y="126" type="line"/>
      <point x="816" y="555" type="line"/>
      <point x="1035" y="987" type="line"/>
      <point x="848" y="987" type="line"/>
      <point x="542" y="554" type="line"/>
    </contour>
  </outline>
</glyph>
<glyph name="logicalnot" format="1">
  <advance width="1132"/>
  <unicode hex="00AC"/>
  <outline>
    <contour>
      <point x="817" y="310" type="line"/>
      <point x="962" y="310" type="line"/>
      <point x="962" y="839" type="line"/>
      <point x="77" y="839" type="line"/>
      <point x="77" y="672" type="line"/>
      <point x="817" y="672" type="line"/>
    </contour>
  </outline>
</glyph>
<glyph name="macron" format="1">
  <advance width="446"/>
  <unicode hex="00AF"/>
  <outline>
    <contour>
      <point x="234" y="804" type="move" name="_top"/>
    </contour>
    <contour>
      <point x="-12" y="956" type="line"/>
      <point x="456" y="956" type="line"/>
      <point x="456" y="1079" type="line"/>
      <point x="-12" y="1079" type="line"/>
    </contour>
  </outline>
</glyph>
<glyph name="degree" format="1">
  <advance width="692"/>
  <unicode hex="00B0"/>
  <outline>
    <contour>
      <point x="347" y="794" type="curve" smooth="yes"/>
      <point x="220" y="794"/>
      <point x="170" y="888"/>
      <point x="170" y="970" type="curve" smooth="yes"/>
      <point x="171" y="1050"/>
      <point x="222" y="1144"/>
      <point x="343" y="1144" type="curve" smooth="yes"/>
      <point x="474" y="1144"/>
      <point x="523" y="1042"/>
      <point x="523" y="972" type="curve" smooth="yes"/>
      <point x="523" y="885"/>
      <point x="469" y="794"/>
    </contour>
    <contour>
      <point x="346" y="705" type="curve" smooth="yes"/>
      <point x="535" y="706"/>
      <point x="614" y="847"/>
      <point x="614" y="969" type="curve" smooth="yes"/>
      <point x="614" y="1090"/>
      <point x="533" y="1230"/>
      <point x="346" y="1230" type="curve" smooth="yes"/>
      <point x="160" y="1230"/>
      <point x="78" y="1090"/>
      <point x="78" y="969" type="curve" smooth="yes"/>
      <point x="78" y="846"/>
      <point x="158" y="705"/>
    </contour>
  </outline>
</glyph>
<glyph name="plusminus" format="1">
  <advance width="996"/>
  <unicode hex="00B1"/>
  <outline>
    <contour>
      <point x="410" y="279" type="line"/>
      <point x="585" y="279" type="line"/>
      <point x="585" y="594" type="line"/>
      <point x="909" y="594" type="line"/>
      <point x="909" y="757" type="line"/>
      <point x="585" y="757" type="line"/>
      <point x="585" y="1078" type="line"/>
      <point x="410" y="1078" type="line"/>
      <point x="410" y="757" type="line"/>
      <point x="88" y="757" type="line"/>
      <point x="88" y="594" type="line"/>
      <point x="410" y="594" type="line"/>
    </contour>
    <contour>
      <point x="88" y="0" type="line"/>
      <point x="909" y="0" type="line"/>
      <point x="909" y="163" type="line"/>
      <point x="88" y="163" type="line"/>
    </contour>
  </outline>
</glyph>
<glyph name="paragraph" format="1">
  <advance width="1180"/>
  <unicode hex="00B6"/>
  <outline>
    <contour>
      <point x="473" y="0" type="line"/>
      <point x="1127" y="0" type="line"/>
      <point x="1127" y="169" type="line"/>
      <point x="966" y="169" type="line"/>
      <point x="966" y="986" type="line"/>
      <point x="1120" y="986" type="line"/>
      <point x="1120" y="1152" type="line"/>
      <point x="525" y="1152" type="line" smooth="yes"/>
      <point x="180" y="1152"/>
      <point x="101" y="958"/>
      <point x="101" y="791" type="curve" smooth="yes"/>
      <point x="101" y="616"/>
      <point x="222" y="427"/>
      <point x="471" y="434" type="curve" smooth="yes"/>
      <point x="728" y="434" type="line"/>
      <point x="728" y="169" type="line"/>
      <point x="473" y="169" type="line"/>
    </contour>
    <contour>
      <point x="527" y="597" type="line"/>
      <point x="527" y="986" type="line"/>
      <point x="728" y="986" type="line"/>
      <point x="728" y="598" type="line"/>
    </contour>
  </outline>
</glyph>
<glyph name="cedilla" format="1">
  <advance width="514"/>
  <unicode hex="00B8"/>
  <outline>
    <contour>
      <point x="293" y="0" type="move" name="_bot"/>
    </contour>
    <contour>
      <point x="286" y="-402" type="curve" smooth="yes"/>
      <point x="382" y="-402"/>
      <point x="462" y="-361"/>
      <point x="462" y="-259" type="curve" smooth="yes"/>
      <point x="462" y="-193"/>
      <point x="413" y="-131"/>
      <point x="308" y="-116" type="curve"/>
      <point x="337" y="5" type="line"/>
      <point x="239" y="5" type="line"/>
      <point x="172" y="-172" type="line"/>
      <point x="250" y="-177"/>
      <point x="289" y="-200"/>
      <point x="289" y="-241" type="curve" smooth="yes"/>
      <point x="289" y="-285"/>
      <point x="258" y="-301"/>
      <point x="213" y="-301" type="curve" smooth="yes"/>
      <point x="175" y="-301"/>
      <point x="129" y="-290"/>
      <point x="85" y="-274" type="curve"/>
      <point x="85" y="-352" type="line"/>
      <point x="146" y="-383"/>
      <point x="220" y="-402"/>
    </contour>
  </outline>
</glyph>
<glyph name="ordmasculine" format="1">
  <advance width="988"/>
  <unicode hex="00BA"/>
  <outline>
    <contour>
      <point x="493" y="616" type="curve" smooth="yes"/>
      <point x="394" y="616"/>
      <point x="325" y="701"/>
      <point x="325" y="826" type="curve" smooth="yes"/>
      <point x="325" y="944"/>
      <point x="394" y="1026"/>
      <point x="492" y="1026" type="curve" smooth="yes"/>
      <point x="592" y="1026"/>
      <point x="661" y="945"/>
      <point x="661" y="827" type="curve" smooth="yes"/>
      <point x="661" y="701"/>
      <point x="592" y="616"/>
    </contour>
    <contour>
      <point x="492" y="468" type="curve" smooth="yes"/>
      <point x="719" y="468"/>
      <point x="875" y="614"/>
      <point x="875" y="827" type="curve" smooth="yes"/>
      <point x="875" y="1033"/>
      <point x="719" y="1174"/>
      <point x="493" y="1174" type="curve" smooth="yes"/>
      <point x="268" y="1174"/>
      <point x="112" y="1033"/>
      <point x="112" y="827" type="curve" smooth="yes"/>
      <point x="112" y="614"/>
      <point x="267" y="468"/>
    </contour>
  </outline>
</glyph>
<glyph name="guillemotright" format="1">
  <advance width="1076"/>
  <unicode hex="00BB"/>
  <outline>
    <contour>
      <point x="79" y="126" type="line"/>
      <point x="267" y="126" type="line"/>
      <point x="572" y="558" type="line"/>
      <point x="267" y="987" type="line"/>
      <point x="79" y="987" type="line"/>
      <point x="299" y="558" type="line"/>
    </contour>
    <contour>
      <point x="542" y="126" type="line"/>
      <point x="730" y="126" type="line"/>
      <point x="1035" y="558" type="line"/>
      <point x="730" y="987" type="line"/>
      <point x="542" y="987" type="line"/>
      <point x="762" y="558" type="line"/>
    </contour>
  </outline>
</glyph>
<glyph name="onequarter" format="1">
  <advance width="2160"/>
  <unicode hex="00BC"/>
  <outline>
    <contour>
      <point x="1540" y="0" type="line"/>
      <point x="1943" y="0" type="line"/>
      <point x="1943" y="120" type="line"/>
      <point x="1836" y="120" type="line"/>
      <point x="1836" y="252" type="line"/>
      <point x="1958" y="252" type="line"/>
      <point x="1958" y="361" type="line"/>
      <point x="1836" y="361" type="line"/>
      <point x="1836" y="818" type="line"/>
      <point x="1661" y="818" type="line"/>
      <point x="1311" y="366" type="line"/>
      <point x="1328" y="252" type="line"/>
      <point x="1665" y="252" type="line"/>
      <point x="1665" y="120" type="line"/>
      <point x="1540" y="120" type="line"/>
    </contour>
    <contour>
      <point x="207" y="335" type="line"/>
      <point x="658" y="335" type="line"/>
      <point x="658" y="455" type="line"/>
      <point x="530" y="455" type="line"/>
      <point x="530" y="1152" type="line"/>
      <point x="202" y="1113" type="line"/>
      <point x="202" y="995" type="line"/>
      <point x="342" y="1015" type="line"/>
      <point x="342" y="455" type="line"/>
      <point x="207" y="455" type="line"/>
    </contour>
    <contour>
      <point x="604" y="-65" type="line"/>
      <point x="747" y="-65" type="line"/>
      <point x="1554" y="1236" type="line"/>
      <point x="1415" y="1236" type="line"/>
    </contour>
    <contour>
      <point x="1448" y="361" type="line"/>
      <point x="1665" y="649" type="line"/>
      <point x="1665" y="361" type="line"/>
    </contour>
  </outline>
</glyph>
<glyph name="onehalf" format="1">
  <advance width="2208"/>
  <unicode hex="00BD"/>
  <outline>
    <contour>
      <point x="1418" y="0" type="line"/>
      <point x="2033" y="0" type="line"/>
      <point x="2030" y="262" type="line"/>
      <point x="1896" y="262" type="line"/>
      <point x="1895" y="113" type="line"/>
      <point x="1631" y="113" type="line"/>
      <point x="1837" y="306" type="line" smooth="yes"/>
      <point x="1933" y="397"/>
      <point x="2016" y="484"/>
      <point x="2016" y="587" type="curve" smooth="yes"/>
      <point x="2016" y="758"/>
      <point x="1871" y="834"/>
      <point x="1712" y="834" type="curve" smooth="yes"/>
      <point x="1501" y="834"/>
      <point x="1399" y="717"/>
      <point x="1399" y="578" type="curve" smooth="yes"/>
      <point x="1399" y="541"/>
      <point x="1406" y="504"/>
      <point x="1421" y="467" type="curve"/>
      <point x="1578" y="467" type="line"/>
      <point x="1570" y="498"/>
      <point x="1566" y="527"/>
      <point x="1566" y="553" type="curve" smooth="yes"/>
      <point x="1566" y="648"/>
      <point x="1617" y="706"/>
      <point x="1712" y="706" type="curve" smooth="yes"/>
      <point x="1797" y="706"/>
      <point x="1834" y="657"/>
      <point x="1836" y="586" type="curve" smooth="yes"/>
      <point x="1838" y="531"/>
      <point x="1778" y="465"/>
      <point x="1715" y="404" type="curve" smooth="yes"/>
      <point x="1419" y="123" type="line"/>
    </contour>
    <contour>
      <point x="207" y="335" type="line"/>
      <point x="658" y="335" type="line"/>
      <point x="658" y="455" type="line"/>
      <point x="530" y="455" type="line"/>
      <point x="530" y="1152" type="line"/>
      <point x="202" y="1113" type="line"/>
      <point x="202" y="995" type="line"/>
      <point x="342" y="1015" type="line"/>
      <point x="342" y="455" type="line"/>
      <point x="207" y="455" type="line"/>
    </contour>
    <contour>
      <point x="608" y="-65" type="line"/>
      <point x="750" y="-65" type="line"/>
      <point x="1558" y="1236" type="line"/>
      <point x="1418" y="1236" type="line"/>
    </contour>
  </outline>
</glyph>
<glyph name="threequarters" format="1">
  <advance width="2321"/>
  <unicode hex="00BE"/>
  <outline>
    <contour>
      <point x="510" y="324" type="curve" smooth="yes"/>
      <point x="726" y="324"/>
      <point x="840" y="434"/>
      <point x="840" y="583" type="curve" smooth="yes"/>
      <point x="840" y="677"/>
      <point x="781" y="750"/>
      <point x="669" y="777" type="curve"/>
      <point x="756" y="802"/>
      <point x="806" y="864"/>
      <point x="806" y="950" type="curve" smooth="yes"/>
      <point x="806" y="1065"/>
      <point x="713" y="1174"/>
      <point x="505" y="1174" type="curve" smooth="yes"/>
      <point x="382" y="1174"/>
      <point x="232" y="1110"/>
      <point x="193" y="983" type="curve"/>
      <point x="335" y="923" type="line"/>
      <point x="358" y="990"/>
      <point x="415" y="1037"/>
      <point x="498" y="1037" type="curve" smooth="yes"/>
      <point x="575" y="1037"/>
      <point x="628" y="993"/>
      <point x="628" y="939" type="curve" smooth="yes"/>
      <point x="628" y="870"/>
      <point x="584" y="824"/>
      <point x="445" y="824" type="curve"/>
      <point x="445" y="706" type="line"/>
      <point x="594" y="706"/>
      <point x="656" y="670"/>
      <point x="659" y="589" type="curve" smooth="yes"/>
      <point x="662" y="507"/>
      <point x="600" y="460"/>
      <point x="511" y="460" type="curve" smooth="yes"/>
      <point x="430" y="460"/>
      <point x="361" y="501"/>
      <point x="329" y="593" type="curve"/>
      <point x="193" y="523" type="line"/>
      <point x="229" y="401"/>
      <point x="355" y="324"/>
    </contour>
    <contour>
      <point x="1636" y="0" type="line"/>
      <point x="2039" y="0" type="line"/>
      <point x="2039" y="120" type="line"/>
      <point x="1932" y="120" type="line"/>
      <point x="1932" y="252" type="line"/>
      <point x="2054" y="252" type="line"/>
      <point x="2054" y="361" type="line"/>
      <point x="1932" y="361" type="line"/>
      <point x="1932" y="818" type="line"/>
      <point x="1757" y="818" type="line"/>
      <point x="1407" y="366" type="line"/>
      <point x="1423" y="252" type="line"/>
      <point x="1761" y="252" type="line"/>
      <point x="1761" y="120" type="line"/>
      <point x="1636" y="120" type="line"/>
    </contour>
    <contour>
      <point x="716" y="-65" type="line"/>
      <point x="859" y="-65" type="line"/>
      <point x="1666" y="1236" type="line"/>
      <point x="1527" y="1236" type="line"/>
    </contour>
    <contour>
      <point x="1544" y="361" type="line"/>
      <point x="1761" y="649" type="line"/>
      <point x="1761" y="361" type="line"/>
    </contour>
  </outline>
</glyph>
<glyph name="AE" format="1">
  <advance width="1919"/>
  <unicode hex="00C6"/>
  <outline>
    <contour>
      <point x="1198" y="1152" type="move" name="top"/>
    </contour>
    <contour>
      <point x="5" y="0" type="line"/>
      <point x="554" y="0" type="line"/>
      <point x="554" y="169" type="line"/>
      <point x="436" y="169" type="line"/>
      <point x="574" y="413" type="line"/>
      <point x="928" y="413" type="line"/>
      <point x="928" y="169" type="line"/>
      <point x="781" y="169" type="line"/>
      <point x="781" y="0" type="line"/>
      <point x="1849" y="0" type="line"/>
      <point x="1849" y="367" type="line"/>
      <point x="1671" y="367" type="line"/>
      <point x="1671" y="169" type="line"/>
      <point x="1212" y="169" type="line"/>
      <point x="1212" y="524" type="line"/>
      <point x="1472" y="524" type="line"/>
      <point x="1472" y="399" type="line"/>
      <point x="1586" y="399" type="line"/>
      <point x="1586" y="789" type="line"/>
      <point x="1472" y="789" type="line"/>
      <point x="1472" y="657" type="line"/>
      <point x="1211" y="657" type="line"/>
      <point x="1211" y="984" type="line"/>
      <point x="1669" y="984" type="line"/>
      <point x="1669" y="792" type="line"/>
      <point x="1847" y="792" type="line"/>
      <point x="1847" y="1152" type="line"/>
      <point x="543" y="1152" type="line"/>
      <point x="543" y="984" type="line"/>
      <point x="661" y="984" type="line"/>
      <point x="159" y="169" type="line"/>
      <point x="5" y="169" type="line"/>
    </contour>
    <contour>
      <point x="640" y="544" type="line"/>
      <point x="904" y="984" type="line"/>
      <point x="928" y="984" type="line"/>
      <point x="928" y="544" type="line"/>
    </contour>
  </outline>
</glyph>
<glyph name="multiply" format="1">
  <advance width="1028"/>
  <unicode hex="00D7"/>
  <outline>
    <contour>
      <point x="242" y="119" type="line"/>
      <point x="512" y="384" type="line"/>
      <point x="779" y="124" type="line"/>
      <point x="894" y="239" type="line"/>
      <point x="629" y="499" type="line"/>
      <point x="899" y="765" type="line"/>
      <point x="787" y="878" type="line"/>
      <point x="515" y="612" type="line"/>
      <point x="249" y="873" type="line"/>
      <point x="134" y="758" type="line"/>
      <point x="399" y="496" type="line"/>
      <point x="129" y="231" type="line"/>
    </contour>
  </outline>
</glyph>
<glyph name="Thorn" format="1">
  <advance width="1181"/>
  <unicode hex="00DE"/>
  <outline>
    <contour>
      <point x="567" y="458" type="line"/>
      <point x="567" y="326" type="line"/>
      <point x="665" y="326" type="line" smooth="yes"/>
      <point x="1029" y="326"/>
      <point x="1167" y="421"/>
      <point x="1167" y="608" type="curve" smooth="yes"/>
      <point x="1167" y="800"/>
      <point x="1008" y="888"/>
      <point x="715" y="888" type="curve" smooth="yes"/>
      <point x="496" y="888" type="line"/>
      <point x="496" y="984" type="line"/>
      <point x="657" y="984" type="line"/>
      <point x="657" y="1152" type="line"/>
      <point x="52" y="1152" type="line"/>
      <point x="52" y="984" type="line"/>
      <point x="213" y="984" type="line"/>
      <point x="213" y="168" type="line"/>
      <point x="52" y="168" type="line"/>
      <point x="52" y="0" type="line"/>
      <point x="657" y="0" type="line"/>
      <point x="657" y="168" type="line"/>
      <point x="496" y="168" type="line"/>
      <point x="496" y="747" type="line"/>
      <point x="710" y="747" type="line" smooth="yes"/>
      <point x="812" y="747"/>
      <point x="885" y="700"/>
      <point x="885" y="608" type="curve" smooth="yes"/>
      <point x="885" y="510"/>
      <point x="824" y="458"/>
      <point x="689" y="458" type="curve" smooth="yes"/>
    </contour>
  </outline>
</glyph>
<glyph name="germandbls" format="1">
  <advance width="1202"/>
  <unicode hex="00DF"/>
  <outline>
    <contour>
      <point x="45" y="0" type="line"/>
      <point x="550" y="0" type="line"/>
      <point x="550" y="169" type="line"/>
      <point x="443" y="169" type="line"/>
      <point x="443" y="870" type="line" smooth="yes"/>
      <point x="443" y="1014"/>
      <point x="529" y="1106"/>
      <point x="643" y="1106" type="curve" smooth="yes"/>
      <point x="734" y="1106"/>
      <point x="801" y="1053"/>
      <point x="801" y="960" type="curve" smooth="yes"/>
      <point x="801" y="844"/>
      <point x="718" y="766"/>
      <point x="576" y="766" type="curve"/>
      <point x="576" y="609" type="line"/>
      <point x="759" y="607"/>
      <point x="863" y="521"/>
      <point x="867" y="393" type="curve" smooth="yes"/>
      <point x="871" y="268"/>
      <point x="788" y="169"/>
      <point x="640" y="169" type="curve"/>
      <point x="640" y="0" type="line"/>
      <point x="984" y="0"/>
      <point x="1146" y="164"/>
      <point x="1141" y="403" type="curve" smooth="yes"/>
      <point x="1138" y="568"/>
      <point x="1009" y="683"/>
      <point x="830" y="716" type="curve"/>
      <point x="959" y="757"/>
      <point x="1033" y="865"/>
      <point x="1033" y="978" type="curve" smooth="yes"/>
      <point x="1034" y="1171"/>
      <point x="887" y="1295"/>
      <point x="639" y="1295" type="curve" smooth="yes"/>
      <point x="344" y="1295"/>
      <point x="184" y="1126"/>
      <point x="184" y="858" type="curve" smooth="yes"/>
      <point x="184" y="169" type="line"/>
      <point x="45" y="169" type="line"/>
    </contour>
  </outline>
</glyph>
<glyph name="ae" format="1">
  <advance width="1472"/>
  <unicode hex="00E6"/>
  <outline>
    <contour>
      <point x="740" y="804" type="move" name="top"/>
    </contour>
    <contour>
      <point x="386" y="-22" type="curve" smooth="yes"/>
      <point x="491" y="-22"/>
      <point x="581" y="1"/>
      <point x="714" y="87" type="curve"/>
      <point x="795" y="19"/>
      <point x="908" y="-20"/>
      <point x="1044" y="-20" type="curve" smooth="yes"/>
      <point x="1200" y="-20"/>
      <point x="1337" y="39"/>
      <point x="1409" y="115" type="curve"/>
      <point x="1333" y="251" type="line"/>
      <point x="1243" y="184"/>
      <point x="1154" y="156"/>
      <point x="1068" y="156" type="curve" smooth="yes"/>
      <point x="937" y="156"/>
      <point x="845" y="232"/>
      <point x="837" y="361" type="curve"/>
      <point x="1417" y="361" type="line"/>
      <point x="1417" y="641"/>
      <point x="1271" y="826"/>
      <point x="1021" y="826" type="curve" smooth="yes"/>
      <point x="902" y="826"/>
      <point x="790" y="788"/>
      <point x="727" y="720" type="curve"/>
      <point x="672" y="788"/>
      <point x="559" y="825"/>
      <point x="444" y="825" type="curve" smooth="yes"/>
      <point x="318" y="825"/>
      <point x="176" y="792"/>
      <point x="71" y="724" type="curve"/>
      <point x="139" y="574" type="line"/>
      <point x="244" y="628"/>
      <point x="351" y="650"/>
      <point x="424" y="650" type="curve" smooth="yes"/>
      <point x="520" y="650"/>
      <point x="579" y="603"/>
      <point x="579" y="508" type="curve" smooth="yes"/>
      <point x="579" y="456" type="line"/>
      <point x="525" y="468"/>
      <point x="467" y="475"/>
      <point x="410" y="475" type="curve" smooth="yes"/>
      <point x="234" y="475"/>
      <point x="60" y="410"/>
      <point x="60" y="226" type="curve" smooth="yes"/>
      <point x="60" y="15"/>
      <point x="275" y="-22"/>
    </contour>
    <contour>
      <point x="422" y="121" type="curve" smooth="yes"/>
      <point x="361" y="121"/>
      <point x="289" y="143"/>
      <point x="289" y="227" type="curve" smooth="yes"/>
      <point x="289" y="321"/>
      <point x="358" y="348"/>
      <point x="435" y="348" type="curve" smooth="yes"/>
      <point x="483" y="348"/>
      <point x="546" y="339"/>
      <point x="581" y="336" type="curve"/>
      <point x="588" y="286"/>
      <point x="604" y="236"/>
      <point x="625" y="195" type="curve"/>
      <point x="577" y="159"/>
      <point x="512" y="121"/>
    </contour>
    <contour>
      <point x="839" y="491" type="line"/>
      <point x="856" y="598"/>
      <point x="925" y="669"/>
      <point x="1026" y="669" type="curve" smooth="yes"/>
      <point x="1128" y="669"/>
      <point x="1184" y="598"/>
      <point x="1189" y="491" type="curve"/>
    </contour>
  </outline>
</glyph>
<glyph name="eth" format="1">
  <advance width="1040"/>
  <unicode hex="00F0"/>
  <outline>
    <contour>
      <point x="546" y="-20" type="curve" smooth="yes"/>
      <point x="820" y="-20"/>
      <point x="995" y="181"/>
      <point x="995" y="421" type="curve" smooth="yes"/>
      <point x="995" y="990"/>
      <point x="625" y="1222"/>
      <point x="354" y="1410" type="curve"/>
      <point x="248" y="1274" type="line"/>
      <point x="460" y="1126"/>
      <point x="655" y="955"/>
      <point x="749" y="732" type="curve"/>
      <point x="749" y="731"/>
      <point x="666" y="790"/>
      <point x="516" y="790" type="curve" smooth="yes"/>
      <point x="282" y="790"/>
      <point x="124" y="607"/>
      <point x="124" y="404" type="curve" smooth="yes"/>
      <point x="124" y="170"/>
      <point x="265" y="-20"/>
    </contour>
    <contour>
      <point x="559" y="163" type="curve" smooth="yes"/>
      <point x="435" y="163"/>
      <point x="357" y="267"/>
      <point x="357" y="409" type="curve" smooth="yes"/>
      <point x="357" y="542"/>
      <point x="429" y="629"/>
      <point x="553" y="629" type="curve" smooth="yes"/>
      <point x="675" y="629"/>
      <point x="767" y="548"/>
      <point x="767" y="407" type="curve" smooth="yes"/>
      <point x="767" y="272"/>
      <point x="700" y="163"/>
    </contour>
    <contour>
      <point x="330" y="886" type="line"/>
      <point x="953" y="1176" type="line"/>
      <point x="884" y="1319" type="line"/>
      <point x="262" y="1031" type="line"/>
    </contour>
  </outline>
</glyph>
<glyph name="divide" format="1">
  <advance width="895"/>
  <unicode hex="00F7"/>
  <outline>
    <contour>
      <point x="344" y="120" type="line"/>
      <point x="553" y="120" type="line"/>
      <point x="553" y="314" type="line"/>
      <point x="344" y="314" type="line"/>
    </contour>
    <contour>
      <point x="48" y="468" type="line"/>
      <point x="847" y="468" type="line"/>
      <point x="847" y="614" type="line"/>
      <point x="48" y="614" type="line"/>
    </contour>
    <contour>
      <point x="344" y="764" type="line"/>
      <point x="553" y="764" type="line"/>
      <point x="553" y="959" type="line"/>
      <point x="344" y="959" type="line"/>
    </contour>
  </outline>
</glyph>
<glyph name="thorn" format="1">
  <advance width="1168"/>
  <unicode hex="00FE"/>
  <outline>
    <contour>
      <point x="430" y="741" type="curve"/>
      <point x="430" y="1151" type="line"/>
      <point x="29" y="1151" type="line"/>
      <point x="29" y="984" type="line"/>
      <point x="181" y="984" type="line"/>
      <point x="181" y="-185" type="line"/>
      <point x="37" y="-185" type="line"/>
      <point x="37" y="-355" type="line"/>
      <point x="430" y="-355" type="line"/>
      <point x="430" y="84" type="line"/>
      <point x="503" y="22"/>
      <point x="592" y="-8"/>
      <point x="683" y="-8" type="curve" smooth="yes"/>
      <point x="892" y="-8"/>
      <point x="1094" y="147"/>
      <point x="1094" y="430" type="curve" smooth="yes"/>
      <point x="1094" y="685"/>
      <point x="928" y="838"/>
      <point x="706" y="838" type="curve" smooth="yes"/>
      <point x="613" y="838"/>
      <point x="515" y="805"/>
    </contour>
    <contour>
      <point x="430" y="220" type="curve"/>
      <point x="430" y="587" type="line"/>
      <point x="487" y="638"/>
      <point x="551" y="663"/>
      <point x="610" y="663" type="curve" smooth="yes"/>
      <point x="753" y="663"/>
      <point x="832" y="556"/>
      <point x="832" y="414" type="curve" smooth="yes"/>
      <point x="832" y="244"/>
      <point x="726" y="155"/>
      <point x="596" y="155" type="curve" smooth="yes"/>
      <point x="541" y="155"/>
      <point x="480" y="177"/>
    </contour>
  </outline>
</glyph>
<glyph name="dotlessi" format="1">
  <advance width="731"/>
  <unicode hex="0131"/>
  <outline>
    <contour>
      <point x="365" y="803" type="move" name="top"/>
    </contour>
    <contour>
      <point x="405" y="0" type="move" name="ogonek"/>
    </contour>
    <contour>
      <point x="140" y="0" type="line"/>
      <point x="642" y="0" type="line"/>
      <point x="642" y="168" type="line"/>
      <point x="523" y="168" type="line"/>
      <point x="523" y="804" type="line"/>
      <point x="144" y="804" type="line"/>
      <point x="144" y="636" type="line"/>
      <point x="275" y="636" type="line"/>
      <point x="275" y="168" type="line"/>
      <point x="140" y="168" type="line"/>
    </contour>
  </outline>
</glyph>
<glyph name="kgreenlandic" format="1">
  <advance width="1207"/>
  <unicode hex="0138"/>
  <outline>
    <contour>
      <point x="103" y="0" type="line"/>
      <point x="615" y="0" type="line"/>
      <point x="615" y="169" type="line"/>
      <point x="500" y="169" type="line"/>
      <point x="500" y="380" type="line"/>
      <point x="796" y="169" type="line"/>
      <point x="730" y="169" type="line"/>
      <point x="730" y="0" type="line"/>
      <point x="1202" y="0" type="line"/>
      <point x="1202" y="169" type="line"/>
      <point x="1059" y="169" type="line"/>
      <point x="747" y="394" type="line"/>
      <point x="1043" y="637" type="line"/>
      <point x="1185" y="637" type="line"/>
      <point x="1185" y="804" type="line"/>
      <point x="656" y="804" type="line"/>
      <point x="656" y="637" type="line"/>
      <point x="782" y="637" type="line"/>
      <point x="500" y="397" type="line"/>
      <point x="500" y="804" type="line"/>
      <point x="101" y="804" type="line"/>
      <point x="101" y="637" type="line"/>
      <point x="252" y="637" type="line"/>
      <point x="252" y="169" type="line"/>
      <point x="103" y="169" type="line"/>
    </contour>
  </outline>
</glyph>
<glyph name="Lslash" format="1">
  <advance width="1233"/>
  <unicode hex="0141"/>
  <outline>
    <contour>
      <point x="94" y="381" type="line"/>
      <point x="739" y="686" type="line"/>
      <point x="739" y="830" type="line"/>
      <point x="94" y="522" type="line"/>
    </contour>
    <component base="L"/>
  </outline>
</glyph>
<glyph name="lslash" format="1">
  <advance width="562"/>
  <unicode hex="0142"/>
  <outline>
    <contour>
      <point x="33" y="367" type="line"/>
      <point x="582" y="645" type="line"/>
      <point x="582" y="844" type="line"/>
      <point x="33" y="559" type="line"/>
    </contour>
    <component base="l"/>
  </outline>
</glyph>
<glyph name="Eng" format="1">
  <advance width="1548"/>
  <unicode hex="014A"/>
  <outline>
    <contour>
      <point x="1526" y="984" type="line"/>
      <point x="1526" y="1152" type="line"/>
      <point x="976" y="1152" type="line"/>
      <point x="976" y="984" type="line"/>
      <point x="1145" y="984" type="line"/>
      <point x="1145" y="376" type="line"/>
      <point x="547" y="1152" type="line"/>
      <point x="53" y="1152" type="line"/>
      <point x="53" y="984" type="line"/>
      <point x="231" y="984" type="line"/>
      <point x="231" y="169" type="line"/>
      <point x="53" y="169" type="line"/>
      <point x="53" y="0" type="line"/>
      <point x="597" y="0" type="line"/>
      <point x="597" y="169" type="line"/>
      <point x="426" y="169" type="line"/>
      <point x="426" y="884" type="line"/>
      <point x="1145" y="-21" type="line"/>
      <point x="1146" y="-191"/>
      <point x="1012" y="-224"/>
      <point x="853" y="-224" type="curve"/>
      <point x="853" y="-381" type="line"/>
      <point x="1105" y="-381"/>
      <point x="1342" y="-338"/>
      <point x="1342" y="-19" type="curve" smooth="yes"/>
      <point x="1342" y="984" type="line"/>
    </contour>
  </outline>
</glyph>
<glyph name="eng" format="1">
  <advance width="1149"/>
  <unicode hex="014B"/>
  <outline>
    <contour>
      <point x="429" y="708" type="curve"/>
      <point x="429" y="804" type="line"/>
      <point x="50" y="804" type="line"/>
      <point x="50" y="636" type="line"/>
      <point x="181" y="636" type="line"/>
      <point x="181" y="168" type="line"/>
      <point x="46" y="168" type="line"/>
      <point x="46" y="0" type="line"/>
      <point x="548" y="0" type="line"/>
      <point x="548" y="168" type="line"/>
      <point x="429" y="168" type="line"/>
      <point x="429" y="572" type="line"/>
      <point x="490" y="613"/>
      <point x="558" y="639"/>
      <point x="626" y="638" type="curve" smooth="yes"/>
      <point x="704" y="638"/>
      <point x="754" y="585"/>
      <point x="754" y="475" type="curve" smooth="yes"/>
      <point x="754" y="83" type="line" smooth="yes"/>
      <point x="754" y="-87"/>
      <point x="688" y="-144"/>
      <point x="530" y="-144" type="curve"/>
      <point x="528" y="-321" type="line"/>
      <point x="781" y="-321"/>
      <point x="1002" y="-234"/>
      <point x="1002" y="85" type="curve" smooth="yes"/>
      <point x="1002" y="521" type="line" smooth="yes"/>
      <point x="1002" y="726"/>
      <point x="875" y="826"/>
      <point x="724" y="826" type="curve" smooth="yes"/>
      <point x="617" y="826"/>
      <point x="520" y="783"/>
    </contour>
  </outline>
</glyph>
<glyph name="OE" format="1">
  <advance width="2187"/>
  <unicode hex="0152"/>
  <outline>
    <contour>
      <point x="927" y="0" type="curve" smooth="yes"/>
      <point x="2085" y="0" type="line"/>
      <point x="2085" y="355" type="line"/>
      <point x="1875" y="355" type="line"/>
      <point x="1875" y="158" type="line"/>
      <point x="1432" y="158" type="line"/>
      <point x="1432" y="526" type="line"/>
      <point x="1699" y="526" type="line"/>
      <point x="1699" y="425" type="line"/>
      <point x="1802" y="425" type="line"/>
      <point x="1802" y="792" type="line"/>
      <point x="1700" y="792" type="line"/>
      <point x="1700" y="703" type="line"/>
      <point x="1435" y="703" type="line"/>
      <point x="1435" y="992" type="line"/>
      <point x="1875" y="992" type="line"/>
      <point x="1875" y="800" type="line"/>
      <point x="2079" y="800" type="line"/>
      <point x="2079" y="1152" type="line"/>
      <point x="926" y="1152" type="line" smooth="yes"/>
      <point x="469" y="1153"/>
      <point x="202" y="958"/>
      <point x="201" y="592" type="curve" smooth="yes"/>
      <point x="202" y="207"/>
      <point x="470" y="0"/>
    </contour>
    <contour>
      <point x="909" y="158" type="line"/>
      <point x="660" y="156"/>
      <point x="507" y="317"/>
      <point x="506" y="588" type="curve" smooth="yes"/>
      <point x="507" y="842"/>
      <point x="673" y="991"/>
      <point x="914" y="992" type="curve" smooth="yes"/>
      <point x="1150" y="994" type="line"/>
      <point x="1150" y="161" type="line"/>
    </contour>
  </outline>
</glyph>
<glyph name="oe" format="1">
  <advance width="1650"/>
  <unicode hex="0153"/>
  <outline>
    <contour>
      <point x="515" y="-22" type="curve" smooth="yes"/>
      <point x="674" y="-22"/>
      <point x="782" y="48"/>
      <point x="843" y="133" type="curve"/>
      <point x="905" y="47"/>
      <point x="1021" y="-22"/>
      <point x="1191" y="-22" type="curve" smooth="yes"/>
      <point x="1346" y="-22"/>
      <point x="1474" y="29"/>
      <point x="1553" y="113" type="curve"/>
      <point x="1458" y="239" type="line"/>
      <point x="1390" y="183"/>
      <point x="1296" y="150"/>
      <point x="1211" y="150" type="curve" smooth="yes"/>
      <point x="1068" y="150"/>
      <point x="982" y="229"/>
      <point x="973" y="359" type="curve"/>
      <point x="1562" y="359" type="line"/>
      <point x="1562" y="632"/>
      <point x="1431" y="826"/>
      <point x="1168" y="826" type="curve" smooth="yes"/>
      <point x="1024" y="826"/>
      <point x="914" y="766"/>
      <point x="845" y="670" type="curve"/>
      <point x="775" y="770"/>
      <point x="654" y="826"/>
      <point x="520" y="826" type="curve" smooth="yes"/>
      <point x="253" y="826"/>
      <point x="73" y="652"/>
      <point x="73" y="406" type="curve" smooth="yes"/>
      <point x="73" y="155"/>
      <point x="245" y="-22"/>
    </contour>
    <contour>
      <point x="519" y="151" type="curve" smooth="yes"/>
      <point x="396" y="150"/>
      <point x="318" y="254"/>
      <point x="318" y="405" type="curve" smooth="yes"/>
      <point x="318" y="550"/>
      <point x="394" y="650"/>
      <point x="519" y="650" type="curve" smooth="yes"/>
      <point x="643" y="650"/>
      <point x="721" y="550"/>
      <point x="721" y="405" type="curve" smooth="yes"/>
      <point x="721" y="254"/>
      <point x="643" y="150"/>
    </contour>
    <contour>
      <point x="976" y="486" type="line"/>
      <point x="995" y="598"/>
      <point x="1061" y="670"/>
      <point x="1173" y="670" type="curve" smooth="yes"/>
      <point x="1284" y="670"/>
      <point x="1336" y="595"/>
      <point x="1345" y="486" type="curve"/>
    </contour>
  </outline>
</glyph>
<glyph name="Scommaaccent" format="1">
  <advance width="1060"/>
  <unicode hex="0218"/>
  <outline>
    <component base="S"/>
    <contour>
      <point x="472" y="-550" type="line"/>
      <point x="645" y="-550"/>
      <point x="735" y="-473"/>
      <point x="734" y="-331" type="curve"/>
      <point x="734" y="-99" type="line"/>
      <point x="472" y="-99" type="line"/>
      <point x="472" y="-321" type="line"/>
      <point x="607" y="-321" type="line"/>
      <point x="607" y="-401"/>
      <point x="562" y="-435"/>
      <point x="472" y="-450" type="curve"/>
    </contour>
  </outline>
</glyph>
<glyph name="scommaaccent" format="1">
  <advance width="883"/>
  <unicode hex="0219"/>
  <outline>
    <component base="s"/>
    <contour>
      <point x="361" y="-550" type="line"/>
      <point x="534" y="-550"/>
      <point x="624" y="-473"/>
      <point x="623" y="-331" type="curve"/>
      <point x="623" y="-99" type="line"/>
      <point x="361" y="-99" type="line"/>
      <point x="361" y="-321" type="line"/>
      <point x="496" y="-321" type="line"/>
      <point x="496" y="-401"/>
      <point x="451" y="-435"/>
      <point x="361" y="-450" type="curve"/>
    </contour>
  </outline>
</glyph>
<glyph name="uni0237" format="1">
  <advance width="587"/>
  <unicode hex="0237"/>
  <outline>
    <contour>
      <point x="319" y="804" type="move" name="top"/>
    </contour>
    <contour>
      <point x="-4" y="-344" type="line"/>
      <point x="98" y="-344" type="line" smooth="yes"/>
      <point x="494" y="-344"/>
      <point x="482" y="-100"/>
      <point x="482" y="120" type="curve" smooth="yes"/>
      <point x="482" y="804" type="line"/>
      <point x="68" y="804" type="line"/>
      <point x="68" y="636" type="line"/>
      <point x="228" y="636" type="line"/>
      <point x="228" y="23" type="line" smooth="yes"/>
      <point x="228" y="-116"/>
      <point x="187" y="-152"/>
      <point x="80" y="-152" type="curve" smooth="yes"/>
      <point x="-4" y="-152" type="line"/>
    </contour>
  </outline>
</glyph>
<glyph name="apostrophemod" format="1">
  <advance width="600"/>
  <unicode hex="02BC"/>
  <outline>
    <contour>
      <point x="71" y="894" type="line"/>
      <point x="244" y="894"/>
      <point x="334" y="971"/>
      <point x="333" y="1113" type="curve"/>
      <point x="333" y="1345" type="line"/>
      <point x="71" y="1345" type="line"/>
      <point x="71" y="1123" type="line"/>
      <point x="206" y="1123" type="line"/>
      <point x="206" y="1043"/>
      <point x="161" y="1009"/>
      <point x="71" y="994" type="curve"/>
    </contour>
  </outline>
</glyph>
<glyph name="circumflex" format="1">
  <advance width="730"/>
  <unicode hex="02C6"/>
  <outline>
    <contour>
      <point x="369" y="804" type="move" name="_top"/>
    </contour>
    <contour>
      <point x="67" y="920" type="line"/>
      <point x="229" y="920" type="line"/>
      <point x="364" y="1170" type="line"/>
      <point x="498" y="920" type="line"/>
      <point x="664" y="920" type="line"/>
      <point x="526" y="1263" type="line"/>
      <point x="201" y="1263" type="line"/>
    </contour>
  </outline>
</glyph>
<glyph name="caron" format="1">
  <advance width="711"/>
  <unicode hex="02C7"/>
  <outline>
    <contour>
      <point x="356" y="804" type="move" name="_top"/>
    </contour>
    <contour>
      <point x="225" y="918" type="line"/>
      <point x="487" y="918" type="line"/>
      <point x="638" y="1250" type="line"/>
      <point x="475" y="1250" type="line"/>
      <point x="357" y="1036" type="line"/>
      <point x="234" y="1250" type="line"/>
      <point x="64" y="1250" type="line"/>
    </contour>
  </outline>
</glyph>
<glyph name="breve" format="1">
  <advance width="692"/>
  <unicode hex="02D8"/>
  <outline>
    <contour>
      <point x="345" y="804" type="move" name="_top"/>
    </contour>
    <contour>
      <point x="343" y="907" type="curve" smooth="yes"/>
      <point x="514" y="907"/>
      <point x="623" y="1011"/>
      <point x="638" y="1184" type="curve"/>
      <point x="475" y="1184" type="line"/>
      <point x="466" y="1104"/>
      <point x="418" y="1060"/>
      <point x="345" y="1060" type="curve" smooth="yes"/>
      <point x="269" y="1060"/>
      <point x="223" y="1104"/>
      <point x="210" y="1184" type="curve"/>
      <point x="54" y="1184" type="line"/>
      <point x="65" y="1010"/>
      <point x="174" y="907"/>
    </contour>
  </outline>
</glyph>
<glyph name="dotaccent" format="1">
  <advance width="408"/>
  <unicode hex="02D9"/>
  <outline>
    <contour>
      <point x="206" y="804" type="move" name="_top"/>
    </contour>
    <contour>
      <point x="207" y="967" type="curve" smooth="yes"/>
      <point x="300" y="967"/>
      <point x="367" y="1030"/>
      <point x="367" y="1119" type="curve" smooth="yes"/>
      <point x="367" y="1206"/>
      <point x="300" y="1270"/>
      <point x="207" y="1270" type="curve" smooth="yes"/>
      <point x="116" y="1270"/>
      <point x="49" y="1206"/>
      <point x="49" y="1119" type="curve" smooth="yes"/>
      <point x="49" y="1030"/>
      <point x="116" y="967"/>
    </contour>
  </outline>
</glyph>
<glyph name="ring" format="1">
  <advance width="538"/>
  <unicode hex="02DA"/>
  <outline>
    <contour>
      <point x="267" y="804" type="move" name="_top"/>
    </contour>
    <contour>
      <point x="268" y="1167" type="move" name="top"/>
    </contour>
    <contour>
      <point x="269" y="985" type="curve" smooth="yes"/>
      <point x="209" y="985"/>
      <point x="176" y="1025"/>
      <point x="176" y="1077" type="curve" smooth="yes"/>
      <point x="176" y="1129"/>
      <point x="209" y="1169"/>
      <point x="269" y="1169" type="curve" smooth="yes"/>
      <point x="328" y="1169"/>
      <point x="362" y="1129"/>
      <point x="362" y="1077" type="curve" smooth="yes"/>
      <point x="362" y="1025"/>
      <point x="328" y="985"/>
    </contour>
    <contour>
      <point x="269" y="899" type="curve" smooth="yes"/>
      <point x="387" y="899"/>
      <point x="458" y="977"/>
      <point x="458" y="1078" type="curve" smooth="yes"/>
      <point x="458" y="1178"/>
      <point x="388" y="1253"/>
      <point x="269" y="1254" type="curve" smooth="yes"/>
      <point x="149" y="1253"/>
      <point x="80" y="1178"/>
      <point x="80" y="1078" type="curve" smooth="yes"/>
      <point x="80" y="977"/>
      <point x="151" y="899"/>
    </contour>
  </outline>
</glyph>
<glyph name="ogonek" format="1">
  <advance width="375"/>
  <unicode hex="02DB"/>
  <outline>
    <contour>
      <point x="199" y="0" type="move" name="_ogonek"/>
    </contour>
    <contour>
      <point x="256" y="-376" type="curve" smooth="yes"/>
      <point x="305" y="-376"/>
      <point x="344" y="-365"/>
      <point x="403" y="-338" type="curve"/>
      <point x="403" y="-219" type="line"/>
      <point x="374" y="-230"/>
      <point x="350" y="-235"/>
      <point x="323" y="-235" type="curve" smooth="yes"/>
      <point x="251" y="-235"/>
      <point x="214" y="-195"/>
      <point x="214" y="-126" type="curve" smooth="yes"/>
      <point x="214" y="-89"/>
      <point x="225" y="-42"/>
      <point x="263" y="9" type="curve"/>
      <point x="149" y="9" type="line"/>
      <point x="92" y="-68"/>
      <point x="71" y="-136"/>
      <point x="71" y="-196" type="curve" smooth="yes"/>
      <point x="71" y="-301"/>
      <point x="144" y="-376"/>
    </contour>
  </outline>
</glyph>
<glyph name="tilde" format="1">
  <advance width="781"/>
  <unicode hex="02DC"/>
  <outline>
    <contour>
      <point x="395" y="804" type="move" name="_top"/>
    </contour>
    <contour>
      <point x="554" y="905" type="curve" smooth="yes"/>
      <point x="678" y="904"/>
      <point x="725" y="1010"/>
      <point x="737" y="1153" type="curve"/>
      <point x="629" y="1153" type="line"/>
      <point x="619" y="1105"/>
      <point x="595" y="1086"/>
      <point x="561" y="1086" type="curve" smooth="yes"/>
      <point x="488" y="1086"/>
      <point x="349" y="1168"/>
      <point x="247" y="1168" type="curve" smooth="yes"/>
      <point x="146" y="1168"/>
      <point x="65" y="1102"/>
      <point x="51" y="923" type="curve"/>
      <point x="161" y="923" type="line"/>
      <point x="168" y="971"/>
      <point x="194" y="987"/>
      <point x="228" y="987" type="curve" smooth="yes"/>
      <point x="317" y="987"/>
      <point x="460" y="905"/>
    </contour>
  </outline>
</glyph>
<glyph name="hungarumlaut" format="1">
  <advance width="908"/>
  <unicode hex="02DD"/>
  <outline>
    <contour>
      <point x="357" y="804" type="move" name="_top"/>
    </contour>
    <contour>
      <point x="120" y="953" type="line"/>
      <point x="273" y="953" type="line"/>
      <point x="486" y="1291" type="line"/>
      <point x="227" y="1291" type="line"/>
    </contour>
    <contour>
      <point x="480" y="953" type="line"/>
      <point x="633" y="953" type="line"/>
      <point x="846" y="1291" type="line"/>
      <point x="587" y="1291" type="line"/>
    </contour>
  </outline>
</glyph>
<glyph name="uni0307" format="1">
  <advance width="535"/>
  <unicode hex="0307"/>
  <outline>
    <contour>
      <point x="270" y="805" type="move" name="_top"/>
    </contour>
    <contour>
      <point x="268" y="917" type="curve" smooth="yes"/>
      <point x="346" y="917"/>
      <point x="395" y="972"/>
      <point x="394" y="1038" type="curve"/>
      <point x="394" y="1113"/>
      <point x="338" y="1158"/>
      <point x="268" y="1158" type="curve" smooth="yes"/>
      <point x="198.605" y="1158"/>
      <point x="141.987" y="1108.86"/>
      <point x="141.987" y="1039.81" type="curve" smooth="yes"/>
      <point x="141.987" y="970.534"/>
      <point x="197.87" y="917"/>
    </contour>
  </outline>
</glyph>
<glyph name="dblgravecmb" format="1">
  <advance width="699"/>
  <unicode hex="030F"/>
  <outline>
    <contour>
      <point x="456" y="804" type="move" name="_top"/>
    </contour>
    <contour>
      <point x="193" y="962" type="line"/>
      <point x="332" y="962" type="line"/>
      <point x="218" y="1290" type="line"/>
      <point x="-22" y="1290" type="line"/>
    </contour>
    <contour>
      <point x="529" y="962" type="line"/>
      <point x="668" y="962" type="line"/>
      <point x="554" y="1290" type="line"/>
      <point x="314" y="1290" type="line"/>
    </contour>
  </outline>
</glyph>
<glyph name="uni0311" format="1">
  <advance width="584"/>
  <unicode hex="0311"/>
  <outline>
    <contour>
      <point x="290" y="831" type="move" name="_top"/>
    </contour>
    <contour>
      <point x="-17" y="934" type="curve"/>
      <point x="157" y="934" type="line"/>
      <point x="169" y="1010"/>
      <point x="213" y="1052"/>
      <point x="286" y="1052" type="curve" smooth="yes"/>
      <point x="356" y="1052"/>
      <point x="402" y="1010"/>
      <point x="410" y="934" type="curve"/>
      <point x="591" y="934" type="line"/>
      <point x="575" y="1114"/>
      <point x="462" y="1223"/>
      <point x="284" y="1223" type="curve" smooth="yes"/>
      <point x="108" y="1223"/>
      <point x="-5" y="1115"/>
    </contour>
  </outline>
</glyph>
<glyph name="uni0326" format="1">
  <advance width="451"/>
  <unicode hex="0326"/>
  <outline>
    <contour>
      <point x="239" y="0" type="move" name="_bot"/>
    </contour>
    <contour>
      <point x="105" y="-593" type="line"/>
      <point x="310" y="-592"/>
      <point x="390" y="-524"/>
      <point x="389" y="-332" type="curve"/>
      <point x="389" y="-294"/>
      <point x="387" y="-130"/>
      <point x="383" y="-101" type="curve"/>
      <point x="102" y="-101" type="line"/>
      <point x="104" y="-352" type="line"/>
      <point x="255" y="-352" type="line"/>
      <point x="255" y="-446"/>
      <point x="203" y="-483"/>
      <point x="105" y="-497" type="curve"/>
    </contour>
  </outline>
</glyph>
<glyph name="Sigma" format="1">
  <advance width="998"/>
  <unicode hex="03A3"/>
  <outline>
    <contour>
      <point x="72" y="0" type="line"/>
      <point x="937" y="0" type="line"/>
      <point x="937" y="168" type="line"/>
      <point x="385" y="168" type="line"/>
      <point x="776" y="567" type="line"/>
      <point x="390" y="989" type="line"/>
      <point x="903" y="989" type="line"/>
      <point x="903" y="1152" type="line"/>
      <point x="89" y="1152" type="line"/>
      <point x="89" y="1045" type="line"/>
      <point x="481" y="575" type="line"/>
      <point x="72" y="117" type="line"/>
    </contour>
  </outline>
</glyph>
<glyph name="Sigma" format="1">
  <advance width="1039"/>
  <unicode hex="03A3"/>
  <outline>
    <contour>
      <point x="75" y="0" type="line"/>
      <point x="970" y="0" type="line"/>
      <point x="970" y="180" type="line"/>
      <point x="437" y="180" type="line"/>
      <point x="797" y="565" type="line"/>
      <point x="430" y="976" type="line"/>
      <point x="936" y="976" type="line"/>
      <point x="936" y="1152" type="line"/>
      <point x="92" y="1152" type="line"/>
      <point x="92" y="1031" type="line"/>
      <point x="458" y="585" type="line"/>
      <point x="75" y="141" type="line"/>
    </contour>
  </outline>
</glyph>
<glyph name="pi" format="1">
  <advance width="1244"/>
  <unicode hex="03C0"/>
  <outline>
    <contour>
      <point x="933" y="-20" type="curve" smooth="yes"/>
      <point x="1001" y="-20"/>
      <point x="1072" y="4"/>
      <point x="1112" y="36" type="curve"/>
      <point x="1112" y="152" type="line"/>
      <point x="1065" y="137"/>
      <point x="1029" y="129"/>
      <point x="998" y="129" type="curve" smooth="yes"/>
      <point x="942" y="129"/>
      <point x="902" y="154"/>
      <point x="902" y="240" type="curve" smooth="yes"/>
      <point x="902" y="321"/>
      <point x="907" y="443"/>
      <point x="920" y="592" type="curve"/>
      <point x="1115" y="592" type="line"/>
      <point x="1115" y="804" type="line"/>
      <point x="396" y="804" type="line" smooth="yes"/>
      <point x="197" y="804"/>
      <point x="119" y="657"/>
      <point x="121" y="492" type="curve"/>
      <point x="234" y="492" type="line"/>
      <point x="244" y="556"/>
      <point x="281" y="592"/>
      <point x="328" y="592" type="curve" smooth="yes"/>
      <point x="401" y="592" type="line"/>
      <point x="343" y="307" type="line" smooth="yes"/>
      <point x="309" y="144"/>
      <point x="230" y="104"/>
      <point x="150" y="96" type="curve"/>
      <point x="150" y="-2" type="line"/>
      <point x="274" y="-2" type="line" smooth="yes"/>
      <point x="446" y="-2"/>
      <point x="529" y="81"/>
      <point x="542" y="246" type="curve" smooth="yes"/>
      <point x="569" y="592" type="line"/>
      <point x="773" y="592" type="line"/>
      <point x="729" y="440"/>
      <point x="689" y="307"/>
      <point x="689" y="197" type="curve" smooth="yes"/>
      <point x="689" y="71"/>
      <point x="747" y="-20"/>
    </contour>
  </outline>
</glyph>
<glyph name="endash" format="1">
  <advance width="1166"/>
  <unicode hex="2013"/>
  <outline>
    <contour>
      <point x="147" y="231" type="line"/>
      <point x="1020" y="231" type="line"/>
      <point x="1020" y="359" type="line"/>
      <point x="147" y="359" type="line"/>
    </contour>
  </outline>
</glyph>
<glyph name="quoteleft" format="1">
  <advance width="581"/>
  <unicode hex="2018"/>
  <outline>
    <contour>
      <point x="151" y="716" type="line"/>
      <point x="397" y="716" type="line"/>
      <point x="397" y="961" type="line"/>
      <point x="281" y="961" type="line"/>
      <point x="282" y="1058"/>
      <point x="307" y="1091"/>
      <point x="385" y="1100" type="curve"/>
      <point x="385" y="1209" type="line"/>
      <point x="201" y="1209"/>
      <point x="151" y="1089"/>
      <point x="151" y="954" type="curve" smooth="yes"/>
    </contour>
  </outline>
</glyph>
<glyph name="quoteright" format="1">
  <advance width="585"/>
  <unicode hex="2019"/>
  <outline>
    <contour>
      <point x="189" y="696" type="line"/>
      <point x="373" y="697"/>
      <point x="423" y="817"/>
      <point x="423" y="953" type="curve" smooth="yes"/>
      <point x="423" y="1190" type="line"/>
      <point x="176" y="1190" type="line"/>
      <point x="176" y="946" type="line"/>
      <point x="294" y="946" type="line"/>
      <point x="292" y="848"/>
      <point x="268" y="815"/>
      <point x="189" y="806" type="curve"/>
    </contour>
  </outline>
</glyph>
<glyph name="quotesinglbase" format="1">
  <advance width="579"/>
  <unicode hex="201A"/>
  <outline>
    <contour>
      <point x="188" y="-257" type="line"/>
      <point x="371" y="-256"/>
      <point x="421" y="-136"/>
      <point x="421" y="-1" type="curve" smooth="yes"/>
      <point x="421" y="237" type="line"/>
      <point x="175" y="237" type="line"/>
      <point x="175" y="-7" type="line"/>
      <point x="292" y="-7" type="line"/>
      <point x="290" y="-106"/>
      <point x="266" y="-139"/>
      <point x="188" y="-147" type="curve"/>
    </contour>
  </outline>
</glyph>
<glyph name="quotedblleft" format="1">
  <advance width="947"/>
  <unicode hex="201C"/>
  <outline>
    <contour>
      <point x="165" y="716" type="line"/>
      <point x="412" y="716" type="line"/>
      <point x="412" y="961" type="line"/>
      <point x="295" y="961" type="line"/>
      <point x="296" y="1058"/>
      <point x="322" y="1091"/>
      <point x="399" y="1100" type="curve"/>
      <point x="399" y="1209" type="line"/>
      <point x="216" y="1209"/>
      <point x="165" y="1089"/>
      <point x="165" y="954" type="curve" smooth="yes"/>
    </contour>
    <contour>
      <point x="515" y="716" type="line"/>
      <point x="761" y="716" type="line"/>
      <point x="761" y="961" type="line"/>
      <point x="645" y="961" type="line"/>
      <point x="646" y="1058"/>
      <point x="671" y="1091"/>
      <point x="749" y="1100" type="curve"/>
      <point x="749" y="1209" type="line"/>
      <point x="565" y="1209"/>
      <point x="515" y="1089"/>
      <point x="515" y="954" type="curve" smooth="yes"/>
    </contour>
  </outline>
</glyph>
<glyph name="quotedblright" format="1">
  <advance width="984"/>
  <unicode hex="201D"/>
  <outline>
    <contour>
      <point x="189" y="696" type="line"/>
      <point x="373" y="697"/>
      <point x="423" y="817"/>
      <point x="423" y="953" type="curve" smooth="yes"/>
      <point x="423" y="1190" type="line"/>
      <point x="176" y="1190" type="line"/>
      <point x="176" y="946" type="line"/>
      <point x="294" y="946" type="line"/>
      <point x="292" y="848"/>
      <point x="268" y="815"/>
      <point x="189" y="806" type="curve"/>
    </contour>
    <contour>
      <point x="535" y="696" type="line"/>
      <point x="718" y="697"/>
      <point x="768" y="817"/>
      <point x="768" y="953" type="curve" smooth="yes"/>
      <point x="768" y="1190" type="line"/>
      <point x="522" y="1190" type="line"/>
      <point x="522" y="946" type="line"/>
      <point x="639" y="946" type="line"/>
      <point x="637" y="848"/>
      <point x="613" y="815"/>
      <point x="535" y="806" type="curve"/>
    </contour>
  </outline>
</glyph>
<glyph name="quotedblbase" format="1">
  <advance width="930"/>
  <unicode hex="201E"/>
  <outline>
    <contour>
      <point x="180" y="-249" type="line"/>
      <point x="346" y="-248"/>
      <point x="397" y="-149"/>
      <point x="397" y="-6" type="curve" smooth="yes"/>
      <point x="397" y="216" type="line"/>
      <point x="177" y="216" type="line"/>
      <point x="177" y="-10" type="line"/>
      <point x="280" y="-10" type="line"/>
      <point x="278" y="-103"/>
      <point x="254" y="-135"/>
      <point x="180" y="-147" type="curve"/>
    </contour>
    <contour>
      <point x="549" y="-249" type="line"/>
      <point x="715" y="-248"/>
      <point x="766" y="-149"/>
      <point x="766" y="-6" type="curve" smooth="yes"/>
      <point x="766" y="216" type="line"/>
      <point x="545" y="216" type="line"/>
      <point x="545" y="-10" type="line"/>
      <point x="648" y="-10" type="line"/>
      <point x="647" y="-103"/>
      <point x="623" y="-135"/>
      <point x="549" y="-147" type="curve"/>
    </contour>
  </outline>
</glyph>
<glyph name="daggerdbl" format="1">
  <advance width="802"/>
  <unicode hex="2021"/>
  <outline>
    <contour>
      <point x="296" y="-227" type="line"/>
      <point x="509" y="-227" type="line"/>
      <point x="445" y="37" type="line"/>
      <point x="743" y="-6" type="line"/>
      <point x="743" y="189" type="line"/>
      <point x="465" y="141" type="line"/>
      <point x="452" y="506" type="line"/>
      <point x="465" y="865" type="line"/>
      <point x="743" y="818" type="line"/>
      <point x="743" y="1012" type="line"/>
      <point x="445" y="969" type="line"/>
      <point x="509" y="1233" type="line"/>
      <point x="296" y="1233" type="line"/>
      <point x="357" y="969" type="line"/>
      <point x="59" y="1012" type="line"/>
      <point x="59" y="818" type="line"/>
      <point x="337" y="865" type="line"/>
      <point x="349" y="508" type="line"/>
      <point x="337" y="141" type="line"/>
      <point x="59" y="189" type="line"/>
      <point x="59" y="-6" type="line"/>
      <point x="357" y="37" type="line"/>
    </contour>
  </outline>
</glyph>
<glyph name="perthousand" format="1">
  <advance width="2622"/>
  <unicode hex="2030"/>
  <outline>
    <contour>
      <point x="2183" y="109" type="curve" smooth="yes"/>
      <point x="2094" y="110"/>
      <point x="2032" y="181"/>
      <point x="2032" y="282" type="curve" smooth="yes"/>
      <point x="2032" y="383"/>
      <point x="2094" y="452"/>
      <point x="2183" y="454" type="curve" smooth="yes"/>
      <point x="2273" y="452"/>
      <point x="2335" y="383"/>
      <point x="2335" y="282" type="curve" smooth="yes"/>
      <point x="2335" y="181"/>
      <point x="2273" y="110"/>
    </contour>
    <contour>
      <point x="2183" y="-22" type="curve" smooth="yes"/>
      <point x="2368" y="-22"/>
      <point x="2501" y="105"/>
      <point x="2501" y="282" type="curve" smooth="yes"/>
      <point x="2501" y="457"/>
      <point x="2368" y="582"/>
      <point x="2183" y="582" type="curve" smooth="yes"/>
      <point x="1998" y="582"/>
      <point x="1866" y="457"/>
      <point x="1866" y="282" type="curve" smooth="yes"/>
      <point x="1866" y="105"/>
      <point x="1998" y="-22"/>
    </contour>
    <component base="percent"/>
  </outline>
</glyph>
<glyph name="guilsinglleft" format="1">
  <advance width="744"/>
  <unicode hex="2039"/>
  <outline>
    <contour>
      <point x="405" y="126" type="line"/>
      <point x="592" y="126" type="line"/>
      <point x="372" y="555" type="line"/>
      <point x="592" y="987" type="line"/>
      <point x="405" y="987" type="line"/>
      <point x="83" y="554" type="line"/>
    </contour>
  </outline>
</glyph>
<glyph name="guilsinglright" format="1">
  <advance width="744"/>
  <unicode hex="203A"/>
  <outline>
    <contour>
      <point x="165" y="126" type="line"/>
      <point x="352" y="126" type="line"/>
      <point x="674" y="560" type="line"/>
      <point x="352" y="987" type="line"/>
      <point x="165" y="987" type="line"/>
      <point x="384" y="558" type="line"/>
    </contour>
  </outline>
</glyph>
<glyph name="Euro" format="1">
  <advance width="1365"/>
  <unicode hex="20AC"/>
  <outline>
    <component base="C"/>
    <contour>
      <point x="-23" y="395" type="line"/>
      <point x="618" y="395" type="line"/>
      <point x="658" y="516" type="line"/>
      <point x="252" y="516" type="line"/>
      <point x="252" y="634" type="line"/>
      <point x="618" y="634" type="line"/>
      <point x="658" y="755" type="line"/>
      <point x="17" y="755" type="line"/>
      <point x="-23" y="634" type="line"/>
      <point x="180" y="634" type="line"/>
      <point x="180" y="516" type="line"/>
      <point x="17" y="516" type="line"/>
    </contour>
  </outline>
</glyph>
<glyph name="Euro" format="1">
  <advance width="1402"/>
  <unicode hex="20AC"/>
  <outline>
    <contour>
      <point x="-21" y="395" type="line"/>
      <point x="642" y="395" type="line"/>
      <point x="682" y="516" type="line"/>
      <point x="276" y="516" type="line"/>
      <point x="276" y="634" type="line"/>
      <point x="642" y="634" type="line"/>
      <point x="682" y="755" type="line"/>
      <point x="19" y="755" type="line"/>
      <point x="-21" y="634" type="line"/>
      <point x="204" y="634" type="line"/>
      <point x="204" y="516" type="line"/>
      <point x="19" y="516" type="line"/>
    </contour>
    <component base="C"/>
  </outline>
</glyph>
<glyph name="uni2113" format="1">
  <advance width="728"/>
  <unicode hex="2113"/>
  <outline>
    <contour>
      <point x="614" y="-8" type="curve"/>
      <point x="637" y="148" type="line"/>
      <point x="487.737" y="148"/>
      <point x="444.127" y="173.039"/>
      <point x="444.127" y="267.026" type="curve" smooth="yes"/>
      <point x="444.127" y="293.307"/>
      <point x="447.537" y="324.978"/>
      <point x="453" y="363" type="curve" smooth="yes"/>
      <point x="585" y="1208" type="line"/>
      <point x="205" y="1208" type="line"/>
      <point x="179" y="1047" type="line"/>
      <point x="334" y="1047" type="line"/>
      <point x="214" y="274" type="line" smooth="yes"/>
      <point x="211.033" y="254.758"/>
      <point x="209.59" y="236.737"/>
      <point x="209.59" y="219.871" type="curve" smooth="yes"/>
      <point x="209.59" y="41.0808"/>
      <point x="371.789" y="-8.05032"/>
      <point x="601.152" y="-8.05032" type="curve" smooth="yes"/>
      <point x="605.412" y="-8.05032"/>
      <point x="609.695" y="-8.03337"/>
    </contour>
  </outline>
</glyph>
<glyph name="trademark" format="1">
  <advance width="1836"/>
  <unicode hex="2122"/>
  <outline>
    <contour>
      <point x="814" y="473" type="line"/>
      <point x="1097" y="473" type="line"/>
      <point x="1097" y="575" type="line"/>
      <point x="1013" y="575" type="line"/>
      <point x="1013" y="994" type="line"/>
      <point x="1218" y="492" type="line"/>
      <point x="1284" y="492" type="line"/>
      <point x="1483" y="993" type="line"/>
      <point x="1483" y="575" type="line"/>
      <point x="1400" y="575" type="line"/>
      <point x="1400" y="473" type="line"/>
      <point x="1707" y="473" type="line"/>
      <point x="1707" y="575" type="line"/>
      <point x="1622" y="575" type="line"/>
      <point x="1622" y="1051" type="line"/>
      <point x="1707" y="1051" type="line"/>
      <point x="1707" y="1152" type="line"/>
      <point x="1428" y="1152" type="line"/>
      <point x="1253" y="721" type="line"/>
      <point x="1082" y="1152" type="line"/>
      <point x="814" y="1152" type="line"/>
      <point x="814" y="1051" type="line"/>
      <point x="899" y="1051" type="line"/>
      <point x="899" y="575" type="line"/>
      <point x="814" y="575" type="line"/>
    </contour>
    <contour>
      <point x="268" y="473" type="line"/>
      <point x="619" y="473" type="line"/>
      <point x="619" y="575" type="line"/>
      <point x="520" y="575" type="line"/>
      <point x="520" y="1051" type="line"/>
      <point x="625" y="1051" type="line"/>
      <point x="625" y="879" type="line"/>
      <point x="741" y="879" type="line"/>
      <point x="741" y="1152" type="line"/>
      <point x="145" y="1152" type="line"/>
      <point x="145" y="879" type="line"/>
      <point x="261" y="879" type="line"/>
      <point x="261" y="1051" type="line"/>
      <point x="369" y="1051" type="line"/>
      <point x="369" y="575" type="line"/>
      <point x="268" y="575" type="line"/>
    </contour>
  </outline>
</glyph>
<glyph name="Omega" format="1">
  <advance width="1447"/>
  <unicode hex="2126"/>
  <outline>
    <contour>
      <point x="93" y="0" type="line"/>
      <point x="655" y="0" type="line"/>
      <point x="655" y="156" type="line"/>
      <point x="443" y="236"/>
      <point x="356" y="436"/>
      <point x="356" y="614" type="curve" smooth="yes"/>
      <point x="356" y="822"/>
      <point x="485" y="984"/>
      <point x="723" y="984" type="curve" smooth="yes"/>
      <point x="961" y="984"/>
      <point x="1090" y="821"/>
      <point x="1090" y="613" type="curve" smooth="yes"/>
      <point x="1090" y="436"/>
      <point x="1004" y="236"/>
      <point x="792" y="156" type="curve"/>
      <point x="792" y="0" type="line"/>
      <point x="1354" y="0" type="line"/>
      <point x="1354" y="169" type="line"/>
      <point x="1085" y="169" type="line"/>
      <point x="1272" y="281"/>
      <point x="1354" y="453"/>
      <point x="1354" y="626" type="curve" smooth="yes"/>
      <point x="1354" y="911"/>
      <point x="1120" y="1174"/>
      <point x="723" y="1174" type="curve" smooth="yes"/>
      <point x="329" y="1174"/>
      <point x="93" y="910"/>
      <point x="93" y="624" type="curve" smooth="yes"/>
      <point x="93" y="452"/>
      <point x="176" y="281"/>
      <point x="363" y="169" type="curve"/>
      <point x="93" y="169" type="line"/>
    </contour>
  </outline>
</glyph>
<glyph name="estimated" format="1">
  <advance width="1115"/>
  <unicode hex="212E"/>
  <outline>
    <contour>
      <point x="976" y="113" type="curve"/>
      <point x="947" y="154" type="line"/>
      <point x="632" y="-60"/>
      <point x="379" y="61"/>
      <point x="354" y="401" type="curve"/>
      <point x="967" y="401" type="line"/>
      <point x="967" y="657"/>
      <point x="862" y="826"/>
      <point x="580" y="826" type="curve" smooth="yes"/>
      <point x="312" y="826"/>
      <point x="134" y="664"/>
      <point x="134" y="420" type="curve" smooth="yes"/>
      <point x="134" y="-40"/>
      <point x="686" y="-133"/>
    </contour>
    <contour>
      <point x="356" y="461" type="line"/>
      <point x="364" y="884"/>
      <point x="848" y="901"/>
      <point x="848" y="461" type="curve"/>
    </contour>
  </outline>
</glyph>
<glyph name="partialdiff" format="1">
  <advance width="999"/>
  <unicode hex="2202"/>
  <outline>
    <contour>
      <point x="401" y="-20" type="curve" smooth="yes"/>
      <point x="782" y="-20"/>
      <point x="912" y="428"/>
      <point x="912" y="728" type="curve" smooth="yes"/>
      <point x="912" y="1039"/>
      <point x="776" y="1237"/>
      <point x="496" y="1237" type="curve" smooth="yes"/>
      <point x="316" y="1237"/>
      <point x="213" y="1158"/>
      <point x="213" y="1050" type="curve" smooth="yes"/>
      <point x="213" y="983"/>
      <point x="275" y="925"/>
      <point x="443" y="933" type="curve"/>
      <point x="440" y="1021"/>
      <point x="494" y="1111"/>
      <point x="588" y="1111" type="curve" smooth="yes"/>
      <point x="712" y="1111"/>
      <point x="775" y="852"/>
      <point x="759" y="638" type="curve"/>
      <point x="808" y="641" type="line"/>
      <point x="774" y="717"/>
      <point x="695" y="778"/>
      <point x="561" y="778" type="curve" smooth="yes"/>
      <point x="215" y="778"/>
      <point x="87" y="464"/>
      <point x="87" y="284" type="curve" smooth="yes"/>
      <point x="87" y="131"/>
      <point x="164" y="-20"/>
    </contour>
    <contour>
      <point x="487" y="117" type="curve" smooth="yes"/>
      <point x="422" y="117"/>
      <point x="385" y="176"/>
      <point x="384" y="272" type="curve" smooth="yes"/>
      <point x="384" y="415"/>
      <point x="460" y="657"/>
      <point x="611" y="657" type="curve" smooth="yes"/>
      <point x="666" y="657"/>
      <point x="723" y="628"/>
      <point x="749" y="541" type="curve"/>
      <point x="713" y="297"/>
      <point x="596" y="117"/>
    </contour>
  </outline>
</glyph>
<glyph name="Delta" format="1">
  <advance width="1302"/>
  <unicode hex="2206"/>
  <outline>
    <contour>
      <point x="90" y="0" type="line"/>
      <point x="1209" y="0" type="line"/>
      <point x="1209" y="148" type="line"/>
      <point x="797" y="1163" type="line"/>
      <point x="531" y="1163" type="line"/>
      <point x="90" y="140" type="line"/>
    </contour>
    <contour>
      <point x="298" y="178" type="line"/>
      <point x="298" y="178"/>
      <point x="596" y="924"/>
      <point x="606" y="972" type="curve"/>
      <point x="617" y="924"/>
      <point x="886" y="178"/>
      <point x="886" y="178" type="curve"/>
    </contour>
  </outline>
</glyph>
<glyph name="uni2206" format="1">
  <advance width="1216"/>
  <unicode hex="2206"/>
  <outline>
    <contour>
      <point x="87" y="0" type="line"/>
      <point x="1126" y="0" type="line"/>
      <point x="1126" y="130" type="line"/>
      <point x="740" y="1167" type="line"/>
      <point x="493" y="1167" type="line"/>
      <point x="87" y="120" type="line"/>
    </contour>
    <contour>
      <point x="257" y="149" type="line"/>
      <point x="257" y="149"/>
      <point x="543" y="931"/>
      <point x="557" y="997" type="curve"/>
      <point x="573" y="930"/>
      <point x="845" y="149"/>
      <point x="845" y="149" type="curve"/>
    </contour>
  </outline>
</glyph>
<glyph name="product" format="1">
  <advance width="1517"/>
  <unicode hex="220F"/>
  <outline>
    <contour>
      <point x="90" y="0" type="line"/>
      <point x="676" y="0" type="line"/>
      <point x="676" y="169" type="line"/>
      <point x="523" y="169" type="line"/>
      <point x="523" y="984" type="line"/>
      <point x="994" y="984" type="line"/>
      <point x="994" y="169" type="line"/>
      <point x="841" y="169" type="line"/>
      <point x="841" y="0" type="line"/>
      <point x="1427" y="0" type="line"/>
      <point x="1427" y="169" type="line"/>
      <point x="1278" y="169" type="line"/>
      <point x="1278" y="984" type="line"/>
      <point x="1427" y="984" type="line"/>
      <point x="1427" y="1152" type="line"/>
      <point x="90" y="1152" type="line"/>
      <point x="90" y="984" type="line"/>
      <point x="239" y="984" type="line"/>
      <point x="239" y="169" type="line"/>
      <point x="90" y="169" type="line"/>
    </contour>
  </outline>
</glyph>
<glyph name="summation" format="1">
  <advance width="1307"/>
  <unicode hex="2211"/>
  <outline>
    <contour>
      <point x="94" y="0" type="line"/>
      <point x="1177" y="0" type="line"/>
      <point x="1177" y="385" type="line"/>
      <point x="969" y="385" type="line"/>
      <point x="969" y="169" type="line"/>
      <point x="466" y="169" type="line"/>
      <point x="797" y="540" type="line"/>
      <point x="796" y="636" type="line"/>
      <point x="529" y="984" type="line"/>
      <point x="967" y="984" type="line"/>
      <point x="967" y="788" type="line"/>
      <point x="1172" y="788" type="line"/>
      <point x="1172" y="1152" type="line"/>
      <point x="94" y="1152" type="line"/>
      <point x="94" y="984" type="line"/>
      <point x="255" y="984" type="line"/>
      <point x="582" y="549" type="line"/>
      <point x="255" y="169" type="line"/>
      <point x="94" y="169" type="line"/>
    </contour>
  </outline>
</glyph>
<glyph name="radical" format="1">
  <advance width="1263"/>
  <unicode hex="221A"/>
  <outline>
    <contour>
      <point x="465" y="-8" type="line"/>
      <point x="662" y="-8" type="line"/>
      <point x="1172" y="1329" type="line"/>
      <point x="1031" y="1329" type="line"/>
      <point x="595" y="200" type="line"/>
      <point x="422" y="617" type="line"/>
      <point x="71" y="617" type="line"/>
      <point x="71" y="494" type="line"/>
      <point x="237" y="494" type="line"/>
    </contour>
  </outline>
</glyph>
<glyph name="infinity" format="1">
  <advance width="1639"/>
  <unicode hex="221E"/>
  <outline>
    <contour>
      <point x="1169" y="137" type="curve" smooth="yes"/>
      <point x="1382" y="137"/>
      <point x="1501" y="329"/>
      <point x="1501" y="528" type="curve" smooth="yes"/>
      <point x="1501" y="754"/>
      <point x="1380" y="918"/>
      <point x="1171" y="918" type="curve" smooth="yes"/>
      <point x="1031" y="918"/>
      <point x="928" y="844"/>
      <point x="839" y="687" type="curve"/>
      <point x="744" y="857"/>
      <point x="612" y="924"/>
      <point x="473" y="924" type="curve" smooth="yes"/>
      <point x="272" y="924"/>
      <point x="137" y="756"/>
      <point x="137" y="534" type="curve" smooth="yes"/>
      <point x="137" y="286"/>
      <point x="289" y="143"/>
      <point x="473" y="143" type="curve" smooth="yes"/>
      <point x="600" y="143"/>
      <point x="715" y="228"/>
      <point x="798" y="379" type="curve"/>
      <point x="905" y="212"/>
      <point x="1034" y="137"/>
    </contour>
    <contour>
      <point x="482" y="303" type="curve" smooth="yes"/>
      <point x="354" y="303"/>
      <point x="297" y="411"/>
      <point x="297" y="531" type="curve" smooth="yes"/>
      <point x="297" y="669"/>
      <point x="376" y="764"/>
      <point x="478" y="764" type="curve" smooth="yes"/>
      <point x="579" y="764"/>
      <point x="647" y="690"/>
      <point x="716" y="534" type="curve"/>
      <point x="646" y="378"/>
      <point x="569" y="303"/>
    </contour>
    <contour>
      <point x="1158" y="297" type="curve" smooth="yes"/>
      <point x="1060" y="297"/>
      <point x="987" y="379"/>
      <point x="922" y="528" type="curve"/>
      <point x="999" y="686"/>
      <point x="1066" y="759"/>
      <point x="1156" y="759" type="curve" smooth="yes"/>
      <point x="1268" y="759"/>
      <point x="1344" y="657"/>
      <point x="1344" y="530" type="curve" smooth="yes"/>
      <point x="1344" y="407"/>
      <point x="1274" y="297"/>
    </contour>
  </outline>
</glyph>
<glyph name="integral" format="1">
  <advance width="990"/>
  <unicode hex="222B"/>
  <outline>
    <contour>
      <point x="277" y="-319" type="curve" smooth="yes"/>
      <point x="601" y="-319"/>
      <point x="626" y="49"/>
      <point x="626" y="386" type="curve" smooth="yes"/>
      <point x="626" y="567"/>
      <point x="595" y="782"/>
      <point x="595" y="901" type="curve" smooth="yes"/>
      <point x="595" y="1070"/>
      <point x="616" y="1119"/>
      <point x="663" y="1119" type="curve" smooth="yes"/>
      <point x="706" y="1119"/>
      <point x="727" y="1066"/>
      <point x="727" y="963" type="curve"/>
      <point x="886" y="963"/>
      <point x="928" y="1025"/>
      <point x="928" y="1083" type="curve" smooth="yes"/>
      <point x="928" y="1154"/>
      <point x="851" y="1209"/>
      <point x="701" y="1209" type="curve" smooth="yes"/>
      <point x="375" y="1209"/>
      <point x="343" y="871"/>
      <point x="343" y="578" type="curve" smooth="yes"/>
      <point x="343" y="404"/>
      <point x="383" y="152"/>
      <point x="383" y="-10" type="curve" smooth="yes"/>
      <point x="383" y="-181"/>
      <point x="355" y="-229"/>
      <point x="316" y="-229" type="curve" smooth="yes"/>
      <point x="272" y="-229"/>
      <point x="245" y="-190"/>
      <point x="245" y="-66" type="curve"/>
      <point x="86" y="-66"/>
      <point x="44" y="-125"/>
      <point x="44" y="-182" type="curve" smooth="yes"/>
      <point x="44" y="-253"/>
      <point x="114" y="-319"/>
    </contour>
  </outline>
</glyph>
<glyph name="approxequal" format="1">
  <advance width="1247"/>
  <unicode hex="2248"/>
  <outline>
    <contour>
      <point x="171" y="359" type="line"/>
      <point x="228" y="421"/>
      <point x="320" y="475"/>
      <point x="398" y="475" type="curve" smooth="yes"/>
      <point x="459" y="475"/>
      <point x="504" y="462"/>
      <point x="599" y="421" type="curve" smooth="yes"/>
      <point x="728" y="366"/>
      <point x="771" y="356"/>
      <point x="846" y="356" type="curve" smooth="yes"/>
      <point x="944" y="356"/>
      <point x="1022" y="389"/>
      <point x="1094" y="470" type="curve"/>
      <point x="1094" y="649" type="line"/>
      <point x="1036" y="589"/>
      <point x="946" y="533"/>
      <point x="867" y="533" type="curve" smooth="yes"/>
      <point x="806" y="533"/>
      <point x="760" y="547"/>
      <point x="666" y="588" type="curve" smooth="yes"/>
      <point x="536" y="643"/>
      <point x="494" y="652"/>
      <point x="418" y="652" type="curve" smooth="yes"/>
      <point x="320" y="652"/>
      <point x="244" y="619"/>
      <point x="171" y="539" type="curve"/>
    </contour>
    <contour>
      <point x="171" y="717" type="line"/>
      <point x="228" y="779"/>
      <point x="320" y="833"/>
      <point x="398" y="833" type="curve" smooth="yes"/>
      <point x="459" y="833"/>
      <point x="504" y="820"/>
      <point x="599" y="779" type="curve" smooth="yes"/>
      <point x="728" y="724"/>
      <point x="771" y="714"/>
      <point x="846" y="714" type="curve" smooth="yes"/>
      <point x="944" y="714"/>
      <point x="1022" y="747"/>
      <point x="1094" y="828" type="curve"/>
      <point x="1094" y="1007" type="line"/>
      <point x="1036" y="947"/>
      <point x="946" y="891"/>
      <point x="867" y="891" type="curve" smooth="yes"/>
      <point x="806" y="891"/>
      <point x="760" y="905"/>
      <point x="666" y="946" type="curve" smooth="yes"/>
      <point x="536" y="1001"/>
      <point x="494" y="1010"/>
      <point x="418" y="1010" type="curve" smooth="yes"/>
      <point x="320" y="1010"/>
      <point x="244" y="977"/>
      <point x="171" y="897" type="curve"/>
    </contour>
  </outline>
</glyph>
<glyph name="notequal" format="1">
  <advance width="1145"/>
  <unicode hex="2260"/>
  <outline>
    <contour>
      <point x="361" y="0" type="line"/>
      <point x="534" y="0" type="line"/>
      <point x="584" y="202" type="line"/>
      <point x="1020" y="202" type="line"/>
      <point x="1020" y="370" type="line"/>
      <point x="628" y="370" type="line"/>
      <point x="685" y="592" type="line"/>
      <point x="1020" y="592" type="line"/>
      <point x="1020" y="760" type="line"/>
      <point x="730" y="760" type="line"/>
      <point x="782" y="962" type="line"/>
      <point x="611" y="962" type="line"/>
      <point x="557" y="760" type="line"/>
      <point x="125" y="760" type="line"/>
      <point x="125" y="592" type="line"/>
      <point x="513" y="592" type="line"/>
      <point x="454" y="370" type="line"/>
      <point x="125" y="370" type="line"/>
      <point x="125" y="202" type="line"/>
      <point x="410" y="202" type="line"/>
    </contour>
  </outline>
</glyph>
<glyph name="lessequal" format="1">
  <advance width="1060"/>
  <unicode hex="2264"/>
  <outline>
    <contour>
      <point x="936" y="239" type="line"/>
      <point x="936" y="429" type="line"/>
      <point x="307" y="731" type="line"/>
      <point x="936" y="1038" type="line"/>
      <point x="936" y="1227" type="line"/>
      <point x="57" y="781" type="line"/>
      <point x="57" y="683" type="line"/>
    </contour>
    <contour>
      <point x="57" y="0" type="line"/>
      <point x="936" y="0" type="line"/>
      <point x="936" y="172" type="line"/>
      <point x="57" y="172" type="line"/>
    </contour>
  </outline>
</glyph>
<glyph name="greaterequal" format="1">
  <advance width="1061"/>
  <unicode hex="2265"/>
  <outline>
    <contour>
      <point x="130" y="239" type="line"/>
      <point x="1009" y="683" type="line"/>
      <point x="1009" y="781" type="line"/>
      <point x="130" y="1227" type="line"/>
      <point x="130" y="1038" type="line"/>
      <point x="759" y="731" type="line"/>
      <point x="130" y="429" type="line"/>
    </contour>
    <contour>
      <point x="130" y="0" type="line"/>
      <point x="1009" y="0" type="line"/>
      <point x="1009" y="172" type="line"/>
      <point x="130" y="172" type="line"/>
    </contour>
  </outline>
</glyph>
<glyph name="lozenge" format="1">
  <advance width="1136"/>
  <unicode hex="25CA"/>
  <outline>
    <contour>
      <point x="521" y="0" type="line"/>
      <point x="615" y="0" type="line"/>
      <point x="1094" y="595" type="line"/>
      <point x="615" y="1178" type="line"/>
      <point x="521" y="1178" type="line"/>
      <point x="42" y="595" type="line"/>
    </contour>
    <contour>
      <point x="570" y="166" type="line"/>
      <point x="239" y="595" type="line"/>
      <point x="570" y="1006" type="line"/>
      <point x="897" y="595" type="line"/>
    </contour>
  </outline>
</glyph>
<glyph name="ff" format="1">
  <advance width="1417"/>
  <unicode hex="FB00"/>
  <outline>
    <component base="f"/>
    <contour>
      <point x="742" y="0" type="line"/>
      <point x="1275" y="0" type="line"/>
      <point x="1275" y="151" type="line"/>
      <point x="1097" y="151" type="line"/>
      <point x="1097" y="653" type="line"/>
      <point x="1273" y="653" type="line"/>
      <point x="1273" y="804" type="line"/>
      <point x="1097" y="804" type="line"/>
      <point x="1097" y="940" type="line" smooth="yes"/>
      <point x="1097" y="1051"/>
      <point x="1126" y="1089"/>
      <point x="1181" y="1089" type="curve" smooth="yes"/>
      <point x="1242" y="1089"/>
      <point x="1256" y="1042"/>
      <point x="1267" y="972" type="curve"/>
      <point x="1433" y="1017" type="line"/>
      <point x="1421" y="1182"/>
      <point x="1306" y="1235"/>
      <point x="1172" y="1235" type="curve" smooth="yes"/>
      <point x="954" y="1235"/>
      <point x="878" y="1111"/>
      <point x="878" y="931" type="curve" smooth="yes"/>
      <point x="878" y="804" type="line"/>
      <point x="540" y="804" type="line"/>
      <point x="540" y="653" type="line"/>
      <point x="878" y="653" type="line"/>
      <point x="878" y="151" type="line"/>
      <point x="742" y="151" type="line"/>
    </contour>
  </outline>
</glyph>
